<svg clip-rule="evenodd" fill-rule="evenodd" stroke-linejoin="round" stroke-miterlimit="1.414" viewBox="0 0 100 100" xmlns="http://www.w3.org/2000/svg"><g fill-rule="nonzero"><path d="m47.706 97.649a67.814 67.814 0 0 1 -9.312-5.007 110.82 110.82 0 0 1 -13.259-10.284 31.137 31.137 0 0 1 -8.632-13.879 62.735 62.735 0 0 1 -2.733-19.467v-45.291h72.459v45.291a63.828 63.828 0 0 1 -2.674 19.527 30.877 30.877 0 0 1 -8.612 13.839 114.524 114.524 0 0 1 -13.298 10.214 69.217 69.217 0 0 1 -7.931 4.466c-.401.201-3.605 1.663-3.605 1.663z" fill="#fff"/><path d="m82.414 22.046h-64.869v-14.52h64.869zm-60.092 50.699a24.874 24.874 0 0 0 5.356 6.909 101.605 101.605 0 0 0 12.217 9.413 62.174 62.174 0 0 0 8.512 4.606l1.602.732h.05l1.663-.752a61.844 61.844 0 0 0 8.39-4.606 105.644 105.644 0 0 0 12.237-9.413 24.595 24.595 0 0 0 5.388-6.909z" fill="#231f20"/><path d="m50.069 55.771-21.63-32.964h43.24zm32.335-32.949v22.786l-17.455 26.376h-29.82l-17.584-26.376v-22.791l32.524 49.127 32.335-49.122v-.015h.01z" fill="#00468b"/><path d="m52.332 11.642c1.001 0 1.101.4 1.101 3.003 0 2.604-.1 3.004-1.101 3.004h-.5v-6.007zm.661 7.84c2.944 0 3.104-2.313 3.104-4.877 0-2.563-.16-4.886-3.104-4.886h-3.705v9.763zm-7.47-2.083v-7.68h-2.544v9.763h5.678v-2.083zm-6.349 0v-7.68h-2.543v9.763h5.678v-2.083zm-14.67-2.122c.47 0 .902.4.902 1.181s-.422 1.201-.902 1.201h-.701v-2.382zm-.08-3.726c.52.001.801.471.801 1.002 0 .53-.281 1.001-.801 1.001h-.621v-2.003zm-3.175-1.832v9.763h3.856a2.629 2.629 0 0 0 2.944-2.904 2.071 2.071 0 0 0 -1.802-2.233 2.017 2.017 0 0 0 1.521-2.183c0-1.442-.841-2.443-2.663-2.443zm50.049 9.753v-5.307h-3.284v1.722h.931c-.01 1.672-.331 2.002-.861 2.002-.781 0-.851-.7-.851-3.344 0-2.643.08-3.345.901-3.345a.584.584 0 0 1 .6.421c.105.375.149.764.131 1.152h2.473c0-2.383-1.281-3.304-3.084-3.304-3.014 0-3.635 1.852-3.635 5.076s.23 5.067 2.804 5.067a2.07 2.07 0 0 0 2.102-1.001l.07.861zm-10.954-1.522c-.792 0-.862-.701-.862-3.345 0-2.643.1-3.345.862-3.345.76 0 .861.712.861 3.345 0 2.634-.091 3.345-.861 3.345zm0-8.421c-2.604 0-3.506 1.431-3.506 5.076 0 3.646.922 5.067 3.506 5.067 2.582 0 3.484-1.411 3.484-5.067 0-3.655-.882-5.076-3.484-5.076zm15.801 3.004 2.363.09c0-2.103-1.011-3.004-3.155-3.004-2.142 0-3.204 1.001-3.204 3.004 0 3.445 4.006 2.504 4.006 4.446l.006.1c0 .46-.377.839-.838.842-.49 0-.82-.292-.82-1.133v-.23h-2.464v.33c0 2.024 1.172 2.744 3.274 2.744 2.264 0 3.465-.921 3.465-3.004 0-3.555-4.165-2.624-4.165-4.556l-.004-.081c0-.428.352-.78.78-.78h.024c.491 0 .732.431.732 1.002zm-44.682-2.814h-2.502v6.449c0 2.683 1.151 3.554 3.274 3.554 2.122 0 3.305-.82 3.305-3.554v-6.449h-2.544v7.009c0 .951-.31 1.201-.771 1.201-.46 0-.762-.26-.762-1.201zm19.146 59.241.532.03c.681.501 2.453.441 3.405.281l.46-.101a9.606 9.606 0 0 0 -.4 1.722c-.18.473-.502.879-.922 1.162h-.05a4.109 4.109 0 0 0 -1.072 2.803c-.003.385.058.768.181 1.133a2.812 2.812 0 0 0 2.523 1.862c.462.036.908-.184 1.161-.571l1.483.2c.172.16.388.265.621.3.33.029.659-.061.931-.25.869.037 1.74.004 2.603-.1.432.192.932.146 1.323-.12a4.653 4.653 0 0 0 1.722-.641l.22-.15.1-.27c.152-.309.254-.641.3-.981a5.014 5.014 0 0 0 -.6-2.354 6.092 6.092 0 0 0 -.841-2.503 1.477 1.477 0 0 1 -.12-.601c.114-.923.332-1.83.65-2.704v-.07c.406-1.173.674-2.389.801-3.625 0-.77.14-2.203.24-2.804a5.274 5.274 0 0 0 .301-1.542v-.451c-.025-.852.042-1.704.2-2.542.194-.527.338-1.07.431-1.623.162.14.349.249.551.32.272.06.513.222.671.451a17.256 17.256 0 0 0 2.153 3.635c.048.61.155 1.214.32 1.802v.041c.234.348.413.729.531 1.131.078.5.185.995.32 1.482l4.747-7.831a6.88 6.88 0 0 0 -.702-2.804 2.806 2.806 0 0 1 -.4-1.461v-.301a16.464 16.464 0 0 0 -1.662-5.938 15.493 15.493 0 0 1 -1.302-3.274v-.171c-.258-1.988-2.303-5.437-2.303-5.437l-4.166-5.007a6.505 6.505 0 0 0 -3.935-2.233 11.678 11.678 0 0 0 -2.614-5.478c-1.601-2.002-3.855-2.343-5.106-1.551a7.107 7.107 0 0 0 -4.637-.802l-.37.151h-.271a7.685 7.685 0 0 0 -4.777.06h-.11a1.21 1.21 0 0 1 -.24.13c-.871-.622-2.844-1.252-6.669.601-3.335 1.601-3.605 2.232-3.565 4.746v.902c0 .55 0 2.282 1.231 2.522.376.069.763-.018 1.073-.24a31.966 31.966 0 0 0 -.201 2.834l-4.456 8.152a5.785 5.785 0 0 0 -2.203 4.445 1.665 1.665 0 0 1 -.241.541 5.366 5.366 0 0 0 -.5 2.343c-.01.689.126 1.372.4 2.003.175.383.261.801.251 1.222-.001.39-.058.778-.171 1.151a9.824 9.824 0 0 0 -.48 3.304 7.17 7.17 0 0 0 1.222 4.407c.37 1.076.592 2.198.661 3.335 0 .64-4.086 6.629-4.086 6.629a4.642 4.642 0 0 0 -1.602 2.773c-.003.205.031.409.1.601l.16.401.42.1c.2.023.402.023.602 0l.25.5.581-.07a6.119 6.119 0 0 0 1.221-.3 3.277 3.277 0 0 0 2.374.1c.116.094.244.171.38.23l.45.18.721-.62c.528.17 1.089.204 1.633.1a3.671 3.671 0 0 0 1.562-.701l1.002-.1.14-.06a3.486 3.486 0 0 0 1.401-2.604c.155-.289.231-.613.22-.941a4.406 4.406 0 0 0 -.28-1.432v-.08c.016-.211.078-.416.18-.601.172-.305.255-.652.241-1.001a4.006 4.006 0 0 0 -.401-1.603 5.411 5.411 0 0 1 -.13-1.501c.025-1.274.125-2.544.3-3.805.29-.582.492-1.203.601-1.843a3.449 3.449 0 0 1 1.102-.281c1.18-.23 3.245 1.001 3.245 1.001zm.782 12.246c.145.023.289.056.431.101l.34.17c.108.054.208.122.3.201.077.088.138.19.181.3.047.119.081.243.1.37.015.109.015.221 0 .331a1.339 1.339 0 0 1 -.161.27c-.074.083-.154.16-.24.23l-.3.2-.33.161-.371.1-.4.04h-1.122a.247.247 0 0 1 -.101-.08.33.33 0 0 1 -.1-.141c-.021-.054 0-.17 0-.28v-.4a2.87 2.87 0 0 0 0-.371v-.71a.374.374 0 0 1 -.136-.205.664.664 0 0 1 .176-.136c.106-.046.218-.08.331-.101l.46-.05zm1.762 5.117a1.747 1.747 0 0 1 -.14.501v.07a2.175 2.175 0 0 1 -.27.461 2.494 2.494 0 0 1 -.401.331c-.15.08-.37.18-.48.23a2.968 2.968 0 0 1 -.481.12 2.718 2.718 0 0 1 -.46 0h-.442l-.36-.05-.26-.06-.181-.08-.12-.1a.122.122 0 0 1 0-.08c.009-.026 0-.201 0-.361v-.041c0-.16 0-.43.06-.6v-1.682c.001-.116.022-.231.06-.34a.25.25 0 0 1 .161-.1h1.222c.178-.002.355.015.53.05.17.034.337.077.501.13.126.048.244.115.35.2l.281.23c.096.086.177.187.24.301.065.128.119.262.16.4.029.155.039.313.03.47zm-2.544 2.434h1.103l.48-.13c.172-.064.339-.141.501-.23.13-.07.33-.181.44-.261.127-.077.244-.168.35-.27l.251-.321c.092-.139.176-.283.251-.431.076-.15.137-.307.18-.47.037-.148.06-.299.07-.451a1.453 1.453 0 0 0 -.091-.336c-.003-.121-.1-.316-.129-.434a2.416 2.416 0 0 0 -.431-.741 2.952 2.952 0 0 0 -.271-.241 1.173 1.173 0 0 0 -.25-.161.247.247 0 0 1 -.14-.14c-.024-.064 0-.13.12-.2a1.75 1.75 0 0 0 .3-.32c.103-.157.186-.325.251-.501v-.06c.061-.184.095-.376.1-.571a1.979 1.979 0 0 0 -.07-.53 1.99 1.99 0 0 0 -.451-.752 2.511 2.511 0 0 0 -.831-.581l-.5-.18a2.08 2.08 0 0 0 -.421-.07h-.43a4.67 4.67 0 0 0 -.502 0l-.53.08-.501.1-.3.04h-.406a.254.254 0 0 0 -.25.251l.005.05v.17c0 .17.06.431.08.602v.2c0 .15.05.4.06.57v4.786l-.07.582v.23a.363.363 0 0 0 .15.361c.1.05.321.12.461.16l.5.1.451.1c.157.009.314.009.47 0zm.382-10.254-.572-.06h-.58a3.795 3.795 0 0 0 -.521.06l-.501.1a3.038 3.038 0 0 0 -.52.201h-.07a3.133 3.133 0 0 0 -.501.3l-.1.07a4.319 4.319 0 0 0 -.441.37 5.337 5.337 0 0 0 -.701.931c-.089.17-.163.348-.22.531-.06.16-.16.421-.16.561-.03.161-.131.421-.131.601v.05c-.02.16-.1.421-.1.581v.08c-.05.15-.1.42-.15.52l-.18.401c-.065.12-.145.231-.24.33-.1.089-.207.17-.321.24a.155.155 0 0 0 -.066.126c0 .05.025.097.066.126.09.081.17.172.241.27l.23.32c.08.122.154.25.22.381.072.162.132.329.18.5.03.17.09.441.1.571s.051.36.061.5c.01.141.08.381.08.562v.1c.036.191.089.379.16.561l.06.17c.05.16.17.4.25.54l.1.181c.099.167.213.324.341.47.124.143.258.277.4.401l.1.08c.159.122.327.232.502.33l.25.15.52.251.181.1c.15.071.39.151.55.201.193.013.388.013.581 0 .385.021.771 0 1.152-.06.179-.038.356-.084.531-.141h.07l.55-.16c.16-.052.315-.119.461-.201.119-.064.247-.108.38-.13h.361c.126.004.25.024.371.06.1.04.15-.07.15-.23l-.1-.871c-.02-.14-.15-.24-.281-.14l-.281.18a3.181 3.181 0 0 1 -.5.28l-.32.13c-.151.08-.391.201-.551.201l-.38.1c-.19.051-.385.085-.581.1h-.421c-.2.012-.401.012-.601 0h-.2a2.184 2.184 0 0 1 -.581-.13l-.3-.121a2.99 2.99 0 0 1 -.521-.27l-.24-.2a2.882 2.882 0 0 1 -.431-.38l-.1-.101a3.234 3.234 0 0 1 -.341-.48l-.1-.18a3.534 3.534 0 0 1 -.24-.541l-.1-.33a4.492 4.492 0 0 1 -.131-.562l-.04-.4c-.011-.2 0-.601 0-.601l.06-3.565c.01-.16.05-.42.05-.58l.061-.34c.039-.193.096-.381.17-.562l.08-.16c.083-.177.183-.345.3-.501l.101-.14c.117-.148.252-.282.401-.4l.23-.171c.156-.116.324-.217.5-.3l.251-.12c.179-.053.364-.087.55-.1h.17c.195-.011.388-.011.581 0h.401l.601.06h.15c.191.033.379.083.561.15l.17.06c.14.06.39.18.541.26l.3.181c.174.088.341.188.5.3l.121.1.481.401.1.07c.13.1.23.06.23-.101v-.6a5.477 5.477 0 0 1 0-.601l.06-.43c.02-.16-.01-.261-.06-.261v.021a.93.93 0 0 0 -.2.25c-.091.072-.192.13-.3.17a1.136 1.136 0 0 1 -.362.05h-.33a2.496 2.496 0 0 1 -.35-.1l-.431-.18-.43-.17-.481-.141a5.108 5.108 0 0 0 -.56-.13z" fill="#fff"/><path d="m60.072 36.275c.26-.749.342-1.547.242-2.333 0-.601-.422-1.262-.101-1.763.344-.416.77-.757 1.252-1.001.801-.3 1.802.761 2.403 1.372-.741.821-1.833 1.141-2.303 2.203-.28.621-.18 1.432-1.081 1.422zm-7.45-4.085c-1.401-1.102-3.504-.601-5.167-.931l-.881.2c-1.101 1.001-2.934 1.261-3.505 2.744a5.91 5.91 0 0 0 -.16 2.854c.261 1.271.701 1.401 1.443 1.121a.839.839 0 0 1 -.101.18v.32c1.352.301 2.233 1.703 3.636 1.903.962.118 1.938.05 2.874-.2 1.001-.331 2.402-1.302 1.801-2.453a.929.929 0 0 0 1.052-.651c.571-1.303.13-4.147-1.002-5.077zm-17.984 9.072c1.002.2 1.002 1.602 1.222 2.404a9.371 9.371 0 0 0 5.116 5.546 10.135 10.135 0 0 1 -3.384-.4c-.561-.2-1.101-.701-1.642-.671-.2 1.121 1.602 1.803 2.343 2.244a24.909 24.909 0 0 0 5.187 2.262 19.215 19.215 0 0 1 -4.236-.751 5.465 5.465 0 0 0 -2.373-.6 18.894 18.894 0 0 0 2.654 2.583c-2.053-.4-4.777 0-5.728-2.203a2.57 2.57 0 0 0 -.831-1.301 6.73 6.73 0 0 1 -.921-.581c-1.363-1.483.1-3.104.45-4.557a2.579 2.579 0 0 1 .621-1.471 4.442 4.442 0 0 0 1.361-2.504zm35.239 2.233a4.997 4.997 0 0 0 1.071 2.703c.471.829.752 1.753.821 2.704a16.377 16.377 0 0 0 1.132 5.748c-1.002-.951-1.593-2.984-2.274-4.205a8.35 8.35 0 0 1 -.83-2.904c-.06-.581-.952-3.745 0-4.086zm-11.67 12.801c-.228 1.094-4.206 1.86-5.204 2.089a11.006 11.006 0 0 1 -4.306.501 7.74 7.74 0 0 1 -3.504-1.502c.861-.09 1.752.04 2.633.04a5.234 5.234 0 0 0 2.743-1.301c.282-.205.549-.425.802-.662-.796-.265-1.567-.6-2.303-1.001l-.12-.1c.65-.24 1.541-.02 2.303-.32a5.672 5.672 0 0 0 2.503-1.703 6.923 6.923 0 0 1 -2.603-.601c.811-.25 1.862.13 2.663-.2a2.521 2.521 0 0 0 1.162-1.482c.15-.681-.15-.511-.851-.581a3.722 3.722 0 0 1 -1.422-.301c.951-.52 2.603.02 3.184-1.121.33-.65.49-1.571.751-2.253.402.381.759.809 1.062 1.272a10.66 10.66 0 0 1 1.001 3.845 17.504 17.504 0 0 1 -.501 5.308l.01.06zm3.428-9.988c.16 1.083.48 2.124.621 3.245.18 1.502.26 3.004.3 4.507.07 2.083-.26 4.355-.05 6.388.671-1.432.47-3.765.601-5.407.13-1.642.561-3.175.601-4.736.04-1.563-1.282-2.854-2.003-3.907zm-23.211 34.297h.66v4.717a.228.228 0 0 0 .07.181.685.685 0 0 0 .301.1l.4.05a.273.273 0 0 1 0 .07c-.003.023 0 .1 0 .2h-2.504c-.003-.05-.003-.1 0-.15a.94.94 0 0 1 0-.13l.371-.1a.907.907 0 0 0 .361-.12.207.207 0 0 0 .07-.151v-3.865c-.212.155-.433.3-.661.431l-.361.18a1.505 1.505 0 0 1 -.17-.3 5.97 5.97 0 0 0 .601-.321c.19-.139.37-.289.541-.451.107-.11.207-.227.301-.351zm18.444 2.885-.2-.241c.375-.243.712-.54 1.002-.881a.766.766 0 0 0 .16-.46.604.604 0 0 0 -.18-.451.574.574 0 0 0 -.421-.181c-.389.033-.733.27-.902.622l-.25-.14c.096-.228.224-.441.381-.632.148-.158.329-.281.53-.36.205-.075.424-.109.642-.1.296-.021.59.072.821.26a.849.849 0 0 1 .28.662 1 1 0 0 1 -.2.6c-.192.252-.43.466-.701.631h.08c.343-.01.672.147.881.42.216.252.337.571.34.901a2.229 2.229 0 0 1 -.2.902 1.645 1.645 0 0 1 -.701.751c-.381.203-.809.3-1.242.28a2.004 2.004 0 0 1 -1.101-.25.452.452 0 0 1 -.24-.38.352.352 0 0 1 .1-.261.398.398 0 0 1 .3-.1.512.512 0 0 1 .3.08c.135.102.253.225.351.361.055.08.131.142.22.18.085.043.176.07.271.08a.877.877 0 0 0 .441-.14c.173-.123.303-.299.37-.501.097-.249.144-.514.14-.782a1.151 1.151 0 0 0 -.24-.76.7.7 0 0 0 -.531-.281.94.94 0 0 0 -.501.201zm5.508-2.834h.3a5.17 5.17 0 0 1 -.25.932.15.15 0 0 1 -.1.08h-1.702v1.111c.116-.063.241-.11.37-.14.133-.015.268-.015.401 0 .405.003.794.165 1.081.45.12.132.221.28.3.441a.912.912 0 0 1 .13.3v.36c.007.192-.01.384-.05.572a1.844 1.844 0 0 1 -.3.57 1.572 1.572 0 0 1 -1.001.701 3.528 3.528 0 0 1 -.801.07 1.55 1.55 0 0 1 -.902-.25.445.445 0 0 1 -.22-.38.404.404 0 0 1 .13-.301.43.43 0 0 1 .3-.1.799.799 0 0 1 .602.351c.068.103.152.194.25.27.099.047.21.068.321.06a.803.803 0 0 0 .45-.14c.157-.104.282-.25.36-.421.082-.165.128-.346.131-.53a1 1 0 0 0 -.281-.732.905.905 0 0 0 -.7-.3 1.069 1.069 0 0 0 -.351.04 1.21 1.21 0 0 0 -.28.17l-.17.1h-.1a.174.174 0 0 1 -.101 0 .094.094 0 0 1 0-.07l.051-1.281a.952.952 0 0 1 0-.151c.003-.05 0-.15 0-.34v-.832a.534.534 0 0 0 0-.08v-.16c0-.06 0-.1.13-.14.213-.015.427-.015.64 0h1.001a.829.829 0 0 0 .281 0 .298.298 0 0 0 .1-.2zm-21.62 5.407a.259.259 0 0 1 -.07-.15.143.143 0 0 1 0-.1.788.788 0 0 1 .24-.13c.259-.097.503-.232.722-.401.197-.149.366-.332.5-.54.141-.214.243-.452.301-.702.052-.197.085-.398.1-.601s0-.17 0-.35a4.633 4.633 0 0 0 0-.5 2.758 2.758 0 0 0 -.25-1.403.564.564 0 0 0 -.461-.3.54.54 0 0 0 -.44.24c-.193.297-.281.65-.252 1.002-.015.24-.015.481 0 .721.023.142.074.278.152.4a.39.39 0 0 0 .13.16.743.743 0 0 0 .32.081.744.744 0 0 0 .2 0h.07a.117.117 0 0 1 .1 0 .199.199 0 0 1 0 .14.18.18 0 0 1 -.13.2c-.182.07-.376.104-.57.1h-.03a2.54 2.54 0 0 1 -.482-.2 1.423 1.423 0 0 1 -.35-.351 1.255 1.255 0 0 1 -.18-.4 2.503 2.503 0 0 1 -.101-.601c0-.315.08-.624.231-.901.137-.255.346-.464.6-.601.245-.14.521-.216.802-.22.497-.006.969.215 1.282.6.374.486.559 1.091.52 1.703a3.593 3.593 0 0 1 -.2 1.171 5.66 5.66 0 0 1 -.3.572 3.005 3.005 0 0 1 -1.522 1.271c-.24.098-.494.155-.752.17zm9.234 11.525-.001.001v-.001l-1.852-.831a66.556 66.556 0 0 1 -9.163-5.006 109.163 109.163 0 0 1 -13.188-10.143 30.204 30.204 0 0 1 -8.342-13.44 61.976 61.976 0 0 1 -2.673-19.156v-44.28h70.436v44.28a62.68 62.68 0 0 1 -2.623 19.226 29.843 29.843 0 0 1 -8.352 13.4 113.275 113.275 0 0 1 -13.198 10.113 67.196 67.196 0 0 1 -7.811 4.406l-1.231.57-1.913.823v.079l-.089-.041.089-.038v-2.274l-.067-.03 1.98-.871a62.699 62.699 0 0 0 8.532-4.637 107.013 107.013 0 0 0 12.317-9.483 28.21 28.21 0 0 0 7.9-12.687 57.91 57.91 0 0 0 2.444-18.025v-42.758h-66.391v42.758a57.945 57.945 0 0 0 2.523 18.025 28.4 28.4 0 0 0 7.871 12.687 102.43 102.43 0 0 0 12.277 9.483 62.3 62.3 0 0 0 8.612 4.657l1.935.851-.023.01v2.332z" fill="#878a8f"/><path d="m40.576 41.402c.922.07.702-1.151.702-1.633a12.953 12.953 0 0 1 .53-4.005 8.992 8.992 0 0 1 1.532-3.004.998.998 0 0 0 .3-.33c.149-.156.309-.301.481-.431l.13-.06c.341-.17.701-.3 1.002-.44.72-.301 1.001-1.002 1.702-1.333.217-.12.441-.227.671-.32.24-.1.501-.07.701-.14a.412.412 0 0 0 .14-.05h.801a5.46 5.46 0 0 1 1.573.06 7.141 7.141 0 0 1 1.852.952.663.663 0 0 0 -.161-.502c.451-.1.671.231 1.202.401a1.012 1.012 0 0 1 -.181-.451 1.007 1.007 0 0 1 .221-.7c.171.5.381 1.242.862 1.071.48-.17.3-.901.2-1.302.29.133.494.405.54.721a.923.923 0 0 1 -.36.832c.36 0 .601-.261.751-.802.65-.08.48 1.002 1.302.601.1-.481.23-.901-.071-1.272 0 0-.52-.27-.55-.3-.201-.13-.101-.35-.431-.36a4.13 4.13 0 0 0 -2.002-.2 2.242 2.242 0 0 0 -.822.36c-.104.056-.21.106-.32.15a1.187 1.187 0 0 1 -.24.08 8.501 8.501 0 0 0 -.901.601.999.999 0 0 1 -.521-.801c.053-.67.215-1.325.481-1.943.395-1.172.571-2.409.52-3.645-.28 1.172-.951 2.303-1.251 3.485-.2.822-.302 1.733-.432 2.533a3.406 3.406 0 0 0 -1.872-.16c-.32 0-.5.14-.801 0-.651-.3-1.102-1.221-1.502-1.753 0 .522.36 1.233.38 1.833-.2.231-.32.651-.5.871a6.341 6.341 0 0 1 -2.003 1.202 4.51 4.51 0 0 0 -2.253 1.742 9.18 9.18 0 0 0 -2.273 5.138c-.1.771-.34 3.204.881 3.304zm15.551 22.831s-.15.751-.52.751a1.776 1.776 0 0 0 -1.372 1.002c-.15.37 0 .561.23.26 0 0 .451-.4.751-.4.301 0 1.101-.07 1.201-1.573-.05-.26-.27-.03-.27-.03zm-14.549-37.271a6.744 6.744 0 0 1 1.802-1.001c1.252-.431 2.533-.621 3.224-1.933l-.2.1a13.82 13.82 0 0 0 -4.536 1.773 2.643 2.643 0 0 0 -1.603 1.903c.501.1.871-.582 1.263-.902zm.06 2.944c.17.551.4.762.761.802a.924.924 0 0 1 .17-1.563c-.1.421-.14 1.202.2 1.302s.701-.561.871-1.071a.94.94 0 0 1 .22.7.995.995 0 0 1 -.2.461c.641-.2.832-.621 1.483-.301.248-.148.428-.389.5-.67a9.664 9.664 0 0 0 -.901-.601l-.25-.08a3.123 3.123 0 0 1 -.321-.15 2.271 2.271 0 0 0 -.801-.351 4.131 4.131 0 0 0 -2.002.201c-.342 0-.232.22-.442.36 0 0-.52.25-.55.3-.301.361-.151.781-.05 1.252.8.361.65-.721 1.272-.651zm16.222 43.059c-.168.27-.198.605-.08.901.187.257.292.564.3.881.008.318.23.402.341.16a1.948 1.948 0 0 0 0-1.081 1.916 1.916 0 0 1 .2-1.581c.2-.462-.361-.241-.801.73zm-3.004-48.667a20.451 20.451 0 0 1 2.564 3.054c.46.752.56.432.6.302s-.14-.602.501-.302c.64.302 1.051.632.55-.53-.5-1.161-1.531-2.774-3.004-3.184-1.121-.241-1.842.2-1.201.66zm21.79 46.024c-.361.53-.802.38-1.002-.601-.15.16-.1.521-.1.521s-.901.3-1.051.1c-.151-.201-.241-.221-.301.08-.24-.06-.701-.15-.671-1.001 0 0-.33-.1-.781.45-.641.15-.601-.821-.501-1.422 0 0-.54-.1-.621 1.242a.602.602 0 0 1 -.43-.06 5.006 5.006 0 0 1 1.151-3.405c1.423-1.182.822-4.687.341-5.377a16.48 16.48 0 0 1 -1.152-3.004 7.013 7.013 0 0 1 -1.621-2.454c-.06-.24-.852-2.002-1.333-2.172-.48-.171-2.263-1.403-2.233-2.554.852-.901.12-3.004.12-3.004a5.366 5.366 0 0 0 1.843-6.279 3.26 3.26 0 0 1 -.601-1.482 7.163 7.163 0 0 0 -.57-2.653c-.067.954-.043 1.913.07 2.863 1.902 2.463.57 5.638-1.273 7.01a9.047 9.047 0 0 0 -2.382-2.523c-1.122-.571-1.262-1.573-1.453-2.574-.19-1.001-.45-2.103-1.321-2.504.418.623.676 1.338.751 2.083 0 .221-.3 2.064.701 3.005 4.255 3.805 3.604 5.407 3.004 6.238a3.063 3.063 0 0 0 -.2 2.083 3.437 3.437 0 0 1 -.02 2.293 6.498 6.498 0 0 0 -.441 2.003 8.778 8.778 0 0 1 -.2 3.004 7.361 7.361 0 0 0 -.361 2.153 15.542 15.542 0 0 1 -1.002 5.007c-.606 1.602-.941 3.304-.5 3.865a5.18 5.18 0 0 1 .902 2.323c.483.451.667 1.141.47 1.773-.25.4-.902.2-.902.2 0 .26-.5.571-.54.26-.04-.31-.381-.78-.701-.22a2.011 2.011 0 0 1 -2.173.401.353.353 0 0 0 -.531.07c-.22.32-.38.07-.38.07.06-1.001-.18-.931-.18-.931a1.486 1.486 0 0 1 -2.184.43c-.23-.22-.76-.2-.7.621-1.051-.381-.601-2.063.22-2.664.357-.271.555-.704.53-1.151h-.28a.55.55 0 0 1 -.28.52c-.661.301-1.352.871-1.322 2.935-.5-.151-.6-2.404.781-3.105a11.925 11.925 0 0 0 2.053-6.178c.098-2.211 0-4.647.601-6.109 0 0 .701-1.943-.18-2.183l-1.272.33s-1.162.161-1.362.532a1.657 1.657 0 0 1 -1.533 1.051 6.37 6.37 0 0 0 -2.552.601 3.466 3.466 0 0 0 -2.354-.871 10.93 10.93 0 0 1 -5.808-2.654c-.5-.4-1.331-1.663-2.503-1.663-5.207-.3-7.941-1.001-8.471-4.305 0 4.637 1.751 5.407 1.751 5.407-.13 1.322.131 5.648.861 6.339-1.381-8.472 2.764-5.678 1.403-3.605a19.72 19.72 0 0 0 0 6.229c.27.215.411.556.37.901a2.287 2.287 0 0 0 -.36 2.053 3.514 3.514 0 0 1 -.681 3.585c0-1.233-.601-.762-.601-.762-1.002 1.903-2.803 1.863-3.255 1.232l-.831.701c-.33-.17.1-1.442.1-1.442s-.36 0-.53.601-.461.661-.461.661a1.731 1.731 0 0 1 -2.053-.301c-.701.601-.941.401-.941.401.016-.297.105-.587.26-.841l-1.061.601h-.37c-.1-1.363 1.521-2.004 1.521-2.004.331-1.361 2.905-1.862 2.905-1.862.1-.3 1.701-2.423 1.701-2.423v-.4s.07-4.387-.841-6.129c-1.341-1.823-1.231-6.289-.4-7.891.14-.401.3-.901-.38-2.683-.671-2.123.1-6.008 1.933-7.511a3.91 3.91 0 0 0 1.601-2.944c0-1.171 1.603-3.104 2.134-3.745a7.502 7.502 0 0 0 -.151 1.361c.02 1.256.209 2.502.561 3.706.1.651.17.931.701 1.302.505.322.988.679 1.442 1.071.401.371.571.702 1.101.822.325.115.66.195 1.002.24h.06c.728.379 1.58.451 2.363.2a2.32 2.32 0 0 0 1.001-1.603l.28-.961c.432-2.003.742-3.384 2.854-4.075l.802-.28c1.502-.562 2.933-1.082 4.366.3.901.881.861 2.002.801 3.305v1.001c0 1.532.33 2.003 1.102 2.503-.411.292-.725.7-.902 1.172-.561 1.502-3.154 1.752-3.365.22-.23-1.251-.65-3.084-.25-4.226-.651.881-.27 2.544-.801 3.455a5.03 5.03 0 0 1 -1.642 1.251 1.142 1.142 0 0 1 -.761-1.001c-.951-.36-2.144.451-3.155.12-.32-.1-.7-.57-1.001-.46-.3.11 0 .701.271.901.462.469 1.12.693 1.771.6.298-.07.599-.12.902-.15.401.832 1.942 1.072 3.085 1.002a3.226 3.226 0 0 0 4.175-.23 8.333 8.333 0 0 1 2.053-1.773c1.932 0 2.623-2.273 3.054-4.055a23.263 23.263 0 0 1 1.652-4.547c.801-1.882 0-5.527-.33-6.669h1.051c.702 1.182 1.282 1.383 1.182.18 2.444.181 4.266 2.834 4.266 2.834s5.137 5.368 5.207 8.012c.13 1.185.469 2.337 1.001 3.404.533 1.068 1.923 3.665 1.923 6.269-.007.77.165 1.531.501 2.223.411.44.621 1.031.58 1.632a4.423 4.423 0 0 0 .361 2.233 5.833 5.833 0 0 1 1.151 3.255c.047 1.175-.18 2.002.201 2.453.462.681.719 1.48.741 2.303a2.207 2.207 0 0 0 .4 1.572c1.031.931 1.452 3.956-.54 3.926zm-21.43-2.664a6.93 6.93 0 0 1 -2.003 0c-.26-.2-.651-.501-.651.2h-.33a2.805 2.805 0 0 1 1.001-2.262c.667-.559 1.443-.752.782-1.002a3.356 3.356 0 0 0 -2.354 2.844h-.85a4.309 4.309 0 0 1 2.182-2.904l-.2-.131a4.014 4.014 0 0 0 -2.444 2.744c-1.121-1.001.552-2.503 1.302-2.754a2.403 2.403 0 0 0 1.602-1.431c.23-.882.652-2.253.652-2.253a5.007 5.007 0 0 0 1.602-.301 2.504 2.504 0 0 1 1.742-.921c-.23 0-.651 7.07-.651 7.07a1.884 1.884 0 0 1 -1.342 1.101zm4.005-38.232h-.77c0-.501.28-1.001.47-.561zm-22.931 6.358v-.24c.221-1.122.348-2.261.381-3.405-.261-7.259 8.632-10.464 11.496-9.573.321.108.663.143 1.001.1a7.188 7.188 0 0 1 3.945.501c1.242.535.601.671 1.202.33 3.405-1.601 5.477 3.905 5.807 5.838.202 1.002-.07.901-.45.101-.671-1.262-.501-1.262-1.502-1.182-.56 0-.7-.08.301 4.006.7 3.765 0 4.877 0 4.005 0-.301 0-1.702-.501-1.672a12.837 12.837 0 0 1 -.25 3.605c-.13.46-.28.57-.341.33-.06-.651-.621-2.273-.941-1.171a3.708 3.708 0 0 0 .5 2.002c0 1.683-.3 3.385-1.201 4.086-.301.14-.771.261-1.262.481a9.17 9.17 0 0 1 -.34-3.104c0-1.633 0-3.305-1.202-4.387a3.114 3.114 0 0 0 -1.602-.631c-.772-.13-1.522-.27-1.803-1.261a1.907 1.907 0 0 1 .521-1.903c.13-.1.26-.14.34-.1s.17.16.13.651v.06h.06c.462.13.672-.05.762-.231a2.43 2.43 0 0 0 -.6-2.172 2.11 2.11 0 0 0 -2.364-.2 1.54 1.54 0 0 0 -1.402 0 1.145 1.145 0 0 0 -.401 1.001c0 .601.561 1.301 1.002 1.301.15 0 .401-.1.431-.64a.383.383 0 0 1 .23.2c.131.316.189.659.17 1.001a4.335 4.335 0 0 1 -.4 2.003 2.807 2.807 0 0 1 -1.773.941 3.22 3.22 0 0 0 -1.602.722 4.797 4.797 0 0 0 -1.002 2.502 7.153 7.153 0 0 1 -.501 1.663c-.77 1.542-1.501 1.952-2.733 2.053a2.104 2.104 0 0 1 -.361-.131 19.268 19.268 0 0 1 -2.063-1.311c-.18-.12-.36-.2-.53-.301 0-2.603.27-5.387 1.652-7.61-1.262 1.302-1.402 2.924-2.003 4.576-.18.551-.38 1.001-.5 1.402 0-.16-.07-.321-.1-.451a14.88 14.88 0 0 1 -.181-3.805zm-.48-9.272c-1.062 3.244-1.202 1.602-1.152 0s.201-2.063 1.232-2.554a21.99 21.99 0 0 1 4.836-1.702c1.252-.17 1.683.501.602.501 0 .02-4.447.5-5.508 3.735zm42.217 40.055a2.555 2.555 0 0 1 -.6-1.173 5.7 5.7 0 0 0 -.301-2.402 4.068 4.068 0 0 1 -.48-1.433c0-.45-.13-3.604-.902-4.706a2.103 2.103 0 0 1 -.501-1.482 6.572 6.572 0 0 0 -.52-2.303 3.223 3.223 0 0 1 -.571-1.852 15.792 15.792 0 0 0 -1.603-5.909 17.561 17.561 0 0 1 -1.331-3.504 10.618 10.618 0 0 0 -2.143-5.188c-1.166-1.504-2.002-2.302-4.206-5.006a6.113 6.113 0 0 0 -4.005-2.003 10.606 10.606 0 0 0 -2.483-5.588c-1.242-1.532-3.005-2.002-4.006-1.372 0 0-.47.281-.781.061a6.304 6.304 0 0 0 -4.176-.751c-.12 0-.53.38-.841.2-.23 0-2.754-.801-4.436 0 0 0-.781.52-1.102.15-.6-.47-2.363-1.101-5.908.621-3.545 1.723-3.104 2.003-3.104 4.907s1.402 1.401 1.573 1.001c.4-.821 1.251-1.131 1.001 0a22.512 22.512 0 0 0 -.431 4.356c-.403.63-.739 1.302-1.001 2.003a6.685 6.685 0 0 0 -2.223 4.005 3.51 3.51 0 0 1 -1.603 2.604 5.011 5.011 0 0 0 -1.862 3.775c-.042.357-.165.7-.36 1.002a5 5 0 0 0 0 3.424 4.35 4.35 0 0 1 .13 3.004c-.671 1.702-.762 5.377.54 6.88.521.56.881 3.434.881 3.905 0 .801.231 2.734.231 2.734s-1.472 1.571-1.502 2.002c0 0-2.804 1.242-2.874 2.303 0 0-1.863 1.643-1.473 2.664.409.03.816-.06 1.173-.26-.065.21-.088.431-.07.65a4.408 4.408 0 0 0 1.341-.4c.773.534 1.807.51 2.554-.06a.757.757 0 0 0 .48.52l.751-.65c.988.512 2.2.338 3.004-.431l1.082-.1c.821-.42 1.001-2.153 1.001-2.153.461-.541 0-1.802 0-1.802a1.898 1.898 0 0 1 .241-1.382c.4-.651-.201-1.862-.201-1.862-.52-1.503.131-5.889.131-5.889a6.444 6.444 0 0 0 .63-2.003c.23-.5 3.605-1.833 5.788.561a8.07 8.07 0 0 0 4.186 2.223c.601 0 3.004.2 3.766 1.141a.652.652 0 0 0 .52-.13c.401-.5 1.802-.52 1.802-.52l-.701 2.453c-2.733.881-3.164 3.075-2.934 4.006 0 0 .631.8 1.223.8.36-.37 1.001.181 1.001.181.52.401 3.905.401 4.676-.781.02.335-.003.671-.071 1.001a6.272 6.272 0 0 0 -.82 2.483 3.209 3.209 0 0 1 -1.272 1.703c-.942.921-1.602 4.106 1.242 4.376.22.05.66-.651.66-.651l2.264.331c.32.57.931-.061.931-.061 1.049.082 2.103.048 3.144-.1 0 .401.751-.05.751-.05a3.747 3.747 0 0 0 1.542-.54 3.805 3.805 0 0 0 -.46-2.854 5.808 5.808 0 0 0 -.751-2.344 2.089 2.089 0 0 1 -.24-1.001c.118-1.029.367-2.038.741-3.004a15.57 15.57 0 0 0 .75-3.385c.124-1.153.101-2.173.261-3.004.161-.451.252-.924.27-1.402a15.15 15.15 0 0 1 .24-3.245 7.234 7.234 0 0 0 .451-2.873c0-.481.33-.361.33-.361s.702 1.252 1.202 1.402c.487.138.901.461 1.152.901.33.701 1.502 3.105 2.203 3.625.048.632.148 1.259.3 1.873.246.44.429.911.541 1.402.075.472.175.941.3 1.402a2.583 2.583 0 0 1 -.36 2.534 6.565 6.565 0 0 0 -1.142 4.506c.752.484 1.709.53 2.504.12.701 1.001 2.503.45 2.503.45a1.001 1.001 0 0 0 1.502.06c2.204-.32 1.502-3.504.861-4.335zm-16.622 7.83a.373.373 0 0 0 .5.15c.16-1.121-.6-1.532-.62-1.301a1.9 1.9 0 0 1 .1 1.151zm14.089-5.277h.27a12.87 12.87 0 0 1 .06-1.883c-.22-.1-.701.701-.34 1.883zm-2.173-.33h.301c.04-.736.282-1.446.7-2.053.271-.671-1.151.15-1.001 2.053zm-20.218-37.922c1.262 1.001 1.673 4.125 1.733 6.088 0 .571-.1 4.206.801 2.633.44-.781-.13-4.065-.301-5.006-.35-1.503-1.101-3.575-2.223-3.705zm-.25 2.843a.202.202 0 0 0 -.201.201c0 .11.091.201.201.201s.201-.091.201-.201a.202.202 0 0 0 -.201-.201zm-.571-.25a.303.303 0 0 0 -.29-.27c-.17 0-.311.14-.311.31 0 .171.141.311.311.311h.003a.303.303 0 0 0 .297-.341zm-1.351.531a.305.305 0 0 0 -.302.301c0 .164.137.3.302.3.164 0 .3-.136.3-.3a.323.323 0 0 0 -.3-.301zm1.321.261c-.17 0-.31.14-.31.31s.14.31.31.31.31-.14.31-.31-.14-.31-.31-.31zm-5.307.67c.165 0 .3-.136.3-.3 0-.165-.136-.3-.3-.3a.302.302 0 0 0 -.301.3c0 .164.136.3.301.3zm-1.222-.37a.3.3 0 0 0 -.3.3l-.001.02c0 .165.136.301.3.301h.001a.304.304 0 0 0 .301-.301l.001-.021a.303.303 0 0 0 -.282-.299zm-1.001-.661c-.165 0-.3.135-.3.301 0 .168.132.309.3.32.164 0 .3-.136.3-.3v-.02c0-.165-.135-.3-.3-.301zm1.262-.802a.384.384 0 0 0 -.381.381c0 .209.171.381.381.381.209 0 .38-.172.38-.381a.385.385 0 0 0 -.38-.381z" fill="#231f20"/></g></svg>