<svg clip-rule="evenodd" fill-rule="evenodd" stroke-linejoin="round" stroke-miterlimit="1.414" viewBox="0 0 100 100" xmlns="http://www.w3.org/2000/svg"><path d="m48.946 97.571c-.738-.948-5.333-2.887-7.124-3.657l-1.961-.843a55.812 55.812 0 0 1 -15.492-10.255 24.365 24.365 0 0 1 -5.481-7.662 22.349 22.349 0 0 1 -2.023-9.242v-62.181h66.27v62.181a22.22 22.22 0 0 1 -2.023 9.242 24.31 24.31 0 0 1 -5.481 7.662 55.631 55.631 0 0 1 -15.429 10.255l-1.939.843c-1.845.801-6.324 2.709-7.167 3.689l-1.054 1.128z" fill="#e82c2a"/><path d="m81.617 5.248v60.621a20.83 20.83 0 0 1 -1.897 8.6 22.632 22.632 0 0 1 -5.132 7.167 54.168 54.168 0 0 1 -14.997 9.97l-1.897.843c-2.951 1.265-6.535 2.804-7.662 4.005-1.118-1.191-4.722-2.74-7.652-4.005l-1.897-.843a54.274 54.274 0 0 1 -15.039-9.97 22.616 22.616 0 0 1 -5.143-7.167 20.723 20.723 0 0 1 -1.918-8.6v-60.6z" fill="#fff"/><path d="m50 82.311c.559-.844 1.929-1.602 6.323-3.521a43.128 43.128 0 0 0 12.437-8.273 13.767 13.767 0 0 0 4.426-9.833v-37.224h-46.372v37.224a13.71 13.71 0 0 0 4.468 9.875 43.034 43.034 0 0 0 12.395 8.221c4.394 1.929 5.764 2.687 6.323 3.531z" fill="#e82c2a"/><path d="m31.493 42.694c-.569-.601-1.054-1.138-1.296-1.476-.242-.337-.443-.579-.675-.632a1.656 1.656 0 0 0 -.948.105c-.316.148-.485.506-.664.981a9.156 9.156 0 0 1 -.928 1.707 7.19 7.19 0 0 1 0 3.056.995.995 0 0 1 .369 1.181.89.89 0 0 1 .369.506c.031.353-.059.705-.253 1.001-.158.358-.495 1.054-.716 1.37-.222.316-.401.632-.738.653s-.443-.242-.611-.579a12.742 12.742 0 0 1 -.591-1.318c-.358 0-.4-.263-.484-.464a1.198 1.198 0 0 1 -.106-.59c.09-.274.207-.538.348-.79.084-.179-.105-.422-.242-.527a1.778 1.778 0 0 1 -.506-.738 3.98 3.98 0 0 1 -.053-1.265c0-.463.148-.6.527-1.138.379-.537 1.37-2.371 1.929-3.446a6.233 6.233 0 0 0 .716-2.108c.064-.369.211-.443.38-.485.215-.045.426-.105.632-.179.304-.162.638-.259.98-.284.548 0 .654.284.949.463l1.823 1.054c.709.396 1.371.874 1.971 1.423.253-.137.59-.285.948-.443.337-.145.639-.361.886-.632.208-.396.317-.838.316-1.286a9.173 9.173 0 0 1 .527-2.276c.295-.633.969-1.128 1.95-2.003a3.453 3.453 0 0 0 1.159-2.582c-.633 0-2.108.106-2.551.106l-2.339.105c-.401 0-.738.105-.875-.126-.137-.232-.053-.475.063-.896.128-.409.15-.844.063-1.265a2.424 2.424 0 0 1 -1.001.285.796.796 0 0 1 -.769-.274 2.103 2.103 0 0 1 -.369-.844.55.55 0 0 1 .105-.527c.094.16.269.252.454.243.179 0 .21-.253.263-.464s.148-.211.358-.211c.211 0 .211-.158.127-.274a1.18 1.18 0 0 0 -.453-.337.426.426 0 0 0 -.485.105 5.1 5.1 0 0 1 -.369.496c-.127.147-.285.316-.422.316a2.102 2.102 0 0 1 -.632-.211 1.215 1.215 0 0 0 -.39 0c-.063 0-.147 0-.169-.084a1.822 1.822 0 0 1 -.105-.495 8.926 8.926 0 0 1 0-.896.59.59 0 0 0 -.105-.401.292.292 0 0 1 0-.421 5.292 5.292 0 0 1 1.264-.886c.591-.358 1.37-.843 1.876-1.191a13.05 13.05 0 0 1 1.181-.843c.223-.11.468-.175.716-.189.127 0 .085-.137.127-.359.042-.221.527-.527 1.054-.716a18.89 18.89 0 0 0 1.876-.844.488.488 0 0 0 .263-.548 1.042 1.042 0 0 1 0-.484c.104-.167.239-.31.401-.422.084.074.21.158.379.316.221.159.402.369.527.612a2.852 2.852 0 0 0 1.265-1.444c.594.497.889 1.268.78 2.034a3.382 3.382 0 0 1 1.264-.348c.359 0 .97.158 1.244.158-.105.263-.348.369-.58.527.76-.03 1.506.21 2.108.674.312.387.709.697 1.159.907.369.158.917.284 1.16.369.211.108.403.252.569.421.167.174.316.365.443.569.159.171.275.377.337.601a.551.551 0 0 0 -.527-.158.872.872 0 0 1 .19.401 2.188 2.188 0 0 0 -1.191-.243c-.18 0-.211.084-.106.158.106.074.348.359.559.601s.464.653.738.948c.274.296.495.159.664.137.224-.032.446-.082.663-.147a3.58 3.58 0 0 1 -.906 1.054l.106.211h-.085c-.084-.106-.19-.169-.348-.317-.158-.147-.295-.084-.295.074 0 .485.316 1.265.717 1.328.4.063 1.212-.579 1.897-1.054a2.732 2.732 0 0 1 0-.664c.38-.235.792-.412 1.223-.527a2.8 2.8 0 0 1 .948.064c.211 0 .422 0 .422-.159 0-.158-.295-.389-.738-.611a3.158 3.158 0 0 1 -1.476-1.349 7.938 7.938 0 0 1 .875-1.686l.253.074c.401-.295.232-.664.632-1.128a2.187 2.187 0 0 1 1.666-.717l.105-.527c-1.581.158-1.475-.98-1.475-1.433s.252-1.222.927-1.222 1.212.558 1.897.505a7.735 7.735 0 0 1 1.549-.137 2.538 2.538 0 0 1 1.539.917c.422.464 1.054 1.444 1.823 2.108a3.726 3.726 0 0 0 2.277.78 5.264 5.264 0 0 1 1.633.316c.539.36.998.825 1.349 1.37.256.419.303.934.127 1.391a2.115 2.115 0 0 1 1.054 1.771 4.963 4.963 0 0 1 -.264 1.37c-.256.28-.547.528-.864.738a3.564 3.564 0 0 1 -1.054.59 2.975 2.975 0 0 1 -1.054-.169c-.348-.084-.738-.253-.896-.274s-.4.106-.506 0a2.55 2.55 0 0 1 -.442-.874.723.723 0 0 0 -.264-.211c-.073 0-.168-.106-.168-.211s.147-.19.474-.19.379-.137.474-.39c.095-.252-.074-.463-.316-.611a.991.991 0 0 1 -.474-.506 1.21 1.21 0 0 0 -.527-.474c-.211-.105-.632 0-1.054-.105a1.058 1.058 0 0 1 -.801-.843.795.795 0 0 1 .485-.844.553.553 0 0 0 -.285-.527c-.147 0-.442.074-.79.074s-.633-.358-.791-.706a4.204 4.204 0 0 0 -.579-1.686 3.043 3.043 0 0 0 -2.677-.949v1.054a2.305 2.305 0 0 1 2.108 2.108 2.43 2.43 0 0 1 -.77 2.108c-.118.395-.027.825.243 1.138.284.316.737.211 1.054.19 0 .105-.074.168-.169.242.275.223.523.478.738.759.12.122.12.32 0 .443a13.657 13.657 0 0 1 1.791 2.613c.211 0 .422 0 .496.19.073.19.421.696.579 1.054a.97.97 0 0 1 -.105.949 2.963 2.963 0 0 1 -.717.906c-.189.105-.316 0-.442-.137a11.48 11.48 0 0 1 -1.118 1.054c-.126.105 0 .316 0 .464a.317.317 0 0 1 -.179.316c-.126.063-1.401.843-2.266 1.317 0 .632-.4.885-.811 1.159a1.67 1.67 0 0 1 -.253 1.771c.906.114 1.78.408 2.571.864.35.173.528.574.422.949.572.301 1.173.549 1.792.737.453-.21.337-.6.21-.906a3.273 3.273 0 0 0 -1.053-1.054 3.583 3.583 0 0 1 2.107.548c.593.354 1.23.624 1.897.801a5.094 5.094 0 0 0 2.572-.453c.465-.137.896-.37 1.265-.685a8.19 8.19 0 0 1 -1.054 1.792 8.435 8.435 0 0 1 -3.584 2.55 11.062 11.062 0 0 1 2.688 4.068c.52-.26.985-.617 1.37-1.054a1.87 1.87 0 0 1 1.18-.632c.527 0 .633.169.875.632a2.029 2.029 0 0 0 -1.507.696 3.024 3.024 0 0 0 -.706 2.108 8.678 8.678 0 0 1 4.479 3.161 6.637 6.637 0 0 1 1.476 4.079 10.411 10.411 0 0 1 -.422 2.772 5.838 5.838 0 0 0 -.316 1.939c-.006.62.177 1.227.527 1.739-1.813-.274-1.054-2.951-.885-3.794.161-.835.266-1.68.316-2.529a2.531 2.531 0 0 0 -.338-1.402c.09.797.065 1.602-.073 2.392-.137.843-.612 2.53-.738 3.531a4.638 4.638 0 0 0 .685 3.267c.432.65 1.213.982 1.981.843-.706 1.159-1.823.611-2.74.127.064.442.208.871.422 1.264-1.054-.379-2.846-1.285-3.373-2.919a11.877 11.877 0 0 1 0-6.482c-.527-1.054-1.054-1.296-1.528-1.296h-.008a1.063 1.063 0 0 0 -1.046 1.191c-.029.488.093.974.348 1.391.363.444.674.929.927 1.444a1.848 1.848 0 0 1 -.21 1.792c.105.347.347 1.054.505 1.475.135.302.135.647 0 .949a11.59 11.59 0 0 0 -.463 3.478c.118 1.61.376 3.208.769 4.774.137.769-.263 1.054-.653 1.444.316.885.105 1.264-.127 1.56-.285.31-.65.536-1.054.653a3.24 3.24 0 0 1 -.211.906c-.105.264-.316.717-.484 1.191a8.831 8.831 0 0 1 -2.003.464c-.769.074-1.233 0-1.444-.285-.21-.284-.073-.822.264-1.58a2.53 2.53 0 0 1 1.328-1.476 5.15 5.15 0 0 1 1.538-2.108 3.17 3.17 0 0 1 .253-2.866 22.24 22.24 0 0 0 -.801-4.848c-.442-1.371-.769-1.476-1.306-1.729a1.896 1.896 0 0 1 -1.233 1.159 12.49 12.49 0 0 1 -1.56.369 2.99 2.99 0 0 0 -1.37.654c-.317.242-.464.632-.738.811a6.53 6.53 0 0 1 -.759.316c-.232.148-.179.401-.4.633-.222.232-.317.179-.58.211-.264.031-.232.263-.232.569 0 .305 0 .527-.19.653-.327.173-.685.28-1.054.316a.934.934 0 0 0 -.137.633c0 .316.211.474.633.78a1.2 1.2 0 0 1 -1.434-.211c-.27-.443-.4-.958-.368-1.476-.42.191-.702.596-.738 1.054-.074.38-.243.359-.685.359a7.66 7.66 0 0 1 -1.054-.169c-.264 0-.527-.158-.78.105-.253.264 0 .601-.285.875-.284.274-.664.253-1.433.295a2.62 2.62 0 0 1 -2.466-.864c-.158-.369.105-.632.527-1.001a3.98 3.98 0 0 1 1.18-.78c.211-.812 1.507-.812 2.108-.738.435.131.909.04 1.265-.242.25-.263.38-.618.358-.98 0-.285.074-.401.211-.485a1.669 1.669 0 0 1 -1.191-.875 2.176 2.176 0 0 0 -.98.253c-.495.211-.369.685-.369 1.18a1.115 1.115 0 0 1 -.843-.506 1.456 1.456 0 0 1 .464-1.538 3.16 3.16 0 0 1 2.318-.485c.238-.217.553-.331.875-.316.864 0 .706.316 1.623.316a2.112 2.112 0 0 0 1.813-1.054c-.506 0-1.233.443-2.003.369a.816.816 0 0 1 -.632-.422 7.245 7.245 0 0 0 -.337-.685 1.162 1.162 0 0 1 -.317-.79 4.792 4.792 0 0 1 .896-1.961c-.558-.526-1.307 0-1.633.19-.327.19-.58.211-.801.085a.463.463 0 0 0 -.569.073 1.79 1.79 0 0 1 -.865.316 5.325 5.325 0 0 1 -.98-.158.371.371 0 0 0 -.453.317 2.35 2.35 0 0 1 .917 1.812c.02.459-.13.91-.422 1.265a2.628 2.628 0 0 0 -.558-1.244 1.206 1.206 0 0 0 -.801-.421c-.232 0-.58-.074-.601 0s.19.211.464.316.253.337.158.632a2.118 2.118 0 0 1 .79 2.466 8.04 8.04 0 0 0 -.906-1.053 1.038 1.038 0 0 0 -.443-.274 3.181 3.181 0 0 0 -.579-.264c-.316-.126-.295.158-.211.358.084.201.158.317.074.485a2.348 2.348 0 0 0 1.264 1.297c-.33.15-.69.229-1.053.231a2.003 2.003 0 0 1 -1.529-.811h-.242c.09.187.228.348.4.464-.482.084-.98.029-1.433-.158a1.936 1.936 0 0 1 -.948-1.392c-.369-.316-.106-1.233 0-1.559a9.948 9.948 0 0 1 1.054-1.687 2.038 2.038 0 0 1 -.074-1.233c-1.054-.917-.949-1.054-.949-1.517-.211-.211-.59-.422-.685-.58a3.077 3.077 0 0 1 -.179-.875.861.861 0 0 1 -.422 0c-.105.601-.337.843-.685.928a2.119 2.119 0 0 1 -2.16 1.37c.179-.211.769-.928.927-1.16a.591.591 0 0 0 0-.706 2.447 2.447 0 0 1 -2.255.316.834.834 0 0 0 .211.422c-.64.1-1.287-.154-1.687-.664a4.207 4.207 0 0 1 -.495 1.707c.443.422.211 1.265 0 1.75.194.242.272.56.211.864a.76.76 0 0 1 .527.495c.105.464 0 .685-.559 1.476a5.055 5.055 0 0 1 -1.191 1.233.58.58 0 0 1 -.685.042 5.652 5.652 0 0 1 -.527-1.454.88.88 0 0 1 .317-.949c.179-.211 0-.527-.137-.822-.138-.295-.591-.379-.686-1.001-.126-.843 0-1.454.548-1.718-.526-1.212.39-2.108.717-2.951a4.066 4.066 0 0 0 .232-2.002c-.158.147-.464.4-.58.358s-.316-.211-.316-.632c0-1.054 1.096-.654 1.096-2.108a2.336 2.336 0 0 0 -.569-1.686 2.768 2.768 0 0 0 -1.265-.823 7.695 7.695 0 0 1 -1.18-.4 1.964 1.964 0 0 0 -1.054-.348c.102-.317.349-.567.664-.674a4.113 4.113 0 0 1 1.476 0c.59.105 1.222-.422 1.222-1.413a2.112 2.112 0 0 0 -.822-1.739c-.263-.158-.801-.579-.896-.885-.095-.305-.485-.611-.896-.927a1.246 1.246 0 0 1 1.94.126c.278.471.841.701 1.37.559-.422-.369-1.054-1.022-1.644-1.623zm2.698-14.07c.326.681.356 1.467.085 2.171a14.59 14.59 0 0 0 2.36-.211c.633-.105 2.108-.316 3.057-.347.072-.285.129-.574.168-.865a20.652 20.652 0 0 1 -3.225.685 3.641 3.641 0 0 1 -1.686-.063c-.316-.158-.284-.211-.147-.421.115-.235.159-.499.126-.759a1.212 1.212 0 0 0 -.19-.548zm.949-.59c.154.387.242.797.263 1.212 0 .158-.063.558.243.527.305-.032 1.117-.316 1.528-.401.411-.084 2.023-.474 2.761-.6.114-.439.114-.9 0-1.339a.423.423 0 0 0 -.632 0 1.191 1.191 0 0 1 -1.16.316 5.154 5.154 0 0 0 -1.475-.284 2.701 2.701 0 0 0 -1.497.527zm14.143 5.659c.192.305.482.536.822.654a3.605 3.605 0 0 1 1.339-1.982 10.08 10.08 0 0 1 -.422-2.887 2.677 2.677 0 0 1 -1.433.527 8.282 8.282 0 0 1 -.274 3.688zm6.703-1.159c.174.363.271.758.285 1.159a7.896 7.896 0 0 0 1.349-1.717c.187.123.408.188.632.189v-.211c.307-.19.516-.506.569-.864 0-.211-.137-.284-.316-.348a3.786 3.786 0 0 1 -.927-.769 29.446 29.446 0 0 1 -1.581 2.572z" fill="#231f20"/><path d="m36.173 53.307c.384.145.704.427.895.79a4.03 4.03 0 0 1 1.982-1.117 5.358 5.358 0 0 1 2.34.084 2.186 2.186 0 0 0 -.211 1.265c-.195.214-.308.49-.316.78l-.338-.074c-.105-.39-.232-.695-1.054-.601a1.48 1.48 0 0 0 -1.233-.653 2.743 2.743 0 0 0 -1.233.812 1.658 1.658 0 0 0 -1.054.284c-.284.232-.442.485-.759.601a3.49 3.49 0 0 1 .991-2.182zm14.196-.812c.696-.085 1.4.064 2.002.422a2.19 2.19 0 0 1 -2.002.4 3.334 3.334 0 0 1 0-.811zm17.632 3.721c-.369-.601-1.265-.696-1.602-1.602a1.882 1.882 0 0 1 .084-1.687.93.93 0 0 1 .896-.474c.453.843.664 1.37.611 3.752z" fill="#e82c2a"/><path d="m45.953 44.781c-.047.495-.004.994.126 1.475a1.633 1.633 0 0 1 -.98-.991h-.21v-.548a2.031 2.031 0 0 0 -.085-.569 1.543 1.543 0 0 0 -.685-.527 1.89 1.89 0 0 0 -.759.064c-.137-.601.875-1.476 1.402-1.476a1.63 1.63 0 0 0 .843-.242c.178.14.412.19.633.137.358-.074.59-.496.758-.78.182-.304.46-.538.791-.664a1.503 1.503 0 0 1 1.159 0 4.566 4.566 0 0 1 -.896.432.847.847 0 0 0 -.59.506c-.116.221-.232.453-.284.558-.053.106-.138.19-.053.19.506-.105.506-.495.716-.811.17-.221.421-.364.696-.401.338-.121.669-.262.991-.422a3.228 3.228 0 0 0 1.159-.906c.147-.332.219-.691.211-1.054a1.147 1.147 0 0 0 -.211-.632c0-.127-.137-.211 0-.232s.443.105.79.105c.228.009.456-.034.664-.126.074 0 .243-.148.243 0 .017.19.017.379 0 .569-.021.369.2.527.442.843-.455.34-.629.947-.421 1.476-.632.474-.422.737-.422 1.054-.2.031-.463.01-.59.242-.126.232.169.358.422.601.225.186.416.409.565.66a.455.455 0 0 1 .383.51.57.57 0 0 0 0-.475 1.375 1.375 0 0 0 -.495-.558c-.285-.19-.422-.422-.358-.59a.23.23 0 0 1 .316-.106c.074.053.074 0 0-.105-.074-.106-.106-.179-.106-.738l-.01-.011a2.867 2.867 0 0 1 2.529 2.867 6.874 6.874 0 0 1 -1.791 4.722c-.865 1.054-2.983 2.107-2.867 4.458a5.686 5.686 0 0 0 -2.677-.169 2.803 2.803 0 0 0 -.917.422c-.126.105-.169.21.053 0a3.164 3.164 0 0 1 1.264-.359c.318 0 .635.021.949.064.348 0 1.117.21 1.454.274.469.131.965.131 1.434 0 .507-.116.97-.371 1.338-.738a.7.7 0 0 0 .106-.717 1.58 1.58 0 0 1 0-.948 1.196 1.196 0 0 1 1.233-.454c.632 0 2.771 0 4.215-.137a12.118 12.118 0 0 0 3.162-.527 15.864 15.864 0 0 0 3.562-1.454c.422-.295.907-.632 1.212-.843.306-.211.738-.685.991-.864a1.19 1.19 0 0 1 .801-.316.524.524 0 0 1 .474.274 2.27 2.27 0 0 0 -1.328.664 2.61 2.61 0 0 0 -.653 1.633 4.904 4.904 0 0 0 0 1.539.685.685 0 0 0 .39.548c.181.105.394.142.601.105a.875.875 0 0 1 .737.475 3.093 3.093 0 0 0 -1.823.632 1.756 1.756 0 0 0 -.527 1.834c.169.874.422 1.127.885 1.391.464.263 1.054.58 1.054 1.475a3.877 3.877 0 0 0 -1.644-.906 1.76 1.76 0 0 0 -1.191.569c-.236.33-.348.733-.316 1.138.074.467.262.909.548 1.286.307.484.589.983.843 1.497.106.316.316.527-.211 1.454a2.712 2.712 0 0 0 -.737-1.539c0-.232-.106-.421-.475-.874a12.126 12.126 0 0 0 -3.288-2.424 33.407 33.407 0 0 0 -4.532-1.929 3.146 3.146 0 0 1 -1.159-.864c-.084-.158-.137-.085-.084 0 .254.501.697.881 1.233 1.054.843.379 2.318.874 3.056 1.212.99.465 1.942 1.008 2.846 1.623.76.418 1.41 1.01 1.897 1.728a3.653 3.653 0 0 0 -2.108.19 3.098 3.098 0 0 0 -1.338 1.307 7.127 7.127 0 0 0 -.401 1.433c-.025.441-.24.848-.59 1.117a5.946 5.946 0 0 0 -.179-.896c.047-.242.11-.482.189-.716a3.075 3.075 0 0 0 -.253-1.423 2.105 2.105 0 0 0 -1.001-1.054 3.92 3.92 0 0 0 -1.591-.443c-.396.048-.785.14-1.16.274a2.63 2.63 0 0 0 -.158-1.739 1.851 1.851 0 0 0 -1.665-.632 1.9 1.9 0 0 0 -1.317.527c-.266.344-.436.75-.496 1.18-.035.324.016.651.148.949-.369 0-.674-.148-.759-.495-.084-.348-.105-.896-.211-1.265a2.474 2.474 0 0 0 -.79-1.265 1.86 1.86 0 0 0 -1.265-.348 1.233 1.233 0 0 0 -1.37 1.455c-.211 0-.632-.211-.579-.58.053-.301.168-.588.337-.843a1.213 1.213 0 0 0 -.106-1.054 1.426 1.426 0 0 0 -1.349-.78 1.418 1.418 0 0 1 1.37-.664 2.405 2.405 0 0 1 1.834.843c.211.274.633.633.875.896a3.378 3.378 0 0 1 1.223-1.528 4.004 4.004 0 0 1 2.845-.179c-.337-.453-.601-.791-.485-1.054.116-.264.485-.443 1.402-.211 0-.421-.105-.843.422-1.054a11.317 11.317 0 0 1 3.341.158c1.434.156 2.879.205 4.321.148a9.273 9.273 0 0 0 2.107-.401c.211-.073 0-.084-.063-.063a26.353 26.353 0 0 1 -3.162.253 23.662 23.662 0 0 1 -3.435-.295 9.404 9.404 0 0 0 -2.993-.158.986.986 0 0 0 -.78.948c-.559-.084-.97-.073-1.265.285a.952.952 0 0 0 -.169.875 5.343 5.343 0 0 0 -2.234.442 2.217 2.217 0 0 0 -1.138 1.37 3.544 3.544 0 0 0 -2.667-1.58 1.74 1.74 0 0 0 -1.844 1.19c.59 0 1.223.106 1.454.527.172.228.265.505.264.791a4.133 4.133 0 0 1 -.242.674c-.169.312-.169.69 0 1.002-.211.21-.633.463-.717.579a2.97 2.97 0 0 0 -1.054-.074 2.12 2.12 0 0 0 -.738.738c-.189.295-.179.443 0 .485s.443 0 .443.232-.106.284-.358.464c.403-.011.806.046 1.19.168.151.07.266.2.317.359 0 .084.084.168-.074.242-.194.124-.343.31-.422.527a2.02 2.02 0 0 0 0 .685c-.506 0-.948-.063-.98.211-.031.274.158.421.348.579.122.125.253.241.39.348a1.055 1.055 0 0 0 -.58.633c0 .126-.137.073-.211 0-.073-.074-.4-.18-.579 0-.179.179-.085.632 0 .8a2.01 2.01 0 0 0 -.949.464 1.143 1.143 0 0 1 -.737-1.054c.041-.474.126-.943.252-1.401a1.574 1.574 0 0 0 0-.812c-.15.246-.264.512-.337.791v1.001c-.03.158-.072.313-.126.463-.369 0-.664 0-.822.285a.783.783 0 0 1 -.127-.98c.353-.698.758-1.367 1.212-2.003-.158-.495-.274-.737-.042-1.19a1.447 1.447 0 0 1 0-1.191c.137-.414.244-.836.316-1.265a8.648 8.648 0 0 1 1.181-2.213c.052-.085 0-.127 0-.264s-.106-.379.316-.685a6.75 6.75 0 0 0 -1.602.19 3.772 3.772 0 0 0 -1.823.864 1.968 1.968 0 0 1 .147-1.623 3.09 3.09 0 0 1 1.086-.717 3.47 3.47 0 0 1 1.264-.295c.439.053.829.306 1.054.685.075.148.118.309.127.475 0 .168.074.168.052 0a5.587 5.587 0 0 1 0-1.539 4.823 4.823 0 0 1 .527-1.56c.285-.422.664-.843 3.268-2.382a18.515 18.515 0 0 0 2.476-1.581c.664-.527 1.476-1.37 1.476-2.002a1.193 1.193 0 0 0 -.548-.843.51.51 0 0 0 .168-.211c-.284-.126-.579-.19-.558-.58a.452.452 0 0 1 -.026-.505.678.678 0 0 0 -.269.347c-.074.295.052.474.369.759a.381.381 0 0 1 -.422.242c-.474-.094-.59-.558-.843-.895a2.921 2.921 0 0 0 -.822-.791.678.678 0 0 0 -.843-.063 1.059 1.059 0 0 0 -.664.896c.032.339.121.67.263.98.106.358 0 .464-.19.78-.189.316-.326.527-.505.527.05-.262.085-.525.105-.791a2.662 2.662 0 0 0 -.422-.874 1.424 1.424 0 0 0 -.453-.464.796.796 0 0 0 -.706 0c-.126.116-.126.2-.126.464.309-.132.642-.204.98-.211.047.085.089.173.126.263a6.328 6.328 0 0 0 -1.444.422.442.442 0 0 1 .137-.337zm-9.886-1.697c.067.312.103.629.106.948.059.541.186 1.072.379 1.581a7.209 7.209 0 0 0 1.476 2.424 9.358 9.358 0 0 0 2.508 1.75c.782.368 1.592.672 2.424.906-.177.118-.336.26-.474.422a24.037 24.037 0 0 1 -4.585-1.529 15.985 15.985 0 0 1 -4.374-3.088c-.843-.864-1.138-1.359-1.18-1.264s.274.495.485.78a12.103 12.103 0 0 0 2.171 2.108 14.968 14.968 0 0 0 3.899 2.107c1.103.446 2.242.798 3.404 1.054a1.271 1.271 0 0 0 0 .569 1.159 1.159 0 0 0 -.379.317 30.226 30.226 0 0 0 -4.511-.875 20.047 20.047 0 0 1 -3.162-.527 8.15 8.15 0 0 1 -1.791-.864c-.306-.116-.843-.19-.559-.064a5.6 5.6 0 0 1 .706.285c.255.198.527.374.812.527a8.23 8.23 0 0 0 1.792.527c.944.162 1.893.292 2.845.39 1.272.148 2.53.395 3.763.738-.064.126-.19.284-.253.421a7.554 7.554 0 0 0 -2.909.211 4.436 4.436 0 0 0 -1.581.822 1.82 1.82 0 0 0 -1.792-.685 3.64 3.64 0 0 0 -1.707 1.054c-.253.274-.538.832-.78.358a1.173 1.173 0 0 1 -.443.369.564.564 0 0 1 .169-.769c.358-.348.527-.464.632-.738a3.51 3.51 0 0 0 0-1.686 2.583 2.583 0 0 0 -1.264-1.56c-.717-.316-1.318-.432-1.602-.559-.285-.126-.601-.463-.886-.463.085-.274.454-.327.823-.274.441.098.897.098 1.338 0 .499-.166.861-.606.927-1.128a2.107 2.107 0 0 0 -.59-2.108c-.337-.337-.569-.485-.864-.738s-.379-.611-.485-.716c-.105-.106-.316-.295-.421-.422a.879.879 0 0 1 1.054 0c.274.2.516.643.906.801.441.166.929.166 1.37 0 .738-.158 1.623-.559 1.792-1.212a1.52 1.52 0 0 0 -.211-1.286 1.223 1.223 0 0 1 0-1.222c.316.653.59 1.338 1.539 1.18a3.158 3.158 0 0 0 1.791-1.117c.25-.384.544-.738.875-1.054a8.562 8.562 0 0 1 1.623-.917 4.566 4.566 0 0 0 1.581-1.233 1.648 1.648 0 0 1 -.632 1.518 10.508 10.508 0 0 0 -2.108 2.55 5.633 5.633 0 0 0 -.559 3.583 5.868 5.868 0 0 0 4.49 4.68c-.106.137-.316.348-.422.474a11.375 11.375 0 0 1 -4.637-2.297 6.518 6.518 0 0 1 -2.108-3.721c-.105-.558 0-1.001-.39-1.338zm12.036 4.489c-.074-.231-.379-.421-.717-.052zm-7.715-4.932c.5-.061.997.138 1.318.527.358.422.295.675.706 1.233.24.383.523.736.843 1.054-.22.081-.451.128-.685.137-.169 0-.58.243-.58.58s.264.759 1.054.822a4.216 4.216 0 0 0 2.108-1.054c.101.107.196.22.285.337a6.595 6.595 0 0 1 -1.581.949 1.77 1.77 0 0 1 -1.297.137 1.483 1.483 0 0 1 -1.054-1.423v-1.707a1.259 1.259 0 0 0 -.316-.822c-.2-.228-.052 0 0 .105.099.224.164.463.19.706v.949a3.42 3.42 0 0 0 .105 1.528 2.794 2.794 0 0 0 -.421.737 2.753 2.753 0 0 1 -.548-1.507c0-.59.316-1.623.316-2.107a2.364 2.364 0 0 0 -.443-1.181zm7.399 3.12-.021.031a3.1 3.1 0 0 1 0 .77.634.634 0 0 0 .664-.179c.272-.277.471-.618.579-.991.169-.106.475-.337.664-.464.34-.245.692-.474 1.054-.685.137.168.254.352.348.548a.878.878 0 0 0 -.527.791c-.991-.148-1.075.484-1.201.906a.998.998 0 0 0 -1.16.632c-.474-.337-.864.074-1.054.243-.347-.506-.59-.38-.801-.295a1.235 1.235 0 0 1 .401-.917 1.665 1.665 0 0 1 1.054-.39zm-2.867-.232c.035.075.074.147.118.218l.009.014.01.021c-.137.158-.39.284-.58.421-.236.18-.495.329-.769.443-.272.141-.583.19-.885.137-.106-.074-.137-.074 0-.074.26.022.52-.045.738-.189a8.573 8.573 0 0 0 1.285-.991zm1.117-.127a4.908 4.908 0 0 1 1.602-.463c.133.159.2.362.19.569a3.662 3.662 0 0 0 -1.718.421 3.906 3.906 0 0 1 -.084-.527zm2.677-.716c0 .147.106.348.127.463.189-.105.484-.316.506-.421.021-.105-.211-.105-.633-.042zm-3.14-.19.01.011a1.06 1.06 0 0 1 .39-.633c.184-.121.378-.227.58-.316.158-.063.253-.084.263-.19.011-.105-.168-.232-.337-.284a.675.675 0 0 0 -.19-.453.945.945 0 0 0 -.716-.127c.129.117.249.244.358.38a.662.662 0 0 0 -.211.105c.274.042.422.158.422.316-.3.114-.542.341-.675.632-.063.327 0 .454.106.559zm3.477-1.064a.656.656 0 0 1 .865 0c.168.137.442.442.527.505a1.658 1.658 0 0 1 -.569.38c-.148-.316-.485-.822-.823-.875zm-5.237-.085c.19.001.38.015.569.042.038-.17.102-.333.189-.484a.63.63 0 0 0 -.59.105c-.164.134-.168.207-.168.337zm0 0h-.011l.011.011zm7.451-3.056c-.1.016-.199.041-.295.074-.179.058-.34.155-.475.284a5.526 5.526 0 0 1 -.527.369c-.228.119-.48.184-.737.19-.268.03-.533.083-.791.158a.905.905 0 0 0 -.369.253c-.074.174-.166.34-.274.495a1.157 1.157 0 0 1 -.716.422c-.053-.074-.106-.042-.064 0l-.01.021c.126.158.485.063.695.126v.085c.135-.069.277-.126.422-.169.148-.063.495-.211.664-.285.219-.051.431-.129.632-.231.158-.074.158-.127.158-.348a.71.71 0 0 1 .148-.359c.063-.084.211-.126.232-.063s.074 0 .126 0l.243-.348c.133-.172.293-.321.474-.442.139-.095.29-.171.448-.227zm-3.036 1.918.011.011a.432.432 0 0 0 .211.137.216.216 0 0 1 -.137.063.486.486 0 0 1 -.316-.148.146.146 0 0 1 0-.211c.052-.042.11-.196.126-.105a.649.649 0 0 0 .105.253zm.043-.495a.21.21 0 0 1 .263-.148.38.38 0 0 1 .274.285c0 .168.053.421-.211.485a1.519 1.519 0 0 0 0-.369c0-.106-.126-.137-.168-.18zm2.594-.494-.012-.023-.011.021.023.002a.466.466 0 0 0 .198.188c.103.052.199.115.285.19.105.105.179.021.179 0v-.274c0-.106-.126-.106-.211-.106-.15.014-.3.015-.451.002zm-2.204-2.963v-.011c.031-.073.031-.105.052-.021.021.085.074.295.127.59.052.296.421.475.822.475a7.273 7.273 0 0 0 -.443 1.054 9.232 9.232 0 0 0 -1.244.052 1.22 1.22 0 0 0 -.368-.695c0-.042-.074-.106 0-.106a2.114 2.114 0 0 0 1.054-1.338zm2.308 1.243.01.306c-.063 0-.031.032 0 0 .032-.032.095-.116.158-.169l.422-.495c.149-.16.28-.337.39-.527 0-.105.052-.211 0-.337-.053-.127-.169-.105-.295 0a1.383 1.383 0 0 0 -.338.443 21.55 21.55 0 0 0 -.347.779zm.516.106c-.032.074.032.021.032.021l.147-.074a3.69 3.69 0 0 0 .422-.211c.084-.052.211-.105.211-.21 0-.106-.085-.127-.19-.106-.106.021-.243.148-.316.232-.074.084-.317.274-.317.348z" fill="#fff"/><path d="m53.162 59.862c.404-.432.825-.847 1.264-1.243l.844-.738a1.791 1.791 0 0 0 -1.824.39 2.004 2.004 0 0 0 -.284 1.602zm-1.655-1.602c.337.812.105 1.402.506 1.823a3.462 3.462 0 0 0 -.875.285 1.417 1.417 0 0 1 -.653.263.464.464 0 0 1 -.348-.168 5.676 5.676 0 0 0 1.37-2.213zm-1.792-1.18c.485 0 1.244.074 1.455.738.093.313.07.65-.063.948a5.499 5.499 0 0 1 -1.191 1.56 1.812 1.812 0 0 1 -1.265.685 1.668 1.668 0 0 1 -.717-.105 6.185 6.185 0 0 0 1.444-2.056c.22-.561.337-1.157.348-1.76zm-3.509 3.425c.379.022.719.249.885.59.44-.234.834-.549 1.159-.927.337-.443.62-.925.844-1.434a4.85 4.85 0 0 0 .316-1.602.793.793 0 0 0 -.738.559 1.298 1.298 0 0 0 0 .601c.071.006.14.006.211 0a.736.736 0 0 1 -.527.168.834.834 0 0 1 -.443-.105c-.59.401-.843.58-.948.79-.106.211-.527.896-.77 1.349zm.632-1.528a1.829 1.829 0 0 0 -.864 0 1.757 1.757 0 0 0 -.559.569c-.105.148-.137.316.074.316s.295 0 .359.137c.06.111.097.233.105.358.221-.229.399-.497.527-.79a5.6 5.6 0 0 1 .358-.601zm.137 2.624c.333.219.592.535.738.906.229.414.267.906.105 1.349a2.916 2.916 0 0 0 -.695-1.053 1.33 1.33 0 0 0 -.369-.18c-.148 0-.211 0-.211-.21a.802.802 0 0 1 .422-.801zm-.737 2.456a.824.824 0 0 0 -.485.569c.477.277.905.634 1.264 1.054a1.765 1.765 0 0 0 -.779-1.634zm-1.508 1.444c.226.549.59 1.031 1.054 1.401a2.162 2.162 0 0 1 -1.391-.337 2.348 2.348 0 0 1 -.442-.717c.215-.197.489-.319.779-.347zm-2.74.063a.37.37 0 0 1 0-.443c.085-.126.211-.211.738-.179.092.567.308 1.107.632 1.581a1.67 1.67 0 0 1 -1.37-.949zm-7.24-8.716a1.765 1.765 0 0 0 .991 1.728 4.365 4.365 0 0 1 -.148-1.054v-.98a.994.994 0 0 0 -.843.316zm.811-.516a1.332 1.332 0 0 0 -.811.252.744.744 0 0 1 .727-.864h.011c-.018.213.004.428.063.633zm.422.347c0-.232 0-.253.179-.347a.762.762 0 0 1 .928.242c-.213.316-.35.677-.401 1.054 0 .348-.126.674-.19.674a1.553 1.553 0 0 1 -.4-.822c-.074-.463-.106-.695-.106-.801zm1.665-.042s-.464 0-.601.443c-.1.347-.18.699-.242 1.054 0 .211 0 .211.148 0 .2-.177.377-.38.526-.601.159-.148.422-.58.19-.885zm.232-.063c.109.359.042.75-.179 1.054a3.453 3.453 0 0 1 -.633.695c.274 0 .454 0 .917-.347.351-.252.628-.595.801-.991a.847.847 0 0 0 -.917-.422zm.801 1.707c.027.26-.036.52-.179.738-.163.26-.346.507-.548.738.314.026.624-.091.843-.316.299-.257.513-.599.611-.981a1.374 1.374 0 0 0 -.738-.189zm-.137-.274a.74.74 0 0 1 .348-.737c.316-.159.485-.159.579-.338.095-.179 0-.485 0-.632 0-.148.243-.127.285-.422s-.105-.316-.158-.421c-.07.5-.291.967-.633 1.338a1.474 1.474 0 0 0 -1.264-.569c.049-.259.169-.5.348-.695.147-.18.284-.264.316-.464.031-.2 0-.127-.179 0a8.542 8.542 0 0 0 -.633.685 1.596 1.596 0 0 0 -.211.495 1.392 1.392 0 0 0 -.79-.274 1.31 1.31 0 0 0 -.664.211.529.529 0 0 1 -.105-.653c.287-.4.742-.648 1.233-.675.201-.282.469-.51.78-.664.292-.143.635-.143.927 0 .295.158.548.422.527.527.309-.015.617.058.885.211a.736.736 0 0 1 .19.506c.211 0 .337.063.506.084-.001.233.035.464.105.685.046.164.064.335.053.506a.934.934 0 0 1 -.126.421c-.043.127-.148.401-.422.359-.074 0-.053 0 0-.274s0-.316-.105-.316c-.106 0-.18 0-.274.179a2.376 2.376 0 0 0 -.232.632c0 .19 0 .453-.169.59s-.074 0-.211-.073a2.494 2.494 0 0 0 -.874-.18zm3.973 2.182c.056-.356.137-.708.243-1.054.084-.316.242-.949.421-1.476a1.245 1.245 0 0 0 -.811.475c-.272.285-.43.66-.443 1.054-.02.423.218.819.601 1.001zm-.822-1.402c.123-.358.329-.684.601-.948.285-.246.625-.42.991-.506.235-.421.491-.83.769-1.223a.885.885 0 0 1 0-.548 3.4 3.4 0 0 0 -1.623.243 2.409 2.409 0 0 0 -1.159.98c-.2.312-.276.689-.211 1.054.055.396.288.746.632.948zm-.126-4.669a5.09 5.09 0 0 1 2.297-.811c.371 0 .728.139 1.001.39 0-.359.169-.822.148-.949a1.249 1.249 0 0 0 -.527-.738 1.973 1.973 0 0 0 -1.581-.052c-.376.091-.71.307-.948.611a3.975 3.975 0 0 0 -.39.738 2.35 2.35 0 0 0 0 .811zm1.054-2.35a3.164 3.164 0 0 1 1.665-.105c.355.1.657.335.843.653.211-.421.421-.864.527-1.054a.442.442 0 0 0 .042-.506 1.052 1.052 0 0 0 -.548-.632 1.613 1.613 0 0 0 -1.117 0 2.649 2.649 0 0 0 -.917.611c-.293.267-.47.638-.495 1.033zm1.37-1.865a2.19 2.19 0 0 1 1.581.168c.39.316.463.443.484.738a9.593 9.593 0 0 1 1.455-1.054 1.423 1.423 0 0 0 -.738-.717 2.241 2.241 0 0 0 -1.338-.137 2.452 2.452 0 0 0 -1.107.422 1.058 1.058 0 0 0 -.316.58zm1.686-1.444a2.95 2.95 0 0 1 2.319 1.054c.421-.211 1.053-.591 1.306-.738a.823.823 0 0 0 -.21-.696 1.484 1.484 0 0 0 -.907-.284c-.427-.085-.862-.113-1.296-.085-.32-.001-.629.12-.864.338-.136.108-.251.24-.338.39zm2.677-.843a1.791 1.791 0 0 1 1.475.769 11.478 11.478 0 0 0 1.497-.991 1.126 1.126 0 0 0 -.717-.811 2.617 2.617 0 0 0 -.948-.316.696.696 0 0 0 -.106.379c-.421 0-.695 0-.895.158a.95.95 0 0 0 -.317.443v.337zm1.486-1.55c.421.072.827.214 1.201.422.238.157.427.375.548.632.246-.107.449-.293.58-.527.223-.243.381-.541.453-.864 0-.274-.052-.453-.506-.717-.21.137-.442.338-.99 0a.638.638 0 0 0 -.348.791c-.506-.021-.864.084-.949.274zm13.501 3.025a5.277 5.277 0 0 0 -4.321-2.234c-1.16 0-3.447.78-3.447 2.466-.021.318.037.637.169.927.132.031.265.049.4.053a1.195 1.195 0 0 1 0-1.212 1.157 1.157 0 0 0 -.263 0 .717.717 0 0 1 .358-.316c.162-.095.341-.156.527-.179-.251.222-.44.505-.548.822a.803.803 0 0 0 .169.864c.15.015.302.015.453 0-.105-.232-.316-.443-.211-.769.106-.327.179-.569.738-.843.147-.09.313-.148.485-.169.105 0 .084 0 0 .063a3.061 3.061 0 0 0 -.527.337 1.315 1.315 0 0 0 -.39.654.74.74 0 0 0 .158.717c.19.015.379.015.569 0a1.361 1.361 0 0 1 -.105-.633.834.834 0 0 1 .337-.421c.248-.201.52-.367.811-.496a.91.91 0 0 1 .454.295.62.62 0 0 0 -.359-.147 1.679 1.679 0 0 0 -.495.274c-.274.19-.485.348-.485.548-.001.178.02.355.063.527h.633c0-.211.105-.422.253-.485.147-.063.084 0 0 .074a.52.52 0 0 0 -.053.39c.353.009.707-.02 1.054-.085a.843.843 0 0 0 -.633-.421c0-.074.106-.137.317-.127a.758.758 0 0 1 .632.443 7.846 7.846 0 0 0 2.055-.527 6.215 6.215 0 0 0 -1.602-1.444 5.418 5.418 0 0 0 -2.687-.632c.134-.089.284-.149.442-.179a2.465 2.465 0 0 1 1.054 0c.526.169 1.037.38 1.528.632a8.462 8.462 0 0 1 1.813 1.497c.226-.068.444-.156.654-.264zm3.625-8.821a6.108 6.108 0 0 1 -2.687.738 4.703 4.703 0 0 1 -2.214-.738 5.495 5.495 0 0 0 -1.739-.664c.315.23.569.533.738.885.136.33.075.71-.158.98.533.192 1.09.312 1.655.359.506.031 1.011.031 1.517 0 .264 0 .285 0 0 .073a4.867 4.867 0 0 1 -1.749.148 8.98 8.98 0 0 1 -2.371-.59c-.78-.295-1.307-.506-1.434-.569-.126-.064-.242-.053-.632.073-.443.166-.84.433-1.159.78a1.51 1.51 0 0 0 -.159 1.55c.196.391.52.703.917.885a3.895 3.895 0 0 0 1.613.253 3.29 3.29 0 0 1 -1.412-.759 1.452 1.452 0 0 1 -.454-1.117c.053-.443.285-.78 1.265-.706.98.073 2.234.463 2.298 1.18 0 .401-.464.654-.759.822-.295.169-.337.169-.106.274.336.13.698.173 1.054.127a6.833 6.833 0 0 0 2.266-.664 9.612 9.612 0 0 0 2.361-1.655 5.04 5.04 0 0 0 1.339-1.634zm-9.907.79c-.527.34-.861.913-.896 1.539.082.611.409 1.164.907 1.528a2.748 2.748 0 0 0 1.834.464c1.054 0 2.677-.127 3.604.896.927 1.022 1.054 1.855.348 2.719a6.316 6.316 0 0 0 -2.055-1.349c-.148-.316-.38-.58-1.16-.685a7.569 7.569 0 0 1 -3.003-.843 2.768 2.768 0 0 1 -1.507-2.403 2.018 2.018 0 0 1 1.928-1.897zm-6.302 24.398a5.303 5.303 0 0 0 -1.581 0 2.116 2.116 0 0 0 -.97.685.95.95 0 0 0 .106 1.054c.072-.303.217-.586.421-.822a2.585 2.585 0 0 1 1.444-.358c.148.255.353.472.601.632.172-.38.164-.817-.021-1.191zm.232 1.286a1.854 1.854 0 0 0 0-1.475 1.392 1.392 0 0 1 1.18 0c.369.179.653.348 1.054.211.319-.156.651-.286.991-.39.261.038.528.015.78-.064.351-.124.684-.294.99-.506a2.4 2.4 0 0 1 1.054-.337c.234-.006.465-.049.685-.126.106 0 .127-.148-.084-.106a2.412 2.412 0 0 1 -.664.106h-.896a3.652 3.652 0 0 0 -.948-.19c-.436.019-.868.09-1.286.211-.295.084-.991.337-1.138.211-.148-.127-.18-.39-.285-.58s-.348-.58-.485-.78 0-.337 0-.601c.11-.358.277-.696.496-1.001.284-.421.737-.97.895-1.233.32-.414.673-.802 1.054-1.159.243-.211.822-.717 1.054-.949.365.232.6.623.633 1.054.053.385-.005.776-.169 1.128a5.543 5.543 0 0 1 1.602-.316c.375-.002.742.108 1.054.316a2.522 2.522 0 0 1 -1.181 1.359 2.69 2.69 0 0 1 -.895.317c-.243 0-.738.105-1.054.158a4.65 4.65 0 0 0 -.633.189c-.105 0-.179.148 0 .106.25-.069.503-.122.759-.158a8.47 8.47 0 0 1 1.159-.064c.36-.027.721.031 1.054.169.317.179.569.464 1.054.485s1.054-.053 1.107.084c.12.178.12.412 0 .59a.953.953 0 0 1 .105.706c-.039.261-.16.501-.348.685.38-.041.729-.23.97-.526.265-.319.429-.707.474-1.118.016-.225.089-.442.211-.632.106-.084.274-.169.358 0 .212.393.348.822.401 1.265a1.374 1.374 0 0 1 -.58 1.117 3.092 3.092 0 0 1 -1.612.664 3.428 3.428 0 0 0 -1.613.558c-.379.317-.632.696-.885.949s-.632.232-.79.358c-.158.127-.285.506-.443.633-.158.126-.559.137-.685.274-.127.137 0 .316-.211.706-.108.182-.26.334-.443.442-.084 0-.168 0-.231-.105a.812.812 0 0 0 -.696-.263c.199.241.327.533.369.843a1.113 1.113 0 0 0 -.316.758c.058.252.173.486.337.686a.69.69 0 0 1 -.717-.348 1.545 1.545 0 0 1 -.316-.812 1.054 1.054 0 0 1 .243-.738 2.515 2.515 0 0 1 -.211-.916c.122-.221.291-.411.495-.559.127-.105.337-.211.422-.295.11-.161.229-.316.358-.464.178-.142.383-.25.601-.316.316-.105.843-.316.99-.358.206-.138.394-.301.559-.485.14-.136.299-.25.474-.337.295-.127.127-.169-.052-.127-.224.078-.43.196-.612.348a3.642 3.642 0 0 1 -.769.527 4.255 4.255 0 0 1 -.875.316.818.818 0 0 0 -.601.316 1.91 1.91 0 0 1 -.59.685c-.295.211-.716.422-.674 1.054-.215.004-.428.04-.633.106a3.045 3.045 0 0 0 -.421-.664.53.53 0 0 0 -.274 0c-.09.023 0 .063 0 .137a.438.438 0 0 1 .105.379c0 .105-.074.148-.168.242a3.393 3.393 0 0 0 -.696 1.054 1.208 1.208 0 0 1 -.253-1.054c.136-.391.351-.749.632-1.053 0-.369 0-.527.18-.696.185-.205.406-.372.653-.495l.843-.19a.74.74 0 0 0 .664-.38 1.06 1.06 0 0 1 1.054-.463 2.38 2.38 0 0 0 1.191-.211c.3-.141.577-.326.822-.548.105-.105 0-.127-.105-.053-.282.156-.574.29-.875.401a2.007 2.007 0 0 1 -.949.158c-.421 0-.527-.106-.843.105-.25.195-.485.406-.706.633a2.11 2.11 0 0 1 -.759.284 4.639 4.639 0 0 1 -1.475.137l-.021.021z" fill="#fff"/><path d="m47.534 86.821c-.169.422-.074.211-.316.77l-1.054 2.613-1.718-.421-.632-6.608 1.812.738.158 2.919c0 .316 0 .611.064.917.105-.316.21-.601.316-.875l.948-2.561 1.602.295.211 2.614c.022.288.03.576.021.864.127-.369.348-.98.527-1.581l.738-2.002 1.897-.148-2.393 6.324-1.728-.211-.242-1.823zm5.364-2.687 1.971-.422 3.225 5.544-1.539.379-.527-1.054-2.244.464-.106 1.159-1.791.317zm-11.814-2.161 1.823.865-.443 6.323-1.717-.685.189-1.107-2.108-.948-.769.896-1.412-.717zm22.269 4.743-1.581.769-2.708-1.423 1.054 2.214-1.307.632-2.635-5.48 1.792-.865c1.317-.632 2.466-.6 3.035.57a1.698 1.698 0 0 1 -.632 2.181zm-7.904.79-.991-1.855c0-.105-.169-.347-.358-.769v.843l-.179 2.108zm12.815-3.804-1.507.917-2.814-1.139 1.265 2.108-1.244.738-3.161-5.185 1.686-1.054c1.265-.77 2.424-.843 3.088.263a1.7 1.7 0 0 1 -.422 2.235zm-31.596-4.342 1.212.843-2.635 3.825 1.644 1.128-.801 1.159-2.845-1.949zm4.416 6.829.316-2.108c0-.105.063-.358.158-.811l-.527.632-1.402 1.581zm17.6-.843.169-.106c.738-.337 1.159-.758.843-1.422s-.927-.559-1.623-.211l-.179.074zm-25.41-8.431 1.191.885-2.761 3.752 1.602 1.159-.843 1.159-2.783-2.107zm33.083.558 1.56-1.265 5.406 3.447-1.233 1.054-.917-.654-1.791 1.37.453 1.054-1.233 1.054zm-2.867 5.343.169-.105c.685-.422 1.054-.875.685-1.507s-.949-.464-1.613-.063l-.168.105zm-32.25-7.503 1.139.874-3.689 4.817-1.159-.886zm38.932 3.952-1.728-1.16-.675-.558c.211.421.316.674.348.759l.843 1.981zm-5.417-18.834a.403.403 0 0 0 .316.401c.179.063.611.442.548 1.412a2.95 2.95 0 0 1 -2.108-1.834 3.38 3.38 0 0 1 1.244.021zm4.026-47.637v.169l.003.135a3.299 3.299 0 0 1 -3.587 3.269 3.508 3.508 0 0 1 -3.73-3.341 3.906 3.906 0 0 1 3.852-3.428c1.22 0 2.372.575 3.103 1.552l-1.37.59a2.01 2.01 0 0 0 -1.791-1.054h-.001c-1.214 0-2.214 1-2.214 2.214l.001.073-.001.065c0 1.191.981 2.171 2.171 2.171l.065-.001a1.72 1.72 0 0 0 1.791-1.444h-1.686v-1.054zm-24.999 0v.169l.003.135a3.299 3.299 0 0 1 -3.586 3.269 3.51 3.51 0 0 1 -3.742-3.341 3.563 3.563 0 0 1 3.836-3.394 3.57 3.57 0 0 1 3.162 1.529l-1.37.6a2.01 2.01 0 0 0 -1.792-1.054h-.001c-1.214 0-2.213 1-2.213 2.214l.001.073-.001.053c0 1.197.986 2.182 2.182 2.182h.032a1.72 1.72 0 0 0 1.813-1.444h-1.728v-1.054zm4.658.19a3.634 3.634 0 0 1 3.9-3.373 3.644 3.644 0 0 1 3.899 3.373 3.613 3.613 0 0 1 -3.899 3.372 3.613 3.613 0 0 1 -3.9-3.372zm-11.719 2.614a.955.955 0 0 1 -.928.749.954.954 0 0 1 -.927-.749.954.954 0 0 1 .927-.75c.446 0 .834.314.928.75zm-6.482-4.385a1.531 1.531 0 0 0 -1.18-.527c-.485 0-.949.296-.949.707 0 1.053 3.162.632 3.162 2.771 0 1.265-.991 2.182-2.603 2.182a2.871 2.871 0 0 1 -2.424-1.265l.99-.769c.252.555.803.917 1.413.927a.959.959 0 0 0 1.054-.927c0-.654-.759-.843-1.371-1.054-1.053-.337-1.749-.759-1.749-1.75a2.125 2.125 0 0 1 2.298-1.918 3.711 3.711 0 0 1 2.107.717zm5.66-.295h-1.581l-.021 5.27h-1.518v-5.27h-1.581v-1.054h4.701zm22.248 5.27h-1.581v-6.387h2.108c1.56 0 2.635.559 2.635 1.918.011.917-.689 1.7-1.602 1.792l2.202 2.677h-1.865l-1.897-2.582zm-9.981-.063h-4.068v-6.324h4.068v1.054l-2.529.032v1.412h2.424v1.054h-2.424v1.718h2.529zm25.02 0h-4.089v-6.324h4.089v1.054l-2.55.032v1.412h2.445v1.054h-2.445v1.718h2.55zm-23.165-3.141a2.336 2.336 0 0 0 2.308 2.097 2.336 2.336 0 0 0 2.308-2.097 2.336 2.336 0 0 0 -2.303-2.049 2.335 2.335 0 0 0 -2.302 2.049zm8.284-2.161h-.211l.021 1.919h.19c.843 0 1.433-.19 1.433-.97s-.611-.949-1.433-.949z" fill="#e82c2a"/></svg>