<svg clip-rule="evenodd" fill-rule="evenodd" stroke-linejoin="round" stroke-miterlimit="1.414" viewBox="0 0 100 100" xmlns="http://www.w3.org/2000/svg"><circle cx="50" cy="50" fill="#fff" r="45"/><circle cx="50" cy="50" fill="#043674" r="43.476"/><path d="m40.065 67.39-.03.003c-.01.001-.934.073-2.22.073-4.924 0-7.915-.977-8.027-2.616.013-.048.025-.324.186-.485l.906.975.958-1.28.355.424.582.697.585-.694.368-.436.159.198.539.67.6-.615.409-.418.33.296.52.654s6.219.325 11.395-.684c-2.61-1.703-14.052-3.524-14.052-3.524a458.68 458.68 0 0 1 -1.657-.264c-1.842-.302-2.15-.976-2.188-1.085-.006-.376.095-2.497 3.118-3.227 0 0 1.804-.472 2.275 1.478.47 1.949 2.185 1.076 3.765.403 0 0 .437 2.219 3.227 2.219s3.496-2.925 3.059-4.068c0 0 4.403 1.48 10.588-2.251 0 0-4.638 1.108-6.958-.337 0 0 6.488-.302 10.32-2.05s18.925-5.278 23.732 9.647c1.939 8.891-2.06 19.948-18.469 26.153l-1.344-10.623c2.264-.834 7.753-3.137 9.521-7.477.813-1.996.569-4.085-.621-6.168l-.02-.034-.023-.033c-.078-.107-1.932-2.624-5.55-2.624-1.365 0-2.804.365-4.278 1.085-2.558 1.25-4.094 2.666-5.451 3.914-1.828 1.685-3.15 2.903-6.222 3.115a21.37 21.37 0 0 1 -1.433.052c-1.665 0-2.779-.236-3.958-.487-1.336-.283-2.719-.576-4.966-.576zm44.601-17.279h-1.355v-1.163h-2.726v-.93l2.167-3.523h1.914v3.337h.678v1.116h-.678zm2.824 0h-1.601l2.562-4.379h-2.346v-1.237h4.61zm-74.715-.02h-1.46v-4.378h-.805v-1.237h2.265zm3.785 0h-1.661l1.601-1.891-.015-.015a1.85 1.85 0 0 1 -.789.171c-1.103 0-1.803-.945-1.803-1.98 0-1.378 1.132-2.123 2.414-2.123.543 0 1.169.134 1.601.484.454.365.752.961.752 1.55 0 .811-.417 1.593-.901 2.233zm66.751-4.419h-.015l-1.311 2.16h1.326zm-67.898.659c0 .513.387.923.901.923s.931-.41.931-.923a.925.925 0 0 0 -.931-.924c-.514 0-.901.41-.901.924z" fill="#fdb71b" fill-rule="nonzero"/><path d="m35.568 55.872c1.614-1.569 1.758-1.846 2.402-2.5.243-.247.472-.481.737-.689.152-.12.31-.253.48-.394.445-.373.95-.795 1.599-1.197 0 0-.702 1.429-.635 2.37 0 0 3.731-2.487 7.025-2.554 3.295-.068 6.051.134 11.564-1.681s23.866-5.916 26.488 14.018c0 0-3.229-14.425-16.202-14.657-7.53-.134-10.488 2.219-15.194 3.026s-6.756.639-7.833.975c0 0 .505 0 1.917 1.949 0 0-3.026-1.076-5.479.403-2.454 1.479-2.152 2.286-5.009 2.354 0 0 .303-1.143.571-2.084z" fill="#83c441" fill-rule="nonzero"/><g fill="#043674"><circle cx="70.395" cy="78.109" r="1.618"/><circle cx="72.821" cy="74.833" r="1.618"/><circle cx="74.252" cy="70.706" r="1.618"/><circle cx="75.237" cy="65.916" r="1.514"/><circle cx="74.937" cy="62.318" r="1.514"/><circle cx="73.361" cy="58.616" r="1.514"/><circle cx="69.991" cy="56.636" r="1.514"/><circle cx="65.957" cy="56.024" r="1.514"/><circle cx="61.924" cy="56.771" r="1.213"/><circle cx="57.621" cy="57.735" r="1.078"/><circle cx="60.244" cy="59.394" r="1.068"/><circle cx="55.423" cy="55.848" r="1.068"/><circle cx="53.09" cy="56.885" r=".653"/><circle cx="55.174" cy="58.471" r=".944"/><circle cx="57.683" cy="60.607" r=".944"/><circle cx="55.962" cy="62.525" r=".944"/><circle cx="54.199" cy="60.783" r=".944"/><circle cx="52.603" cy="59.031" r=".944"/><circle cx="51.597" cy="61.074" r=".944"/><circle cx="53.588" cy="63.085" r=".944"/><circle cx="54.707" cy="65.646" r=".944"/><circle cx="57.154" cy="64.506" r=".944"/><circle cx="59.104" cy="62.774" r=".944"/><circle cx="61.426" cy="61.343" r=".944"/><circle cx="51.7" cy="65.014" r=".85"/><circle cx="63.334" cy="59.404" r="1.213"/><circle cx="66.528" cy="59.228" r="1.213"/><circle cx="70.063" cy="59.892" r="1.213"/><circle cx="71.847" cy="62.214" r=".975"/><circle cx="72.811" cy="67.907" r="1.172"/><circle cx="70.758" cy="72.334" r="1.182"/><circle cx="68.073" cy="75.393" r="1.441"/><circle cx="64.008" cy="77.601" r="1.618"/><circle cx="64.796" cy="77.259" r="1.618"/><circle cx="68.021" cy="84.642" r="1.887"/><circle cx="72.656" cy="81.251" r="1.752"/><circle cx="62.94" cy="83.232" r="1.918"/><circle cx="63.521" cy="80.038" r="1.877"/><circle cx="63.666" cy="86.612" r="1.586"/><circle cx="75.683" cy="77.705" r="1.929"/><circle cx="78.109" cy="72.998" r="2.24"/><circle cx="79.229" cy="67.658" r="2.24"/><circle cx="79.094" cy="62.059" r="2.24"/><circle cx="77.435" cy="56.906" r="2.24"/><circle cx="73.62" cy="53.816" r="1.887"/><circle cx="68.518" cy="52.374" r="1.659"/><circle cx="63.137" cy="53.048" r="1.659"/><circle cx="58.513" cy="54.438" r="1.524"/><circle cx="67.44" cy="80.391" r="1.535"/><path d="m33.099 58.191s-.498-.653-1.524-.145c-1.027.508-.415 2.001.674 1.037.383-.384.124-.695.829-.892z"/></g><path d="m46.612 82.898-.137 1.417 2.485.24-.18 1.866-2.484-.24-.141 1.463 2.62.252-.18 1.866-4.824-.465.817-8.477 4.824.465-.18 1.866zm6.329 4.826 2.647-.194.137 1.87-4.855.355-.622-8.492 2.208-.162zm-12.136-5.947-.388 1.369 2.401.68-.511 1.804-2.401-.68-.4 1.413 2.532.717-.511 1.803-4.662-1.32 2.321-8.192 4.661 1.32-.511 1.804zm19.469.058c-.479-.226-1.038-.314-1.563-.178-.394.102-.859.468-.74.928.126.48.753.516 1.156.539l.589.022c1.236.041 2.272.391 2.619 1.724.212.82.234 1.713-.277 2.441-.503.714-1.307 1.168-2.137 1.384-1.039.27-2.147.184-3.142-.188l.47-1.966c.658.331 1.391.549 2.123.359.503-.131.974-.521.823-1.101-.156-.601-1.051-.59-1.545-.602-1.444-.033-2.42-.153-2.835-1.749-.434-1.673.474-3.075 2.124-3.504.831-.216 1.916-.217 2.756.008zm-31.25-22.467s.09 1.3 2.824 1.748 6.174 1.49 7.294 2.095c-.918.023-2.745.146-2.745.146l-.997-.695-.919 1.11-.74-.92-.963 1.143-1.031-1.233-.919 1.48-.672-.919c-1.165.583-1.132 1.501-1.132 1.501.135 4.203 11.071 3.329 11.071 3.329 4.706 0 5.535 1.344 10.41 1.008 5.744-.396 6.083-4.235 11.955-7.104 5.871-2.869 8.626 1.248 8.703 1.389 3.067 5.643-6.919 11.157-10.09 12.732a28.33 28.33 0 0 1 -11.073 2.238c-14.015 0-25.659-10.146-27.99-23.494v.001l-.001-.006.001.005c-.361-9.605 7.416-11.701 13.798-12.056 2.834-.157 5.393.028 6.842.052 5.288.09 14.79-1.254 16.941-10.845.992-4.419-.396-7.486-2.18-9.51 11.362 3.061 19.906 12.99 20.905 25.061-7.425-4.847-16.859-2.115-19.307-1.03-3.541 1.569-8.337 1.837-13.043 2.196s-6.454 2.286-7.731 3.294c-1.278 1.009-1.614 2.286-5.513 3.227-3.9.941-3.698 4.057-3.698 4.057zm14.679-2.465a1.703 1.703 0 0 1 -3.192.826 4.144 4.144 0 0 1 -.643.32 2.42 2.42 0 1 0 4.109-2.54 4.171 4.171 0 0 0 -.697.273c.262.299.423.691.423 1.121zm35.519-22.037-1.603.087-.992-2.152 9.183-.595 1.02 2.213-6.446 6.533-.996-2.162 1.122-1.131zm-67.109 2.034 1.36-3.135c.733-1.694 2.025-2.525 3.833-1.741 1.86.807 2.24 2.163 1.466 3.951l-.503 1.159 2.613 1.133-.888 2.048zm4.504-.481.15-.345c.322-.743.639-1.474-.323-1.891-.993-.43-1.298.245-1.642 1.039l-.149.345zm67.293-1.995-.01-.021-2.869.306.777 1.687zm-61.391-2.523.857 1.357-1.395 1.915-4.998-7.729 1.436-1.97 8.848 2.444-1.402 1.924-1.535-.428zm53.166.043-1.349-1.779 5.337-4.049-1.116-1.47 1.507-1.143 3.581 4.72-1.507 1.143-1.116-1.471zm-47.407-.257.099-.122c.238-.288.728-.855 1.421-1.546l.001-.002h.001c.203-.206.415-.403.624-.602 2.1-1.955 5.498-4.443 9.324-4.61 6.358-.28 5.714 5.491-2.19 5.299-7.904-.19-9.348 1.667-9.348 1.667zm-8.431-3.664-.013.018 1.666 2.356 1.093-1.501zm13.624-4.992-2.167 1.742-3.713-1.254-.018.014 2.071 2.575-1.741 1.4-5.383-6.695 2.602-2.093c1.323-1.063 2.833-1.24 3.982.19.743.924.871 2.137.056 3.069zm38.26 4.312-1.665-1.488 4.464-4.995-1.376-1.229 1.26-1.41 4.417 3.947-1.26 1.411-1.376-1.23zm-6.953-6.747-1.249 1.009-2.065-1.163 7.096-5.862 2.124 1.196-1.398 9.073-2.075-1.169.246-1.574zm-24.219-.792-2.526 1.159-3.293-2.123-.021.01 1.378 3.002-2.029.932-3.583-7.807 3.034-1.392c1.542-.708 3.049-.51 3.815 1.157.494 1.077.321 2.284-.697 2.989zm-13.885 2.611.168-.136c.568-.457 1.122-1.078.537-1.806-.586-.728-1.311-.321-1.879.136l-.169.136zm41.645-4.924-.02-.011-2.146 1.929 1.618.911zm-14.844-7.499 2.162.401.876 4.833 2.653-4.177 2.184.405-.291 8.684-2.196-.408.287-4.976-.022-.004-2.931 4.485-.874-.162-1.035-5.222-.022-.004-1.609 4.731-2.185-.406zm-9.898 7.733-.365 1.564-2.343.351 1.996-8.985 2.411-.361 4.472 8.017-2.355.352-.773-1.393zm-9.456-.18.196-.09c.663-.304 1.351-.77.961-1.619-.389-.849-1.192-.632-1.854-.327l-.197.09zm10.342-4.445-.022.003-.508 2.841 1.837-.275z" fill="#fff" fill-rule="nonzero"/></svg>