<svg clip-rule="evenodd" fill-rule="evenodd" stroke-linejoin="round" stroke-miterlimit="2" viewBox="0 0 100 100" xmlns="http://www.w3.org/2000/svg"><g fill-rule="nonzero"><path d="m86.142 85.437c-.361-.285-.723-.495-1.084-.632s-.71-.206-1.049-.206c-.429 0-.778.098-1.049.296-.27.197-.407.455-.407.772 0 .219.069.401.204.542.136.143.314.267.534.37.219.105.468.195.743.272.277.076.551.158.822.246 1.082.351 1.874.82 2.377 1.405s.754 1.35.754 2.292c0 .635-.11 1.21-.331 1.725-.22.515-.541.956-.963 1.323-.424.367-.943.652-1.558.855s-1.312.303-2.09.303c-1.614 0-3.109-.465-4.485-1.396l1.421-2.596c.497.427.988.744 1.474.953.484.207.964.312 1.438.312.541 0 .944-.121 1.209-.361.266-.242.398-.515.398-.822 0-.186-.034-.347-.101-.485-.068-.136-.181-.263-.339-.378-.158-.114-.363-.222-.618-.32-.253-.099-.561-.208-.922-.329-.429-.131-.849-.276-1.261-.436-.412-.159-.778-.369-1.1-.632s-.581-.593-.779-.994c-.196-.399-.296-.906-.296-1.52 0-.613.104-1.169.314-1.667.208-.498.501-.927.88-1.282.378-.356.84-.633 1.388-.83.546-.197 1.158-.295 1.836-.295.632 0 1.292.084 1.98.253.688.171 1.348.419 1.98.749zm-31.132 2.313v6.186c-.901.653-2.878.97-4.373.97-3.843 0-6.898-2.521-6.898-6.557s3.055-6.487 6.898-6.487c.005 0 .011.001.017.001.065-.003.13-.006.198-.006.497 0 1.012.055 1.544.159.148.029.293.06.433.095l.011.003c.091.024.181.048.269.076.588.165 1.157.385 1.703.67l-1.32 2.514c-.5-.368-1.034-.538-1.485-.618-.237-.035-.476-.056-.711-.056-2.026 0-3.634 1.393-3.634 3.667 0 2.255 1.335 3.666 3.264 3.666.145 0 .433-.018.595-.035v-1.745h-1.592v-2.503zm-38.357 6.786h-3.634v-9.254c0-1.34-.193-2.31-1.077-2.609v-.458h4.711v4.9l2.957-4.9h4.149l-3.859 5.552 4.196 6.769h-4.486l-2.957-5.323zm25.994 0h-3.634v-9.254c0-1.34-.193-2.31-1.077-2.609v-.458h4.711zm35.752-9.184h-3.07v9.184h-3.618v-9.184h-3.071v-3.137h9.759zm-18.069 9.184h-3.633v-9.254c0-1.34-.193-2.31-1.078-2.609v-.458h4.711v4.759h3.601v-4.759h3.617v12.321h-3.617v-4.76h-3.601zm-31.508 0h-3.361v-9.254c0-1.34-.193-2.292-1.077-2.591v-.476h4.277l5.032 6.187v-6.187h3.344v12.321h-2.894l-5.321-6.47z" fill="#0054a6"/><path d="m23.672 39.501c5.411.525 6.27-4.715-1.763-9.51-8.034-4.801-10.209-8.797-9.96-13.77.257-4.973 4.292-9.994 11.873-10.943 7.581-.945 11.659.569 19.438 3.812 7.782 3.245 21.5-.261 27.105-1.013 5.603-.754 9.247.155 12.116 2.593 4.396 3.735 3.889 13.566-2.996 16.017-6.504 2.314-18.394-2.292-23.284-3.463-2.863-.686-2.519 1.345-.802 1.944l-2.131.713c-3.703-1.493-4.457-3.248-3.643-4.816l-1.124.152c-5.001.464-6.591-.117-10.683-.877-7.068-1.313-6.534 4.423-.801 3.97 5.744-.451 8.25 1.072 9.86 3.548-9.499 8.291-10.517 20.49-10.517 20.49-17.563 9.705-25.133-7.114-19.244-16.842.056.625 1.145 7.468 6.556 7.995z" fill="#e92d2b"/><path d="m69.046 76.397v1.482c-9.548-5.158-20.84-12.514-36.607-7.586l.294-.44 3.332-4.654c-2.182-12.935-4.49-29.802 15.77-40.326 7.315 2.538 16.938 5.074 26.553 19.529l9.109-.382c-5.39 6.341-9.237 11.921-11.288 18.513l-2.951-1.269c-1.796 5.197-3.076 7.228-3.977 13.063zm-41.005-69.631c-5.079-.216-12.571 3.793-12.498 10.557.084 7.812 15.689 10.4 15.689 19.338 0 3.143-2.325 4.965-5.379 4.802 0 0 4.051-.385 4.051-4.414 0-8.714-15.779-10.409-15.779-19.728 0-9.242 9.975-10.908 13.916-10.555zm54.952 13.001c-.132 6.58-10.552 5.978-14.835 4.736 4.949.207 14.085-.182 14.835-4.736z" fill="#fff"/><path d="m78.738 44.056c-9.864-15.003-19.721-17.637-27.213-20.269-18.493 9.728-18.683 24.37-16.917 37.006.266 2.272-.536 4.651-1.704 6.822-.557 1.041-1.326 2.035-1.954 2.77l-.692.756-1.014.835c12.687-5.709 26.346-.78 35.876 4.542l4.083 2.468h4.26l.003-.006-4.244-2.602c.926-5.97 2.43-9.462 4.254-14.819l3.027 1.316c2.101-6.842 6.043-12.634 11.567-19.217zm.858 4.516-.875 1.496c-.128.231-.262.474-.395.72l-.789 1.49c-.123.236-.247.476-.365.719l-.729 1.495c-.674 1.424-1.381 2.994-2.142 4.768-3.401-1.181-15.008-3.739-21.992-4.607-.31-1.394-.866-3.662-1.715-6.347-.626.344-1.345.54-2.109.54-.251 0-.495-.022-.735-.061 1.418 4.44 2.031 7.83 2.04 7.877l.022-.005c.002.011.005.021.007.03 8.806 1.321 13.408 4.61 17.352 7.506l-5.003 8.188c-3.368-1.722-6.69-3.181-9.756-4.399-7.292-6.202-16.604-18.593-2.835-38.367l.471-.644c-10.713 9.694-13.248 21.143-8.31 35.266-1.163-.36-2.133-.647-2.864-.867-6.064-20.331 1.919-31.783 13.177-37.875 18.207 7.091 23.374 19.042 23.374 19.042l-2.268-.063-1.58-2.237-16.01-2.13 2.607 4.176c-.797 0-2.863-.118-5.325-.34.019.166.03.336.03.507 0 .56-.106 1.095-.296 1.586 7.941.464 23.691 1.004 28.291.65 0 0-.919 1.302-1.278 1.886zm-4.303.005c-1.361 2.715-3.112 6.217-4.049 8.119.732.187 1.405.366 1.999.533 1.007-2.032 2.807-5.632 4.323-8.654-.388.004-.792.006-1.223.006-.339 0-.694-.002-1.05-.004zm-3.816-.048c-1.187 2.366-2.677 5.347-3.667 7.343.704.161 1.382.32 2.03.476 1.042-2.097 2.574-5.159 3.891-7.784-.729-.009-1.483-.021-2.254-.035zm-3.797-.089c-1.052 2.099-2.354 4.702-3.335 6.675.694.146 1.378.293 2.048.439 1.023-2.053 2.364-4.732 3.53-7.057-.739-.018-1.487-.036-2.243-.057zm-19.195-1.059c-1.621 0-2.931-1.311-2.931-2.931 0-1.617 1.31-2.931 2.931-2.931 1.612 0 2.931 1.314 2.931 2.931 0 1.62-1.319 2.931-2.931 2.931z" fill="#231f20"/></g></svg>