<svg clip-rule="evenodd" fill-rule="evenodd" stroke-linejoin="round" stroke-miterlimit="1.414" viewBox="0 0 100 100" xmlns="http://www.w3.org/2000/svg"><g fill-rule="nonzero"><path d="m98.333 61.571s.47-.78-.991-1.765c-1.46-.985-3.532-2.308-5.385-6.128-1.852-3.818-2.781-1.92-4.63-3.512-1.85-1.592-5.899-2.241-10.219-8.943 0 0 .286 1.637.523 3.904.152 1.448-.877 2.777-1.451 3.589-.815 1.151-2.469 2.506-2.469 2.506s1.672 1.858 1.927 2.026.503.703 2.001.914c1.497.212 7.106.765 4.99 3.138 0 0-.608.541-.766.617-.158.075-.358-.055-.42.42-.063.475-.716 2.495 1.531 3.334 0 0-.237-1.459.346-1.778.584-.319 4.133-.7 6.176 1.012 0 0 .259.458 1.581.791 1.323.334 2.057.889 2.05 1.804-.007.913-.124 1.902-.124 1.902s1.757-1.261 1.779-3.113c0 0 3.028.159 1.878 3.212 0 0 2.177-1.345 1.673-3.93zm-76.262 1.614c.901.161 2.001-.339 2.062-.302.57.339 1.264-.053 1.545-.358-.01.019-.014.056.036.122.148.199-.692.507-.692.507.828.457 1.416-.054 1.519-.049.175.006.37-.174.396-.489 0 0 .083-3.305 3.36-3.711 2.791-.345 7.114 4.644 8.992 4.15 1.877-.494 1.926-4.903 1.926-4.903h-13.438zm57.803 5.28c.865 1.407.667 3.371.667 3.371-1.259-1.927-1.908-1.832-1.908-1.832-.472.278-.811-.1-1.198-.43-.048.046-.099.09-.151.133.05.182-.019.311-.036.384-.021.09-.023.272-.2.324-.117.035.686.905.599 2.659-.009.199-2.124-2.1-2.333-2.085-.175.014-.35.003-.5.013-.309.021-.625-.247-.636-.212-.038.112.25 2.758.25 2.758-.619.025-2.759-2.421-2.759-2.421-.247.247-1.211.287-1.211.287l.187 2.334c-1.445-.333-2.334-2.059-2.334-2.059-.481.111-1.062-.391-1.098-.687-.037-.296-.787-.936-.787-.936s-2.266-2.078-2.971-2.634c-.704-.555-3.557-.536-3.557-.536s-5.154.014-6.228.124c-1.075.111-1.325.012-2.659-.037-1.504-.057-1.434-.748-1.41-.799-.058-.053-.332-.718-4.1-4.957-1.186-1.334-3.754-4.397-3.754-4.397-5.287.248-14.476.05-14.476.05-2.334 1.444-6.963 6.943-8.038 7.906-1.075.964-2.014.661-2.496.586-.482-.074-1.273-.611-2.422-.611s-1.447-.449-1.447-.449-1.534.1-2.535 1.323c-1 1.223-3.394 1.51-3.394 1.51-1.631.631-2.098-.886-2.098-.886.519 0 1.386-.823 1.386-.823-3.076-.038-2.859-1.124-2.859-1.124-1.556-.222-1.734-1.81-1.734-1.81.815.518 2.259.388 2.259.388.852-1.187 1.52-.911 2.521-.837 1 .074.442.353 2.035-.388 1.593-.74 2.726-3.175 3.245-3.731.518-.557 1.27-1.158 2.272-.825a1.602 1.602 0 0 1 1.097 1.274c2.335-3.224 2.894-5.482 2.671-6.89-.221-1.408.415-2.65.638-3.021.222-.37 1.606-2.002 2.421-2.447.815-.444 2.09-.971 3.719-.861 1.631.112 2.397.005 4.731-.774 2.334-.778 9.783-9.26 11.895-10.446s7.575-3.422 9.204-3.756c1.631-.333 3.637-.626 5.75.486 2.111 1.111 3.823 1.59 6.219 1.59s4.224 1.037 4.224 1.037 3.465 1.519 4.817 2.038c1.353.518 1.631.815 1.631.815 1.407-.26 4.231.063 3.939.371-.913.964-1.679 1.778-1.679 1.778s.438 1.588.667 4.372c.17 2.077.022 3.886-1.89 5.855-2.52 2.594-2.322 5.287-3.112 6.485-.746 1.129-2.223 1.296-2.223 1.296-.964-.222-1.668-.037-1.668-.037-.716.173-3.15-1.259-3.15-1.259-2.704 2-6.373 1.666-6.373 1.666-.075.261 1.937 4.968 4.854 4.447 1.176-.209 3.779-.852 4.965.075 1.186.925 4.585 2.567 7.377 3.333 2.79.766 3.829 1.556 3.829 1.556 1.852.716 1.355 2.373 1.355 2.373zm-63.156-29.427c1.055-3.834 6.212-3.919 6.212-3.919s6.614.238 7.334-3.627c.389-2.088-.483-5.165-7.057-5.772 0 0-3.261-.035-2.826-1.42.447-1.424 3.809-.607 3.809-.607s5.28.666 7.245 4.395c1.184 2.248.709 7.146-4.204 8.265-3.053.694-6.84-.03-8.333 3.08-1.495 3.112 3.813 5.082 3.813 5.082s-1.277.04-2.554 1.002c0 0-4.563-2.392-3.439-6.479z"/><path d="m70.358 44.408s1.531-.444.791 3.668c0 0 1.222-4.631-.791-3.668zm-1.652.609c-.694.195-1.6-.283-1.6-.283-1.099-.188-.659.313-.659.313-.039-.023.408.031.408.031 1.4.17 1.331.748 1.302 1.075.037-.33.269-.924 1.301-.98.527-.029.659-.063.659-.063.439-.596-.831-.258-1.411-.093zm-.738 2.696-.006.067zm-1.488-3.28c-.006-.002-.013-.004-.018-.008zm-1.705 3.421c-.351-4.247 1.492-3.518 1.687-3.429-2.572-1.254-1.687 3.429-1.687 3.429zm3.724-4.567c-.266.115-.5.037-.5.037-1.287-.528-1.909-.111-1.909-.111l.167-.056c1.4-.139 1.9.491 1.9.491.648-.676 2.213-.324 2.213-.324-1.167-.315-1.676-.12-1.871-.037zm3.532.87s-1.012-1.086-1.802-.048c0 0 .815-.494 1.802.048zm-5.879-.246c-.79-1.037-1.803.049-1.803.049.988-.544 1.803-.049 1.803-.049zm2.579-2.625c.284.084.954-1.945.954-1.945s-1.298 1.844-.954 1.945zm.071 1.294c-.232.065-.457-.21-.445-.494 0 0-.071-.735-.154-.781 0 0 .202.943-.55 1.213-.492.178-1.825-1.231-1.791-1.186.556.754 1.082 1.14 1.063 1.235-.025.124-.619.137-.816.025 0 0 .568.445 1.741.247 0 0 .557-.061.865.049.309.112.618.237 1.322-.121.429-.219-.241.078-.704-.138-.348-.162 1.076-1.86 1.027-1.815-.537.509-1.488 1.747-1.558 1.766zm-40.339 16.473s-1.445.445-2.076 2.464c0 0 .371-.278.501-.055 0 0-.148-1.353 1.575-2.409zm-2.613 2.668s.427-1.798 1.909-2.576c0 0-1.427.316-2.595 2.409 0 0 .927-.76.686.167zm13.973-3.571 1.392.002s-.037 4.433-1.914 4.928c-1.877.494-6.2-4.495-8.992-4.15-3.275.406-3.36 3.712-3.36 3.712-.025.314-.221.495-.394.487-.105-.004-.705.482-1.533.025 0 0 .779-.287.704-.482 0 0-.072-.082-.061-.102-.281.306-.95.676-1.519.338-.062-.038-1.174.438-2.075.277l5.706-5.033h4.65c.362.229 2.863 2.15 3.416 2.655l-.149-1.284s1.976 3.261 3.557 2.816c0 0 1.58-.616.572-4.189zm57.256 2.016s-1.788-1.013-2.968-2.275c-1.127-1.204-2.593-3.867-3.154-4.965-.646-1.268-1.37-1.089-2.956-1.617-2.028-.676-7.787-3.118-8.431-4.296 0 0 1.174 1.024 4.997 1.762 0 0-3.873-1.703-5.65-4.387 0 0-.591 1.158-.294 2.518.335 1.53-1.1 3.054-1.1 3.054l-.842.601s-1.59.633-1.536 1.095c.054.46 2.197 2.438 4.495 1.966 0 0 1.542-.244 2.291-.023.75.222.596-.237.705-.546.11-.316.703-1.469 1.572-1.862 0 0-2.499 3.369-.004 2.983 0 0 1.914-.385 1.828.028-.394 1.867 2.098 3.321 2.626 3.893 0 0-2.322-1.175-2.836-2.38-.513-1.206-1.853-1.446-2.047-.532-.107.488-.097.994.029 1.477.127.483-.45 1.255-1.069 1.367-.26.047-.139.144-.139.144s.948.622.927.973c0 0 1.5.044 1.51-1.27 0 0 .208 1.236 1.358 1.26 1.149.023 1.605.012 2.071.44.467.428 1.377-.11 1.377-.11s-.641 1.402 3.999 2.832c0 0 1.386-1.957-.765-3.063 0 0-1.165-.388-2.456-4.823 0 0 1.503 3.572 3.743 4.702.54.272 1.118 1.489.855 2.142 0 0-.258.847-.329.899 0 0 1.086-.036 1.661.742 0 0 1.83-1.487.532-2.729zm-.553 5.454c1.159-3.048-1.683-3.164-1.683-3.164-.027 1.851-1.949 3.135-1.949 3.135s.13-1.107.139-2.021c.01-.914-.708-1.403-2.03-1.741s-1.539-.835-1.539-.835c-2.037-1.717-5.53-1.331-6.113-1.013-.585.317-.254 1.823-.254 1.823-2.5-.86-1.835-2.956-1.771-3.431.063-.476.352-.479.51-.554.158-.076.667-.55.667-.55 2.123-2.367-3.452-2.79-4.947-3.005-1.497-.216-1.726-.729-1.984-.918-.247-.181-2.071-2.093-2.071-2.093s.408-1.018 1.272-1.858c1.026-.997 2.006-3.156 2.149-4.126.457-3.076-.222-4.866-.222-4.866 4.304 6.715 8.812 8.157 10.657 9.755 1.845 1.597 2.779-.299 4.62 3.525 1.843 3.824 4.069 5.084 5.527 6.073 1.457.988 1.041 1.867 1.041 1.867.497 2.587-2.019 3.997-2.019 3.997zm-16.763 2.52s-.408-.962-1.204-.37c-.673.501-.241 1.723-.092 1.76 0 0-.149-2.464 1.296-1.39zm-2.698-1.659s-4.632-2.33-7.918-3.658c-4.101-1.655 5.917 4.658 7.918 3.658zm-9.66-2.545c-1.257-.388-3.595-1.477-4.977-1.568-3.89-.26-6.508.604-8.102-.73-1.419-1.188-4.261-9.264-3.866-13.661.337-3.742 10.954-7.749 5.686-12.01 0 0 1.125.776 1.48 1.298.395.581.952 1.997.581 2.997-.547 1.468-3.554 5.509-3.177 10.668.224 3.055 1.371 8.188 8.782 3.866 0 0-.209-.693-.817-1.799-.105-.189-3.543.81-6.31-2.006 0 0 2.884 2.274 5.274 1.235.485-.211.667-1.112-.667-2.335-3.634-3.331-3.162-6.952-1.531-10.361l.14-.273s-.51-.776-1.35-2.139c-.557-.904-.883-2.12 3.804-1.133 0 0 .888-.741 3.186-.259 2.297.482 2.841-.099 3.236-.049 0 0-4.002-2.94-7.09-2.15l1.285 1.558s-9.609-6.918-16.501-2.471c0 0 4.168-.608 7.132 1.838 0 0-9.245-5.125-13.543 5.547 0 0 .37-2.297 1.26-5.039 0 0-6.595 6.965-10.374 10.004-3.862 3.103-7.276 2.879-7.276 2.879s1.557-.927 2.038-1.742c0 0-2.68-.741-4.681.939s-2.767 3.953-1.235 3.31c1.531-.642 1.928-.84 2.89-.963 0 0-2.841.815-3.878 4.668-1.037 3.854-3.656 6.818-5.262 6.621 0 0-.172 3.507 2.643 3.804 2.816.296 4.275-2.099 5.113-2.842.841-.741 3.965-5.386 4.905-5.508 0 0-2.619-1.236-3.607-3.41 0 0 2.026 2.767 6.719 2.866 6.709.142 11.955.914 11.955.914s-2.963-4.804-.851-14.031c0 0-1.816 12.117 4.038 17.046 0 0 1.964 1.741 4.002 4.408 2.038 2.669 2.434 2.174 2.989 2.285 0 0-1.988-3.386-3.028-8.275.498 2.24 1.87 6.894 4.819 7.807 2.473.764 9.412-.298 10.561.814a765.63 765.63 0 0 1 3.408 3.335c1.133 1.115.038 1.705.89 1.779 0 0-.26-2.52 1.667-.964 0 0 .506.791.753.642 0 0 1.186-1.729-1.087-2.939 0 0-.296-.037-.481-.37-.045-.08-.88-.901-.505-.916 1.406-.055 2.722 2.836 2.982 2.464.913-1.305 1.062-1.401.073-2.723-.09-.121-2.409-2.408-4.095-2.926zm5.225 5.681c-1.087.236-1.241 1.676-1.123 1.469 1.37-2.408 2.483-.246 2.483-.246.073-.334-.507-1.409-1.36-1.223zm-11.005-32.917c-.962-.537-2.483-.221-2.483-.221.149.666 1.187 1.815 1.187 1.815.704-1.112 1.296-1.594 1.296-1.594zm6.3-.074s.593.815.765 1.323c0 0-4.149-3.682-6.769.148 0 0 1.039-.285 2.558 1.642 0 0-4.731-4.014-3.249 2.606l-.84-.543s-3.162 4.051 2.199 7.646c1.202.805-.42-3.941-.42-3.941s2.136 3.174 1.828 7.126c0 0-.149 2.965 1.988 2.287 0 0 2.039-.037 3.744.185 0 0 .826.456 1.271-.618.119-.288.257-.957.426-1.808.46-2.323 1.153-5.996 2.328-6.9 0 0-1.734 5.176-.308 3.038 3.112-4.669 2.556-6.323 1.322-6.323 0 0 1.864-6.609-3.472-2.791 0 0 .457-.865 1.693-1.642 0 0-1.323-1.953-5.064-1.435zm5.446-.073s1.112.888 1.482 1.259c.21.209.631-.444 1.039-1.037.411-.599-2.521-.222-2.521-.222zm-4.211 19.329c-1.347-.988-3.088-.136-3.088-.136 2.026-.408 3.088.136 3.088.136zm-14.105-11.066s-2.99 7.41.345 13.376c0 0 1.445 2.432-.407 2.408 0 0 2.63 2.15 4.484.112 1.059-1.166-7.781-2.409-4.422-15.896zm20.194 25.974s-.111-1.124.531-1.223 1.149.532 1.149.532-.136-.927-1.223-.902c-1.087.024-.457 1.593-.457 1.593zm-63.337-11.029c-.889 2.026-4.249 3.804-4.249 3.804 2.644-.741 3.805-1.901 3.805-1.901l.074.963c-1.433 1.335-4.25 2.026-4.25 2.026 1.211.79 3.804-.346 4.299-.643.494-.296.692.05.692.05-.865-1.927.025-4.595.025-4.595.024-.691-.396.296-.396.296zm68.141 8.645c.865 1.409.568 3.706.568 3.706-1.259-1.927-2.025-2.026-2.025-2.026-.753.444-1.371-.692-1.446-1.335-.073-.642-.728-1.654-1.42-1.654-.691 0-1.716-.506-1.716-.506l-3.668-1.693c.815.619 3.828 2.521 3.828 2.521 2.297-.396 3.261 2.258 3.162 2.678-.021.091-.034.306-.21.359-.117.034.654.975.568 2.729-.01.198-2.224-2.153-2.433-2.137-.174.015-.308.027-.457.037-.309.021-.532-.269-.543-.234-.037.111.222 2.767.222 2.767-.617.024-2.817-2.372-2.817-2.372-.246.247-1.173.211-1.173.211l.186 2.371c-1.445-.333-2.409-2.074-2.409-2.074-.482.11-1.074-.408-1.111-.705-.037-.296-.778-.926-.778-.926s-2.26-2.075-2.965-2.631c-.704-.555-3.556-.518-3.556-.518s-5.225.147-6.3.259c-1.074.111-.622-.062-2.186-.062-1.952 0-1.067.186-5.558-5.261-1.37-1.662-2.544-2.248-4.026-4.422h-14.155c-2.334 1.445-7.312 6.41-8.386 7.373-1.075.964-2.112.631-2.594.557-.482-.075-1.26-.594-2.409-.594s-1.371-.408-1.371-.408-1.481.075-2.482 1.298c-1 1.223-3.446 1.482-3.446 1.482-1.631.63-2.186-1-2.186-1 .518 0 1.333-.704 1.333-.704-3.075-.037-2.816-1.15-2.816-1.15-1.556-.222-1.704-1.927-1.704-1.927.816.52 2.335.371 2.335.371.852-1.186 1.519-.851 2.519-.778 1.001.074.37.297 1.963-.444 1.594-.741 2.742-3.149 3.262-3.706.518-.555 1.333-1.148 2.334-.815 1 .333 1.111 1.223 1.111 1.223 2.335-3.224 2.779-5.335 2.558-6.744-.223-1.408.443-2.742.666-3.113.222-.37 1.668-2.037 2.483-2.481a6.691 6.691 0 0 1 3.705-.816c1.631.111 2.372-.037 4.706-.815s9.474-8.949 11.857-10.413c2.192-1.345 7.596-3.557 9.226-3.89 1.631-.334 4.002-.482 6.114.63s3.31 1.495 5.707 1.495c2.396 0 4.47 1.086 4.47 1.086s3.663 1.624 5.016 2.143c1.352.519 1.315.66 1.315.66 1.409-.26 5.033-.296 3.786.953-1.113 1.111-1.415 1.462-1.415 1.462s.201.639.794 3.406c.37 1.726.328 4.598-1.899 7.062-2.446 2.705-2.104 4.846-3.001 5.966-3.002 3.742-7.115.408-7.115.408-2.779 1.927-6.207 2.139-6.207 2.139-.074.259 2.279 2.826 4.392 3.271 1.169.246 4.088-.557 5.273.37 1.186.927 4.373 2.717 7.164 3.483s3.829 1.556 3.829 1.556c1.852.717 1.531 2.322 1.531 2.322zm-12.814-27.138c.343-.167-1.482-1.668-1.482-1.668s1.258 1.777 1.482 1.668zm-47.465 2.186s-2.446-1.557-1.519-4.076c.925-2.52 3.816-2.853 3.816-2.853s-3.52.222-4.335 3.001c-.816 2.779 2.038 3.928 2.038 3.928zm10.67-10.745s3.373-6.3-6.669-8.486c0 0-1.296-.297-1.63.037 0 0-.889.519 1.334.815 3.093.413 9.004 1.816 6.965 7.634zm-13.726 6.329c1.055-3.834 6.212-3.919 6.212-3.919s6.614.238 7.334-3.627c.389-2.088-.483-5.165-7.057-5.772 0 0-3.261-.035-2.826-1.42.447-1.424 3.809-.607 3.809-.607s5.28.666 7.245 4.395c1.184 2.248.709 7.146-4.204 8.265-3.053.694-6.84-.03-8.333 3.08-1.495 3.112 3.813 5.082 3.813 5.082s-1.277.04-2.554 1.002c0 0-4.563-2.392-3.439-6.479z" fill="#55565b"/><path d="m68.336 48.74c-.237.002-.302 2.356-.557 2.353-.219-.004-.276-2.372-.5-2.381-.687-.026-1.55-.084-2.114-.187 0 0 2.593 1.685.129 5.669 0 0 2.081-.747 4.502.167 0 0-1.989-2.843.574-5.688 0 0-.985.061-2.034.067z" fill="#e22726"/><path d="m71.698 42.948c-.65-.025-.846-.291-1.099-.339-.091-.018-.211.048-.211.048s.248-.241.84-.611c0 0 .2-.128.459-.214-.073.252-.133.666.075 1.071 0 0 .299-.527.102-1.118.318-.067.674-.028.859.372 0 0 .284.839-1.025.791zm-6.472-1.001s-.283-.224-.638-.349c.224.607-.088 1.156-.088 1.156-.248-.482-.117-.973-.034-1.195-.275-.073-.577-.073-.822.141 0 0-.382.457.075.853.278.24.754.387 1.729-.036 0 0 .321-.05.42.122 0 0 .038-.161-.642-.692z" fill="#fae01a"/><path d="m68.369 71.494s-.234-.778.197-.951l1.927 3.039s-1.556-.52-2.124-2.088zm5.904 1.877s-2.087-1.654-2.384-2.457c0 0 .383-.704.853-.729 0 0 .321 2.026 1.531 3.186zm3.224-.592s-1.407-1.482-2.087-1.927c0 0 .024-1 .333-1.037 0 0 1.606 2.396 1.754 2.964zm2.927-1.298s-.778-1.259-1.717-1.617c0 0-.074-.742.099-1.458 0 0 1.384 1.84 1.618 3.075zm-75.305-5.137c.444 0 1.018-.464 1.018-.464-.259.482.482 1.168.482 1.168-1.105.296-1.5-.704-1.5-.704zm91.873-1.468s.477-1.151-.177-1.776c0 0 1.163-.31 1.417-.607 0 0 .086 1.312-1.24 2.383zm-3.747-.014s.481-1.425-.069-1.98c0 0 1.041.126 1.275-.126 0 0 .067.861-1.206 2.106zm-89.96-.908s-1.019.074-1.297-1.094c0 0 .999.353 1.722.223 0 0-.37.574-.425.871zm22.689-1.207s-.26.308-.569.382c0 0 .296.21.964-.111 0 0-.352-.124-.395-.271zm-3.396.271c.617 0 1.395-.358 1.395-.358-.185-.186-.309-.507-.309-.507-.173.198-1.086.865-1.086.865zm60.212-1.921s-1.467-.457-.902-2.786c0 0 1.04.393 1.235 1.163 0 0-.859.613-.333 1.623zm-17.539-6.674c.098.099.142.321.734-.05.594-.37 3.174-.184 3.441.136.345.414.629.087.629.087.519-1.248-.408-2.038-.408-2.038.094 1.593-.753 1.124-.753 1.124-1.5-.445-2.507-.05-2.507-.05-.827.346-.703-1.21-.703-1.21-.897.827-.433 2.001-.433 2.001zm-.322-5.67c.062-.408 1.074-.371 1.074-.371.41-.004.99.018 1.619.018.182 0 .312-.467.312-.467s.056.467.26.485c.871.08 1.72.05 1.72.05 1.105 0 .845.482.845.482-.247 1.507-.707 1.969-.707 1.969.171-1.385-.121-2.093-.121-2.093-.041.185-.406.742-.406.742-.058-.241-.075-.519-.236-.753-.028-.043-2.648-.115-2.704-.05-.209.236-.297.876-.297.876-.112.034-.333-.975-.333-.975-.383.025-.47 2.136-.47 2.136-.617-.851-.556-2.049-.556-2.049z" fill="#fff"/><path d="m74.131 67.371-4.891-3.205s3.835 3.354 4.076 3.762c.241.407-.556 1.537 1.037.611 1.594-.927 2.89 1.011 2.89 1.011-.943-2.607-3.112-2.179-3.112-2.179zm4.336-1.352c-.372-.371-2.076-1-3.52-1.482-1.446-.482-5.108-1.748-6.597-3.001-1.388-1.171-2.643-1.272-4.52-.952-1.877.321-3.187-.716-3.187-.716-8.641-5.849-4.792-16.255-2.371-18.971 1.598-1.793-.466-4.14-2.095-4.915-.028-.019-.084-.039-.11-.051 0 0 2.441 1.631.872 4.357-.355.561-.835 1.118-1.375 1.669a11.12 11.12 0 0 1 -.516.459c-3.019 2.525-4.096 3.822-4.457 4.982a2.402 2.402 0 0 0 -.131.579l.004-.006c-.059.424-.048.853-.028 1.343 0 0 .523-3.639 4.464-6.009l.806-.487c-4.02 11.353 1.32 15.532 3.011 16.791 1.742 1.296-.185 1.63-1.408 1.557-1.223-.075-2.316-.566-2.316-.566 2.705 2.186 6.91.417 9.874.491 2.965.075 2.705 1.149 3.891 1.594 1.186.444 8.226 3.779 8.226 3.779-1.408.556-6.771-2.4-6.771-2.4 5.335 3.52 6.623 2.882 7.994 2.659 1.371-.222 1.814.959 1.814.959-.037-1.37-1.554-1.663-1.554-1.663zm-39.031-3.68c-.642 1.037.037.679.037.679 1.68-.63 1.759-4.866 1.759-4.866l-1.413-.001c.181.337.26 3.15-.383 4.188zm56.786-3.502c-1.631-.927-3.676-3.859-4.231-5.156-.556-1.298-1.334-2.742-3.261-2.854 0 0-.63-.037-1.445-.927-.815-.888-1.741-.888-4.149-2.593-2.409-1.705-3.978-3.545-6.436-6.904 0 0 .84 2.198 2.199 4.05 1.358 1.854 4.051 3.781 5.557 4.274 0 0-3.632-.693-4.886-1.714 0 0 .489 1.27 7.703 4.036 0 0 .79.322 1.852.593 1.063.272 1.409.519 1.779 1.26.371.741 2.767 5.293 4.731 6.404 1.964 1.112 2.58 1.774.912 3.589 0 0 1.706-.544 2.039-1.359.334-.815-.735-1.772-2.364-2.699zm-2.119.133c-1.828-1.037-3.495-4.561-3.495-4.561.741 2.322 1.645 4.903 3.004 5.052 1.359.148 1.666 1.509 1.666 1.509.194-.973-.194-1.443-1.175-2zm-17.277-22.14c.094-.139.488-.445-.064-.695-1.17-.529-3.374-.226-3.813-.164-.364-.27-.976-.6-2.004-.91 0 0-3.206-1.352-3.854-1.631-.648-.278-2.563-1.398-5.577-1.333 0 0-.092.003-.249.002-1.438-.068-2.451-.334-3.69-.899-1.715-.88-4.12-2.411-8.8-.758-5.028 1.774-7.685 3.055-9.673 5.031-.247.244-.337.338-.337.338s6.928-5.153 14.838-1.359c0 0-2.05-2.151-7.015-1.904 0 0 6.07-4.286 16.384 2.543 0 0-.71-.944-1.192-1.574 0 0 3.079-.534 6.9 2.16-.353.123-1.15.498 1.042.848 2.667.425 3.242 1.519 3.242 1.519-1.519 1.13-1.663 1.657-1.663 1.657 5.317-3.834 3.46 2.789 3.46 2.789 2.205.333.155 4.011-1.297 6.281-1.446 2.26.29-2.992.29-2.992-.928.714-1.553 3.148-2.003 5.286-.16.705-.303 1.414-.428 2.126-.095.461-.178.84-.254 1.094a4.59 4.59 0 0 1 -1.489 1.92c.489-.24.927-.574 1.287-.983.107-.113.212-.23.315-.359.417-.52.569-1.264.855-2.178 1.421-4.053 2.794-3.648 3.7-6.23.988-2.817.612-3.724.098-5.984-.261-1.152-.321-1.704-.505-2.074l.005.008zm-9.958 8.031c.495.223 1.43.623 2.508.161.95-.407.741.112.741.112s.445-.594-.716-.309c-1.161.284-1.606.172-1.952.024-.524-.224-1.359-.259-1.025.198 0 0-.049-.408.444-.186zm.495-8.669c-.47-.285-3.125-1.322-5.034-.223 0 0-1.321 1.056 1.625.519 1.111-.203 2.673-.149 4.731 1.444 0 0-.295-1.12-1.322-1.74zm7.806 1.361a2.81 2.81 0 0 1 -.304.263c-.246-.228-.586-.506-1.086-.995a3.108 3.108 0 0 0 -.328-.278c.758-.071 2.422-.211 2.474.105.009.054-.015.081-.015.081s-.417.518-.741.824zm-53.729-14.047c-.792.193.347.396 1.581.594 1.236.197 2.817.691 2.817.691 8.226 2.792 4.871 9.501 4.871 9.501 1.756-2.214 1.944-5.399-.302-7.797-2.611-2.79-8.003-3.222-8.967-2.989z" fill="#898b8e"/></g></svg>