<svg clip-rule="evenodd" fill-rule="evenodd" stroke-linejoin="round" stroke-miterlimit="1.414" viewBox="0 0 100 100" xmlns="http://www.w3.org/2000/svg"><path d="m45.415 24.206.062-.001a2.33 2.33 0 0 1 2.32 2.32c0 .808-.422 1.56-1.112 1.981a29.01 29.01 0 0 0 -2.68 2c1.59-.09 3.02-.15 3.76-.15a2.336 2.336 0 0 1 2.25 1.75c.043.184.066.371.07.56a2.332 2.332 0 0 1 -1.23 2 24.997 24.997 0 0 0 -4.3 3c-.48.4-.99.81-1.53 1.23 3.02.256 6.024.67 9 1.24a3.248 3.248 0 0 1 1.41-.88c4.01-1.33 13.91-2.74 20.19.67a6.095 6.095 0 0 1 7.19-1.27 5.324 5.324 0 0 1 3 4.33c.046.331.069.665.07 1a5.821 5.821 0 0 1 -1.53 4.25 9.367 9.367 0 0 1 -2.2 1.42l.88 2a14.92 14.92 0 0 0 2.17 4.14 4.105 4.105 0 0 0 2.14 1.48 4.87 4.87 0 0 1 2.59 1.71 19.46 19.46 0 0 1 1.69 3.12 22.39 22.39 0 0 0 2 3.76 17.386 17.386 0 0 0 3.06 1.53c2.21 1 4.3 1.83 4.49 4 .036.105.066.212.09.32a3.562 3.562 0 0 1 -1.32 2.77c-2.3 1.9-6.73 1.28-8.11.9-1.89-.53-6.67-3-8.67-5-.34.86-1.29 2-3.9 2h-.27c-3.22 0-3.59-.03-6.12-1.14l-1-.46a20.321 20.321 0 0 1 -5.32-3.7 16.747 16.747 0 0 0 -1.34-1.11l-1.18-.1a15.04 15.04 0 0 1 -3.87-.58 2.194 2.194 0 0 1 -.95-.56c-3.82.94-10.09 1.94-14.29.94a8.326 8.326 0 0 1 -7 3c-1.94 0-3.45.09-5 .18s-3.18.2-5.27.2c-.99.44-1.67.79-2.29 1.13l-1.74.88a6.002 6.002 0 0 1 -2.23.51 1.339 1.339 0 0 0 -.88.27c-.56.33-5.09 2.65-7.46 2l-1.73-1.36a3.73 3.73 0 0 1 -.52-1.71c.026-.837.32-1.644.84-2.3a5.01 5.01 0 0 1 -2.17-.23 3.397 3.397 0 0 1 -2.28-3.18c0-1.66 1.29-3.23 3.7-4.51a4.762 4.762 0 0 1 -3.15-2.91 8.693 8.693 0 0 1 -.28-.95 3.67 3.67 0 0 1 -1.28-2 3.662 3.662 0 0 1 -.19-1.17c0-2.28 2-4.76 4-7.14l.09-.1c.501-.691.943-1.424 1.32-2.19a18.142 18.142 0 0 1 2.78-4.17 15.262 15.262 0 0 1 6-3.69 5.993 5.993 0 0 0 2.33-1.25l1.57-1.81c1.9-2.24 4.5-5.3 8.2-6.82 4.5-1.86 6.78-1.93 14.31-2.15z" fill="#231f20"/><path d="m17.475 63.986c-1.07.11 4.22-1.16 4.25-1.17 3.7-.91 1.07-.91-.48-1.26a22.072 22.072 0 0 1 -3-.88 3.275 3.275 0 0 0 -2.08 0c-.58.39-2.75.44-4.69 1.22-1.68.66-4.3 2.09-3.85 3.46s3.23.83 5.34-.51a21.554 21.554 0 0 1 4.51-.86zm59.38 3.7c-1.39-.41-3.78-.93-5.91-1.7a15.39 15.39 0 0 1 -4.59-2.92c-1-.77-2.67-1-3.82-1.41s-1-.58-1.74 0a20.349 20.349 0 0 1 -2.17 1.44c2.47.68 3.26.37 5 .64 1.26.19 3.72 3.55 7 5s2.77 1.42 6.53 1.42c3.08-.05 1.73-1.84-.3-2.43zm13.34 0c-1.35-1-3.19-6.08-4.11-7.3s-2.36-.43-4.64-3.07c-1.8-2.07-2.54-5.16-3.52-7-1.36-2.54-3.49-2.93-2.81-3.6 2.85 1.69 4 1.26 5.75-.25.74-.62 1.46-4.64-1-5.79-3.71-1.69-5.63 2.31-5.72 2.31-4.74-4-15.12-3.17-19.92-1.56-1.17.39-.09.53.87.64.64.06 1.63 1.09-1.93.58-1.39-.2-7.84-1.51-11.51-1.51-3.16 0-5.51.25-7.06 1s-5 1.88-6.29 2.33c-.81.26-1.06-.44-.19-.73 13.61-4.6 13.85-8.07 19.68-11.19-1.93 0-9.24.48-10.78.48a15.623 15.623 0 0 0 -10.25 5.45c-.41.54-1.06.08-.57-.58 2.49-3.45 7.32-5.61 12.08-5.89.58-.19 4.84-4.13 7.26-5.59-8.12.25-10.06.25-14.32 2s-6.91 6-9 8.12-4.78 1.46-8.31 5c-1.58 1.56-2.78 4.83-4 6.23s-4 4.58-3.43 6.18c.39 1.16.39.73 1.35.92-.3.38 0 1.43.19 1.94a2.764 2.764 0 0 0 2.46 1.61c1.21 1.66 4.55 1 6.82 1.31 1.83.25 4 1.37 8.12 1.37a5.87 5.87 0 0 0 5.21-3.59c.48-1.17.68-1.07-.15 1.12a5.123 5.123 0 0 1 -5.47 3.16c-.42 1.13-3.22 1.44-5.85 2.43a22.284 22.284 0 0 0 -6.44 4.23c-.93 1.13-2 1.74-1.39 3 .42.82 4.55-.71 5.9-1.56 1.54-1 2-.34 3.38-.92s2.12-1.22 4.44-2.19c4.45 0 6.68-.39 10.74-.39 3.34 0 4.84-1.21 6.24-3.6 1.51-2.58 1.39-.6.87.64 5.23 1.48 15.5-1.21 16.1-1.6 1.1-.74 2.29-.59.19-2-1.16-.78-1.29-2.2 0-1.12a16.315 16.315 0 0 0 3.87 2.38c.77.39 3.77 1.07 4.25 1.6 2.32 2.45 7.41 3.87 10.32 4.3s3.68.19 5 1.74 6 4 7.74 4.48c2.13.59 6.67.59 6.48-1.56-.1-1.4-4.22-2.17-6.65-3.92zm-70.51-22.75c.05.12.08.16.12.27a2.006 2.006 0 0 1 -.6 2.38c-.28.222-.627.344-.984.344a1.584 1.584 0 0 1 -1.446-.944c-.48.17-.75.57-1.12 1.15-.16.26-.31.23-.41.16s-.17-.36 0-.85a6.311 6.311 0 0 1 4.23-3.29c.24-.06.52-.06.61.12.25.52-.46.56-.4.66zm-1.06.42a.552.552 0 0 0 -.55.55c0 .302.248.55.55.55s.55-.248.55-.55a.552.552 0 0 0 -.55-.55z" fill="#fff"/></svg>