<svg clip-rule="evenodd" fill-rule="evenodd" stroke-linejoin="round" stroke-miterlimit="1.414" viewBox="0 0 100 100" xmlns="http://www.w3.org/2000/svg"><path d="m50.903 94.15c-2.965 0-7.226-2.871-10.337-5.346a40.64 40.64 0 0 1 -5.117.348c-3.566 0-6.588-.584-8.744-1.68a5.758 5.758 0 0 1 -1.786-1.389c-1.58.104-8.411.895-19.432 2.248l-2.08.252 1.192-1.089c1.418-1.3 7.312-6.71 8.038-7.476.391-.727 5.432-12.325 6.972-15.916l-10.162-5.22 1.672-.198c.193-.021 4.559-.487 6.273-.666-2.517-6.34-3.777-12.692-3.777-18.919 0-3.863.261-7.691.791-11.393l.201-1.458 1.189-.801a53.024 53.024 0 0 1 5.499-3.385 582.208 582.208 0 0 1 -2.871-6.981l-.355-.863.824-.426c9.456-5.053 20.756-7.942 31.015-7.942l.834.007c20.395.315 31.409 7.304 31.519 7.376l.37.243s-2.726 6.231-3.467 7.899a52.939 52.939 0 0 1 6.85 4.072s1.177.78 1.185.791l.115.852.086.616c.533 3.72.791 7.559.791 11.393 0 5.159-.849 10.419-2.553 15.65l-.906 2.521.104.022c.347-.201.952-.329 1.568-.409 0 0 .687-.061.741-.061.716 0 1.579.05 2.303.287l2.799.813.552.175-3.205 7.638c.079.032.104.347.104.684 0 .78-.136 1.603-.415 2.456-.451 1.432-1.285 2.943-2.385 4.375-1.267 1.658-2.674 2.879-4.214 3.638.583.838 1.067 1.923 1.361 3.044l.475 1.851-.812-.168c-.118-.033-3.874-.963-3.874-.963-.627-.173-2.156-.38-2.327-.398a15.524 15.524 0 0 0 -2.342-.182c-1.4 0-3.043.171-5.199.537-.609.837-1.526 1.797-2.424 2.699-4.999 5.002-12.36 10.842-16.639 10.842" fill="#fefefe"/><path d="m91.463 58.733-2.251-.648c-1.619-.523-3.857.035-4.419.239a5.053 5.053 0 0 0 -1.421-.264c.271-.674.537-1.365.784-2.059l.089-.233v.003c1.805-5.101 2.965-10.713 2.965-16.671 0-3.777-.276-7.565-.78-11.242l-.148-.996-.827-.58a53.495 53.495 0 0 0 -7.576-4.425c1.06-2.507 2.166-5.139 3.355-7.896 0 0-10.917-6.817-30.471-7.079-10.645-.143-22.163 2.915-31.347 7.813a373.996 373.996 0 0 0 3.237 7.835 54.313 54.313 0 0 0 -6.227 3.752l-.82.58-.147.996a80.925 80.925 0 0 0 -.78 11.242c0 7.187 1.718 13.868 4.214 19.79-3.258.344-5.79.602-5.79.602l7.892 4.121c-.401.978-7.151 16.575-7.498 17.058-2.424 2.595-6.771 6.438-6.771 6.438s18.164-2.274 18.744-2.088a4.783 4.783 0 0 0 1.762 1.518c3.104 1.583 7.971 2.037 13.692 1.207 3.831 3.076 7.645 5.381 10.022 5.381 3.695 0 10.66-5.299 15.909-10.552a76.123 76.123 0 0 0 2.807-2.96c3.566-.613 5.865-.709 8.027-.394 2.235.322 5.382 1.092 5.382 1.092-.028-.011-.666-3.044-2.159-3.828 1.926-.537 3.681-1.837 5.231-3.874 1.035-1.328 1.808-2.739 2.228-4.064.371-1.146.461-2.202.271-3.072z" fill="#002e5a"/><path d="m50.945 90.815-6.964-3.628c-.366.079-.735.147-1.1.219 3.43 2.625 6.417 4.25 8.064 4.25 2.749 0 9.009-4.253 14.866-10.122.404-.391.838-.838 1.311-1.332-.541.14-1.082.29-1.633.461zm7.475-7.759a154.64 154.64 0 0 1 -10.53 3.179l3.299 3.997zm26.436-19.484c.028-.046.196-.151.382-.176 0 0 .709-.175 1.193.509.354.498.884 1.493.884 1.493l2.324-5.553-1.128-.33c-1.622-.554-3.678.151-4.333.494l.072-.189s-.795-.33-1.49-.283c-.061 0-.136.018-.196.025a4.869 4.869 0 0 0 -1.343.426l.526-1.286-.301.176-1.239.716-.164.093c-1.07.62-2.091.97-3.047 1.106-.19.018-.398.025-.619.025-1.057.007-2.375-.204-2.375-.204l.538.849c-.505-.472-1.178-.659-1.848-.702a4.244 4.244 0 0 0 -.906.022c-.809.104-1.604.379-2.41.809-.358.193-.705.408-1.06.652l.209-.512-2.114.254 2.357-5.704-2.521.304s-.48 1.522-2.693 4.207c-.669.828-1.457 1.483-2.323 2.067 0 0-.831-.258-2.51-.226-1.157.025-2.55.673-3.685 1.701-.34.3-.684.67-.973.991-.252.284-.463.541-.556.67a3.818 3.818 0 0 0 -.168-.691 2.82 2.82 0 0 0 -.365-.763c-.623-.905-1.716-1.303-3.166-1.139-.239.043-.472.094-.705.141-1.464.361-2.703 1.141-3.662 1.944-1.329 1.099-2.103 2.227-2.128 2.252-.028-.795-.218-1.464-.573-1.994a.137.137 0 0 1 -.036-.04c-.63-.877-1.711-1.249-3.128-1.092-1.297.143-2.689.823-3.617 1.482.423-.741.762-1.482.985-2.202a7.538 7.538 0 0 0 .365-1.74 5 5 0 0 0 -.072-1.292c-.132-.605-.398-1.089-.798-1.429a2.147 2.147 0 0 0 -.62-.386c-.472-.18-.848-.234-1.557-.227-.38.004-.867.029-1.522.069-.068 0-14.623 1.5-14.623 1.5s3.616 1.794 4.028 2.002a3.1 3.1 0 0 1 .247.118s.187.121.112.566a2.281 2.281 0 0 1 -.141.469s-.218.5-.561 1.325c-1.214 2.857-4.122 9.717-6.099 14.332-.407.91-.748 1.537-1.285 2.256-1.084 1.468-3.838 3.789-3.838 3.789l11.823-1.314-.512-1.211c-.046-.114-.473-1.139-.036-2.488.136-.42.842-2.074 1.247-3.009l.085 1.798c.075 1.873.609 3.201 1.643 3.882.788.519.656.458 1.684.791 0 0 .45.906 1.582 1.476 2.617 1.331 6.577 1.753 11.275 1.284a42.519 42.519 0 0 0 2.001-.25c.362-.05.734-.107 1.121-.175.87-.154 1.777-.33 2.7-.541.401-.093.806-.2 1.196-.29 5.715-1.436 9.968-2.886 13.438-4.068.437-.154.885-.308 1.321-.454 2.106-.716 4.211-1.43 6.213-1.962.48-.134.959-.241 1.439-.352.25-.057.498-.111.741-.157a68.391 68.391 0 0 1 1.572-.261c3.262-.484 5.335-.473 7.169-.187l2.098.337s-1.93-1.604-5.511-2.127a16.585 16.585 0 0 0 -1.973-.186 14.787 14.787 0 0 0 -.788 0l.866-.097 3.964-.466-.293-.357s1.525.39 2.303.432c.314.026.669.004 1.009-.032 1.955-.232 3.66-1.332 5.199-3.358.895-1.145 1.546-2.341 1.901-3.441.523-1.618.24-2.871-.558-3.587-.684-.62-1.923-.832-1.643-1.304zm-15.879-12.557c.053-3.651-1.751-8.095-2.339-9.875-.05-.161-.111-.347-.161-.551l-4.851-13.766-14.164.632-.585 6.579-.063 3.199 12.077 11.731-16.334 10.062-3.872 1.568c.05.412.05.852.015 1.31 5.32-.859 11.658-1.167 18.859-.44a8.624 8.624 0 0 1 1.414-.301s1.074-.143 2.316.122a9.378 9.378 0 0 0 1.368-1.311c.294-.333.569-.662.803-.978 1.216-2.509 1.202-6.04-.366-9.033 0 0 2.069 1.236 2.528 4.425 0 0 .966-2.842-1.751-6.763 0 0 2.524 1.16 3.606 5.424 0 0 .777-3.394-2.736-7.79 0 0 3.108 1.907 4.236 5.756zm1.101 8.805c.985-.404 2.521-.874 4.315-.684 0 0 1.74.276 2.707.187l7.087-14.376-2.837-14.821c-10.033 2.618-13.517 10.936-13.517 10.936 3.204 6.888 3.273 12.814 3.154 14.272a18.34 18.34 0 0 1 -.909 4.486zm-31.956-.906 6.424-.254-2.806-3.847-4.896 2.945c.541.265.963.652 1.278 1.156zm-16.829-.279-3.545-30.46 9.515-4.966 26.18-4.984c.486-.265.977-.523 1.479-.756a56.71 56.71 0 0 0 -3.978-.136c-12.382 0-24.341 3.609-33.672 10.158a.8.8 0 0 0 -.351.566 79.632 79.632 0 0 0 -.77 11.042c0 7.137 1.751 13.768 4.279 19.622.283-.021.569-.05.863-.086zm-2.594-30.346-.348 19.26 6.075 10.762c1.418-.147 2.779-.29 4.007-.419 3.974-3.885 7.358-5.646 7.358-5.646.655-.767 1.357-2.048 1.357-2.048-.236-.613-.473-1.612-.473-1.612 6.359-.938 7.845-4.161 7.845-4.161-.784-.841-1.755-1.403-2.821-1.539-1.075-.14-2.618.157-3.832.136-1.217-.029-2.896-.86-3.831-.659-.931.215-2.237.931-3.24 1.869-.781-10.015 8.894-9.994 8.894-9.994-2.278-4.51-6.713-7.543-9.711-9.18zm13.452 29.213 14.328-7.963-.432-2.209c-1.941.966-10.298 5.228-15.808 9.857 0 0 .769-.269 1.264-.219 0 0-.362.233-.975.702.656-.068 1.2-.118 1.623-.168zm27.676-38.694 24.305 9.367.762 10.924-3.835 18.526 1.182-.691c2.098-5.396 3.491-11.405 3.491-17.835a80.09 80.09 0 0 0 -.766-11.042.8.8 0 0 0 -.352-.566c-6.924-4.863-15.299-8.093-24.218-9.446-.198.255-.394.512-.569.763zm18.769 9.437-3.238-3.151-4.944-.594c-2.574 1.003-4.289 2.617-4.289 2.617 4.812-1.134 9.428-.01 12.471 1.128zm-29.522-7.031-6.694-.718-7.392 2.88c6.706.394 10.634 2.188 10.634 2.188.795-1.654 2.016-3.09 3.452-4.35zm9.158.416c-.562 1.303-.72 2.195-.72 2.195 2.284-.806 4.719-1.071 6.964-1.071l-2.962-1.487z" fill="#fefefe"/><path d="m47.516 44.947c.741-.279 1.543-.899 1.393-2.224-.239-2.202-.927-3.774-1.762-4.905l-2.05-2.327-3.585-.53c-9.922.128-9.582 7.132-9.582 7.132s1.519-1.196 4.247-1.847l1.221-1.486 1.489.655s-.272-.276 1.038-.537c1.211-.24 2.912.061 3.513 0 .591-.054.831-.204 1.095-.175.273.025.341.143.631.5.687.857.737 1.669.737 1.669s-1.686-1.335-2.109-1.335c-.414 0-4.013.515-8.059 2.194 0 0 1.919.226 2.255.183 1.49-.183 3.326-.702 5.178.033 2.091.823 2.689 1.607 2.865 2.198l.207.594" fill="#ffdd43"/><path d="m58.42 83.056c-3.487 2.882-6.304 4.55-7.465 4.74-.601-.122-1.683-.652-3.065-1.561-.916.24-1.848.472-2.8.698-.372.093-.741.172-1.11.254 3.169 2.339 5.718 3.628 6.965 3.628 2.262 0 8.242-3.778 14.547-10.152-1.532.47-3.111 1.007-4.651 1.541 0 0-.888.329-2.421.852zm16.088-6.393a23.308 23.308 0 0 0 -2.292-.039c-.669.021-1.335.061-2.015.121a37.26 37.26 0 0 0 -1.199.137c-.996.122-1.984.261-2.987.426-.576.096-1.153.19-1.726.297-1.31.229-2.61.458-3.906.652-2.922.447-6.101.988-8.894.841a14.107 14.107 0 0 1 -2.245-.332c-.487-.109-1.354-.359-2.002-.531-1.364 1.422-3.064 2.661-4.948 3.649-.989.523-2.019.963-3.097 1.332-.297.107-.613.201-.917.297-.551.168-1.113.315-1.686.44a22.132 22.132 0 0 1 -5.725.505 20.336 20.336 0 0 1 -2.625-.293c.108.079.24.157.361.214 2.163 1.093 5.529 1.634 9.89 1.318.655-.05 1.325-.122 2.012-.207.373-.047.745-.093 1.128-.151a49.965 49.965 0 0 0 3.616-.683c.094-.019.205-.048.309-.076 7.644-1.861 12.603-3.738 16.929-5.166 1.965-.652 3.805-1.214 5.714-1.634.301-.067.605-.132.917-.185.139-.033.275-.051.418-.083.828-.129 1.555-.24 2.203-.308 2.528-.293 3.96-.172 5.692-.011.291.022-1.088-.4-2.925-.53zm-40.906 6.312a22.178 22.178 0 0 0 1.714-.265c.2-.047.405-.079.605-.115.33-.079.709-.168 1.082-.289.236-.079.472-.173.691-.284-.316.032-.62.05-.924.05-.462.011-.899-.011-1.329-.046a9.193 9.193 0 0 1 -.93-.122c-.77-.136-1.687-.34-2.102-.53-1.121-.501-1.762-.788-2.228-1.908-.343-.838-.429-1.815-.393-2.847.025-.691.1-1.41.175-2.119.05-.391.104-.781.147-1.168.046-.433.1-.862.129-1.285.035-.541.09-1.082.169-1.625l.734-.391c.071-.032.132-.071.2-.107 1.328-.748 2.292-1.626 3.094-2.764.107-.151.211-.305.314-.452.67-1.003 1.139-1.958 1.439-2.871.18-.541.277-1.064.312-1.526.04-.475 0-.905-.11-1.275-.179-.557-.52-.962-1.036-1.18-.028-.011-.053-.018-.082-.033-.533-.179-.952-.19-2.728-.083-.014 0-11.179 1.132-11.179 1.132l1.543.859c.53.237.602.63.448 1.196-.064.248-6.932 16.421-6.932 16.421-.813 1.837-1.539 2.868-3.183 4.429-.158.139-.276.247-.433.387l8.325-.924a1.428 1.428 0 0 1 -.112-.326c-.275-.981-.282-1.69.087-2.732.586-1.761 2.682-6.37 2.682-6.37.007 1.529.139 3.18.2 4.937.05 1.336.391 2.693 1.4 3.406 2.109 1.468 5.406 1.12 8.211.82zm37.162-13.06 2.187-.254c.183-.344.884-2.173 1.05-2.682.368-1.135.543-2.062.557-2.828.022-1.598-.698-2.439-2.137-2.532a3.75 3.75 0 0 0 -.777.011c-.991.136-1.969.548-2.928 1.214-.527.361-1.043.802-1.562 1.303-.268.279-.523.565-.762.859l.944-2.299-2.108.248 2.353-5.697-.903.107c-.537 1.203-1.361 2.489-2.603 3.91a13.134 13.134 0 0 1 -3.04 2.6l-.168.103.107-.254s-.877-.38-2.392-.236c-1.282.115-2.169.576-3.14 1.432-.154.144-.311.29-.468.451-.112.105-.212.208-.32.316-1.066 1.221-1.746 2.399-2.091 3.458-.379 1.186-.282 2.188.251 2.753.763.803 1.601.939 1.837 1.382.043.141.043.241-.047.52-.318 1.003-1.489 2.112-3.279.634-.402-.326-.656-.774-.788-1.074.204-.358.416-.728.609-1.121.49-.921.877-1.841 1.135-2.664.604-1.865.627-3.365.061-4.293-.473-.795-1.361-1.179-2.671-1.024a5.097 5.097 0 0 0 -.627.129 7.067 7.067 0 0 0 -2.303 1.02c-.952.616-1.855 1.476-2.742 2.603-.927 1.171-1.439 1.93-2.145 3.366.118-.294.1-.326.193-.601.77-2.385.584-4.19-.551-4.953-.498-.332-1.189-.465-2.062-.364-.716.096-1.576.418-2.457.92-1.175.658-2.359 1.65-3.215 2.832a25.548 25.548 0 0 0 -1.372 2.098c-.837 1.44-1.321 2.574-1.489 3.033-.021.064-.043.121-.046.157-.101.28-.169.544-.236.813-.173.72-.27 1.4-.255 2.002.032 1.675.816 2.775 2.449 2.789.165.004.343 0 .534-.029.254-.021.537-.082.823-.164.115-.044.236-.083.355-.119.279-.104.558-.207.834-.34.036-.014.079-.028.111-.046a10.233 10.233 0 0 0 2.413-1.733c1.131-1.086 2.124-2.478 3.029-4.229.173-.33.216-.365.359-.691-.118.29-.097.279-.186.551-1.093 3.384-.38 5.915 2.502 5.572.258-.029.533-.09.831-.168a8.747 8.747 0 0 0 1.296-.509c1.761-.891 3.255-2.346 4.557-4.419l-.666 3.574s1.232.336 1.959.361c.298.018.612 0 .907-.032 1.761-.211 3.183-1.196 4.49-2.91.232-.309.44-.602.626-.893 0 0-.301.752-.355.932-.458 1.421-.175 2.384 1.175 2.22.318-.029 1.034-.226 1.407-.413l2.771-3.358c-.136 2.074.774 3.133 2.905 3.065.196-.003.4-.014.605-.043 1.256-.218 2.925-.937 2.925-.937l3.212-4.262c-.706.534-1.196.816-2.35 1.3-.547.222-1.005.376-1.4.477a3.032 3.032 0 0 1 -.615.128c-.788.093-1.189-.157-1.382-.755-.24-.67-.226-1.243-.05-1.809zm17.385-9.56c-2.088-.591-4.11.437-5.078 1.296-.203.176-.4.373-.601.57l.735-1.78a3.564 3.564 0 0 0 -.793-.029c-.007 0-.021.004-.035.004-.72.1-1.472.516-2.173 1.167a7.33 7.33 0 0 0 -.784.874l.837-2.041c-.193.107-.379.212-.569.305-.984.5-1.937.809-2.836.909-.305.043-.612.054-.92.043-.058-.007-.122 0-.186-.007.035.057.075.118.103.175.212.426.212.874-.071 1.762-.14.412-3.573 8.693-3.627 8.83-.505 1.152-.82 1.636-1.626 2.431-.118.114-.229.222-.35.315l.289-.036 1.171-.136 2.059-.244 1.518-.175c-.057-.071-.086-.168-.125-.269-.133-.425-.118-.859.053-1.496.025-.097.058-.197.093-.308l2.021-4.881c.6-1.46.873-1.919 1.489-2.638.519-.559 1.013-.892 1.475-.945a.973.973 0 0 1 .369.025c.122.028.24.082.354.161a7.569 7.569 0 0 0 -.752 1.64c-.383 1.188-.3 2.216.258 2.746 0 0 .458.483 1.074.816.29.165.595.336.691.42.111.118.111.386.025.669-.082.236-.48 1.099-1.385 1.278-.165.036-.609 0-.895-.093a2.56 2.56 0 0 1 -1.01-.551c-.62-.573-.913-1.387-.913-1.387l-.805 4.297s1.932.448 2.86.341c1.759-.212 3.194-1.196 4.501-2.915.866-1.125 1.414-2.18 1.704-3.09.423-1.293.273-2.309-.372-2.789-.401-.297-1.612-.892-1.919-1.318-.273-.386.064-.948.339-1.203.298-.283.814-.479 1.29-.529.773-.076 1.525.547 1.679.977l1.282-3.091zm-41.876-32.651s-5.733-2.689-13.825-2.55c0 0 6.363 3.334 9.063 9.804.1.257.204.511.3.777 1.82-.344 3.81.548 5.336 2.084 1.568 1.585 2.625 3.859 2.442 6.186 0 0-.835 1.569-2.07.939-.268-.132-.551-.366-.848-.73 0 0-.208.118-.434.526 0 0-.039-.28-.193-.601l-.011.007c-2.284 4.389-7.991 4.815-8.178 5.094 0 0 .165.566.269.792 0 0-.623 1.013-1.744 2.725l1.321-.82s.917-1.314 1.239-2.027c0 0 2.557.115 7.054-3.52 0 0 0 .344.054.939.053.558.182 1.325.433 2.212 0 0-6.857 2.295-14.329 7.96.573-.05.916-.089.941-.089 0 0 2.567-.126 3.524.236.075.032.161.075.225.11 1.55-.557 3.176-1.02 4.844-1.299 0 0 .523.745 1.293 1.39 0 0-2.023.271-4.855 1.066.293.48.484 1.042.562 1.68 2.331-.38 4.855-.595 7.447-.477 0 0 2.343 1.604 9.55-.347-.767-.286-1.583-.824-1.526-1.629.122-1.547 4.419-3.423 4.73-9.181.176-3.326-1.966-8.159-5.278-10.491 0 0 1.232-2.614 5.887-3.508 0 0-5.123-4.716-12.618-.928 0 0 .702-3.108 3.628-5.12 0 0-.645.991-.588 2.209 0 0 1.186-1.901 2.897-2.857 0 0-.681.923-.795 2.252 0 0 1.289-1.701 3.409-2.514 0 0-1.132 1.153-1.4 2.331 0 0 1.21-1.271 2.874-1.536 0 0-.819.358-1.253 1.508 0 0 2.525 0 5.84 2.241.419.282 1.132.905 1.591 1.432 1.077 1.243 2.287 3.753 3.397 6.613v-.003s.011-.297.136-.541c1.286-2.621 5.253-8.554 11.848-10.122 0 0-4.908-3.23-15.092-.984 0 0 1.171-3.041 4.54-4.58 0 0-4.289-1.149-12.424 1.539 0 0-.025-1.983.978-4.458.361-.912.866-1.894 1.56-2.874.179-.255.388-.509.595-.77.064-.076.129-.162.2-.233 0 0-.204.057-.566.194a21.97 21.97 0 0 0 -1.621.669 25.596 25.596 0 0 0 -4.644 2.775c-2.062 1.546-4.189 3.669-5.715 6.499zm18.204-4.952c4.54 0 8.286 1.096 8.286 1.096a12.13 12.13 0 0 0 -2.35.652 51.191 51.191 0 0 1 8.182 3.745c2.216.831 3.602 1.683 3.602 1.683a12.54 12.54 0 0 0 -.845.2 75.46 75.46 0 0 1 .53 8.97c0 7.3-1.897 14.132-4.784 20.227.054 0 .107-.004.14-.008.744-.093 1.576-.387 2.435-.885l1.385-.809c2.349-5.747 3.835-11.994 3.835-18.525 0-3.749-.264-7.401-.762-10.921-6.757-4.744-15.103-8.056-24.305-9.37a15.822 15.822 0 0 0 -1.594 2.821c2.12.272 4.208.641 6.245 1.124zm-40.051 35.558c-2.671-5.872-4.429-12.357-4.429-19.21 0-3.086.182-6.173.562-9.195 2.907-1.922 6.073-3.534 9.42-4.848-1.779-.97-3.043-1.439-3.043-1.439a46.837 46.837 0 0 1 8.049-.244 58.868 58.868 0 0 1 14.09-2.159c1.31-1.145 2.806-2.145 4.368-2.99a65.145 65.145 0 0 0 -2.499-.053c-12.707 0-24.312 3.781-33.196 10.004a78.148 78.148 0 0 0 -.763 10.924c0 6.903 1.684 13.506 4.308 19.535 1.031-.107 2.098-.225 3.133-.325z" fill="#e01f1d"/><path d="m34.37 73.761c-.658 2.342-.275 3.445.502 3.348.38-.064.895-.398 1.428-.963.033-.025.058-.065.083-.083.562-.655 1.472-2.216 2.134-4.285.888-2.689.652-3.771-.594-3.621-.932.277-2.174 1.816-3.251 4.652-.118.34-.223.655-.302.952zm10.735 2.151c.376-.071.927-.38 1.429-.967 1.45-1.647 2.066-3.867 2.227-4.364.844-2.711.641-3.778-.605-3.635-.917.283-2.163 1.823-3.248 4.662-1.063 3.223-.677 4.404.197 4.304zm18.005-5.22c-.28.909-.451 1.7-.509 2.398 0 0-.283.05-.355.039-.848 0-1.027-.282-.716-1.264l1.98-4.812.688-1.668 1.3-.101c.283.007.405.066.508.173-.39.483-.73.97-1.046 1.457-.841 1.275-1.46 2.567-1.85 3.778zm-4.228.066c.101-.853-.108-1.512-.59-1.866-.387-.301-.641-.444-.864-.576 0 0-.673-.304-1.048-.745-.119-.136-.112-.33-.036-.562a1.83 1.83 0 0 1 .372-.645c.415-.455 1.296-.526 1.296-.526.58.007 1.089.226 1.461.68.078.086.161.176.215.298l.333-.82.057-.119.87-.104-.165.384zm-28.917-3.207c.587-.862.806-1.586.873-1.772.301-.945.151-1.583-.573-1.845-.343-.118-.819-.15-1.432-.075-.569.061-.837.216-.837.216l-.234.522-.118.308-1.335 3.066-.168.4-.219.505-.688 1.593s.785 0 1.437-.279c.039-.018.068-.028.097-.043.261-.118.512-.251.741-.376a7.57 7.57 0 0 0 2.301-2.002c.047-.078.105-.146.155-.218zm41.148-.786c.577-1.809.301-2.632-.505-2.528-.752.096-1.721.995-2.409 2.026-.287.455-.537.91-.735 1.379l3.474-.404a8.47 8.47 0 0 0 .175-.473zm-43.246-49.887c1.214-.212 2.005-.43 2.162.072.111.315-.082.587-.483.734-.54.196-.713.014-.852-.394l-.093-.319-3.062 1.11.527 1.547c.963.072 2.345-.172 3.971-.755 2.524-.914 3.537-1.93 3.129-3.151-.415-1.236-1.317-1.193-3.326-.813-1.296.243-1.844.379-1.973-.029-.096-.265.079-.469.502-.626.407-.148.698-.036.819.318l.09.257 2.953-1.066-.465-1.4c-1.257-.025-2.578.225-3.995.745-2.511.909-3.417 1.883-3.023 3.101.351 1.048 1.289.988 3.119.669zm43.184-1.101-.23.702c-.086.279-.211.4-.623.361l-.329 1.006 4.085 1.418.326-1.003c-.362-.229-.383-.393-.304-.68l.236-.702 2.703-1.493c.147-.075.294-.114.476-.121l.327-.992-3.148-1.099-.225.716c-.09.272-.237.483-.448.63l-.58.39-.247-.666c-.112-.297-.032-.555.064-.838l.211-.651-3.555-1.243-.312.996c.147.143.247.268.302.4zm-3.193 1.395.408-2.145-3.001-.609c0 .083-.021.154-.032.218-.086.484-.347.623-1.048.484-.09-.021-.184-.039-.284-.072l.047-.269.089-.472.083-.44 2.066.426.225-1.139-2.076-.419.193-1.049.283.058c.734.146.895.311.823.73l-.039.157 3 .616.373-1.948-7.842-1.585-.189 1.016c.307.172.35.337.293.619l-.516 2.729c-.05.283-.15.426-.493.462l-.166.866-.035.173zm-34.662-4.396 2.488 1.812.14.723c.061.294 0 .455-.368.638l.203 1.042 4.222-.914-.208-1.041c-.43-.007-.523-.143-.584-.426l-.15-.727 1.618-2.707c.097-.143.198-.261.355-.358l-.204-1.031-3.247.709.146.73c.061.286.025.548-.078.78l-.312.645-.53-.443c-.24-.212-.294-.47-.354-.764l-.136-.68-3.678.803.204 1.016c.201.05.369.111.473.193zm8.758-1.531.212 2.757c.015.293-.021.455-.344.587l.064 1.057 4.071-.327c3.252-.271 4.194-.78 4.072-2.428l-.133-1.789c-.122-1.655-1.127-2.012-4.375-1.744l-4.075.325.079 1.039c.336.075.412.229.429.523zm12.368 2.853c-.358-.089-.39-.251-.372-.566l.064-1.239 1.905 2.973 3.244.2.247-4.379c.018-.283.064-.447.416-.53l.064-1.038-3.473-.212-.061 1.039c.415.121.444.271.433.576l-.089 1.436-1.848-3.144-3.662-.229-.061 1.039c.318.121.382.286.361.575l-.15 2.769c-.015.293-.093.45-.434.526l-.057 1.056 3.408.215z" fill="#fefefe"/><path d="m38.385 82.465 1.83-1.071c-.48.057-1.912-.025-3.055-.108-.544-.042-1.013-.075-1.282-.103-.068 0-.114-.004-.157-.004-.705-.053-1.285-.186-1.776-.398l.225-.053a8.95 8.95 0 0 0 .928-.333c.175-.071.34-.143.519-.221.093-.051.186-.109.283-.162a10.883 10.883 0 0 0 2.474-1.837c.502-.487.981-1.024 1.429-1.622.043.809.232 1.504.594 2.037.623.899 1.672 1.293 3.051 1.128.301-.028.626-.096.956-.196.164-.048.329-.105.505-.169a19.76 19.76 0 0 1 -3.223 1.987 21.931 21.931 0 0 1 -4.024 1.522c.064-.032.136-.053.207-.093zm19.101-4.602c-1.328.182-2.639.333-3.898.38.948-.312 1.84-.86 2.675-1.648.039.258.128.477.253.677.168.237.463.501.97.591zm6.011-.948c-.787.137-1.586.276-2.384.398l1.106-1.471c.033.06.065.121.101.171.282.412.68.702 1.177.902zm-28.077-4.028c.798-2.27 1.955-3.669 2.438-3.892.211-.007.265.054.283.082.096.133.232.655-.387 2.671-.161.509-.318.921-.472 1.3-.502 1.207-.924 1.98-1.368 2.485-.028.036-.061.068-.089.1-.387.405-.703.591-.839.634-.132.004-.15-.025-.168-.043-.186-.114-.204-.634.111-1.804.118-.419.273-.924.491-1.533zm10.234-1.189c.96-2.499 1.955-3.677 2.45-3.903.204-.01.254.05.271.075.093.14.219 1.379-.855 3.978-.534 1.279-.985 2.081-1.461 2.586-.383.405-.701.594-.842.626-.651.118.437-3.362.437-3.362zm30.704 2.819s-.82-.81-.375-1.909l1.027-2.488.447-1.104-.114.573zm-4.748-3.867c-.473.329-.917.558-1.83.952-.143.05-.279.1-.404.15-.584.215-1.042.344-1.372.387-.505.061-.644-.072-.752-.387a2.208 2.208 0 0 1 -.128-.576l2.953-.348zm7.819-4.833a8.87 8.87 0 0 0 -.176.68c-.244 1.211-.053 2.241.565 2.832l.462.434c.33.257 1.164.705 1.189.716v.011c-.025.071-.143.418-.476.468a.691.691 0 0 1 -.293-.014s-.48-.015-1.139-.501c-.552-.412-1.085-1.382-1.418-2.106-.082-.175-.146-.34-.204-.472l.043-.096c.559-1.354.777-1.694 1.264-2.282.14-.146.308-.304.469-.425-.104.254-.208.504-.286.755zm-52.339 3.329c-.357.2-.608.293-.623.293l2.024-4.697c.021 0 2.073-.416 1.586.987a8.53 8.53 0 0 1 -.455 1 5.4 5.4 0 0 1 -.741 1.038 6.913 6.913 0 0 1 -1.791 1.379zm30.156-2.33c.043-.032.873-.539 1.561.363.304.408.433.83.433.83l-.136.337c-.58-.659-1.858-.971-1.973-1.343-.014-.06.04-.126.115-.187zm13.182-.356-1.636.19c.018-.021.028-.046.043-.071.591-.892 1.271-1.487 1.618-1.49.283-.008.222.522-.025 1.371zm-28.057-11.517c1.135-.818 2.378-1.773 2.435-1.991a2.416 2.416 0 0 1 -.358-.359c4.146-1.6 4.433-6.187 4.433-6.187.042 4.744-3.664 6.546-3.664 6.546.126.179.394.268.394.268-1.017.752-1.905 1.701-1.905 1.701 3.946 5.253 7.344 4.844 7.344 4.844-4.708.813-8.679-4.822-8.679-4.822zm12.311-13.732c2.21 4.14.896 8.887.896 8.887.634-4.272-.975-7.566-2.091-9.255-.527-.803-.949-1.246-.949-1.246.247.573.394 1.138.501 1.657.222 1.103.186 1.937.186 1.937a9.622 9.622 0 0 0 -.555-1.607c-.522-1.136-1.074-1.723-1.074-1.723.286.684.52 1.375.677 2.062 1.715 6.951-2.321 14.094-2.321 14.094 2.346-4.849 2.26-10.166 1.823-13.216-.025-.122-.046-.244-.068-.358-.505-2.8-1.755-3.864-1.755-3.864-1.246.323-2.885-1.098-2.885-1.098s.469.196 1.307-.148c.837-.343 1.328-1.3 2.116-1.976 1.206-1.042 4.608-.849 4.608-.849-2.846.53-3.978 3.323-3.978 3.323.329-.011.669.089 1.024.283.82.465 1.683 1.493 2.538 3.097zm-11.521-4.116c-.433.828-2.337.355-2.337.355 2.148.09 1.932-.895 1.18-.981 0 0 1.422.133 1.157.626zm2.479-26.441c.748-.061.895.064.934.491l.158 2.18c.04.459-.107.63-.845.691l-.379.029-.251-3.359z" fill="#002e5a"/><path d="m50.357 36.193s-.996 1.651-2.388 1.593c0 0 .487.344 1.121.473.583.111 2.116-.501 1.267-2.066" fill="#fefefe"/></svg>