<svg clip-rule="evenodd" fill-rule="evenodd" stroke-linejoin="round" stroke-miterlimit="1.414" viewBox="0 0 100 100" xmlns="http://www.w3.org/2000/svg"><g fill-rule="nonzero"><path d="m31.464 82.062-.596 2.857-3.595-.001c-.515.004-1.073.031-1.349.189-.304.172-.387.4-.41.714-.097 1.378 5.539.653 5.265 4.515-.102 1.434-.698 2.774-1.642 3.498-1.11.853-2.697 1.15-4.359 1.166h-4.355l.6-2.833 3.571-.001c.432 0 1.401 0 1.8-.248.296-.183.553-.57.575-.875.021-.3-.22-.508-.608-.689-1.417-.661-4.806-.958-4.584-4.062.098-1.389.608-2.498 1.529-3.167 1.023-.743 2.512-1.036 3.981-1.063zm9.299 6.969c.656-3.939 3.34-7.33 8.079-7.037 1.514.094 2.493.659 3.185 1.411.935 1.018 1.27 2.445.987 4.146-.399 2.39-1.483 4.677-3.38 5.963-1.23.834-2.836 1.19-4.7 1.074-3.562-.219-4.664-2.598-4.171-5.557zm26.603 5.315h-3.608l2.584-12.284h4.751l1.162 5.56h.036l3.137-5.56h4.661l-2.585 12.284h-3.624l1.271-6.122.27-.976h-.037l-4.17 6.549h-1.073l-1.35-6.549h-.036l-.153 1.08zm-6.81-12.284c2.494 0 4.021 1.348 3.863 3.606-.118 1.686-.942 2.969-2.681 3.795l1.025 4.883h-3.652l-1.438-6.94h1.342c.802 0 1.611-.311 1.688-1.404.056-.801-.525-1.084-1.127-1.084h-2.415l.512 2.488-1.459 6.94h-3.633l2.585-12.284zm-18.405 0-.607 2.856-3.923.001.586 2.622-1.431 6.805h-3.625l1.977-9.428h-3.268l.606-2.856zm7.21 5.484c.274-1.653-.199-2.543-1.428-2.62-1.917-.118-3.079 1.479-3.517 4.111-.272 1.634.198 2.542 1.427 2.619 1.918.119 3.081-1.497 3.518-4.11zm17.593-8.531c.164-.772.649-1.396 1.533-1.396.882 0 1.101.624.937 1.396-.165.775-.65 1.402-1.533 1.402s-1.102-.627-.937-1.402zm3.669.375c-.05.237-.04.513.384.513.415 0 .542-.276.592-.513l.368-1.731h.627l-.367 1.731c-.151.708-.663 1.027-1.334 1.027-.676 0-1.048-.319-.897-1.027l.368-1.731h.627zm-14.801.988h-.572l.578-2.719h.812l.3 1.479h.009l.852-1.479h.869l-.578 2.719h-.628l.296-1.412.1-.395h-.007l-1.051 1.688h-.241l-.363-1.688h-.009l-.073.395zm20.248 0h-.572l.578-2.719h.572l.771 1.695h.008l.131-.671.217-1.024h.571l-.578 2.719h-.611l-.748-1.632h-.009l-.113.608zm-12.828 0h-1.826l.578-2.719h.627l-.468 2.203h1.199zm17.2 0h-1.894l.577-2.719h1.875l-.11.516h-1.247l-.115.54h1.065l-.11.516h-1.064l-.134.631h1.267zm-19.718 0h-1.895l.578-2.719h1.875l-.11.516h-1.247l-.115.54h1.064l-.11.516h-1.063l-.135.631h1.268zm4.462 0h-1.247l.578-2.719h1.167c.583 0 .843.264.749.708-.061.292-.283.504-.551.6l-.002.007c.273.089.457.297.382.648-.099.468-.492.756-1.076.756zm9.327-2.719c.58 0 .881.344.768.88-.082.384-.315.66-.687.792l.223 1.047h-.629l-.311-1.476h.312c.22 0 .411-.112.465-.363.054-.256-.091-.364-.286-.364h-.516l-.469 2.203h-.628l.579-2.719zm-5.716 1.356c.114-.536.015-.88-.421-.88s-.68.344-.794.88c-.114.531-.017.888.419.888.435 0 .683-.357.796-.888zm-3.989.227-.132.62h.548c.216 0 .377-.08.425-.308.047-.22-.078-.312-.318-.312zm.606-.515c.215 0 .348-.077.389-.276.04-.184-.057-.276-.272-.276h-.496l-.117.552zm-21.07-1.026h-20.191l10.167-16.518-.937-.578c-4.743-2.926-8.326-6.991-10.358-11.758l-.181-.423-21.788 16.534 20.145-22.371-.001-.055c.023-2.517 1.127-5.619 2.042-7.239 1.415-2.507 5.088-6.777 11.148-11.242 2.75-2.024 5.734-3.48 5.86-3.541 0 0 1.464-.614 2.874-.58l.007-.002-.002.002c1.586.007 3.417.573 4.909 1.178 0 0 8.994-7.802 11.237-9.742 4.513-3.903 12.504-10.366 12.504-10.366s-4.13 5.068-8.242 9.875c-2.202 2.574-12.177 13.642-12.177 13.642l-.256 2.264c-.05.44-1.04 1.018-1.044.805.001-.297-.018-3.116-.023-3.856a.315.315 0 0 0 -.143-.25c-.06-.035-3.886-2.055-3.886-2.055s2.923 2.436 2.979 2.488a.42.42 0 0 1 .123.263c.013.537.14 3.69.101 4.071-.038.381-1.231 1.139-1.244.836-.013-.295-.176-3.328-.212-4.003a.248.248 0 0 0 -.125-.2c-.074-.047-3.593-2.036-3.593-2.036s2.607 2.336 2.66 2.385c.056.05.097.135.104.227.05.74.281 4.112.294 4.285.005.359-1.406 1.305-1.422.989l-.31-3.804a.384.384 0 0 0 -.181-.306c-.086-.053-3.616-2.359-3.616-2.359s2.474 2.419 2.558 2.513a.595.595 0 0 1 .182.376c.11.883.559 4.371.576 4.499.019.18-.534.683-1.068.886-.06.068-.251.267-.53.556l-6.681 7.2c.295.222.584.457.584.457 2.332 2.071 4.414 4.953 5.607 6.822.509.086 11.111 1.779 11.312 1.811 1.561-11.812 7.153-17.151 7.153-17.151.56-.557 1.038-.932 1.123-.999.818.312 1.412.6 1.412.6 5.291 2.493 11.72 8.264 11.991 8.508l.513.464-1.272 8.777-1.538-.112-.252 4.132-1.717.607-.846 2.361s-2.173 2.95-2.908 3.798l-.467.484 5.985 5.505-1.018.954c-7.247 6.799-16.903 10.392-27.921 10.392zm28.997-9.546c-1.816 1.578-5.676 4.941-12.368 7.638 7.072-1.084 11.418-3.902 14.192-5.941l1.039-.835-1.898-1.741z" fill="#092340"/><path d="m40.98 72.806s11.207-10.023 12.974-21.629l.059-.495-11.182-1.779v13.006l-12.759 14.498h14.272c4.294 0 16.829-.469 27.036-10.043l-4.888-4.496c-7.234 8.649-25.512 10.938-25.512 10.938z" fill="#512d82"/><path d="m34.645 34.914-.975-3.636-25.402 27.02 24.192-19.291.861 2.974 9.367-10.095-1.141-3.166zm31.046-27.851-16.325 14.644s1.422.537 1.81 1.024z" fill="#fff"/><path d="m39.433 53.371-10.547-8.768-2.048 1.61c3.081 5.431 9.37 9.664 9.37 9.664l-.013 4.727-9.724 15.803 12.927-15.291zm23.809-20.368c1.715 1.947 6.681 6.965 6.681 6.965l.376 6.38.728.854-2.107 1.283-3.093-4.987s-3.558 3.342-5.827 8.571l-3.108-.466s-.665 5.293-4.566 11.738l.138-.103c4.759-3.508 6.476-8.338 6.476-8.338s4.252 3.894 4.638 4.209c.135.11.439.333.823.525.415.209.816.221 1.313.208.361-.009.783-.027 1.072-.324.696-.802 1.248-1.607 1.248-1.607l-1.467-1.697.269-.773 1.918 1.201.746-.741-3.004-1.868-1.731.486.444-1.036 1.277-.738 2.503 1.84.787.548.532-1.388-1.134-1.045-.044-.739 2.094.976.772-.273.28-4.584 1.642.121 1-6.9s-6.497-5.858-11.676-8.298zm6.088 7.447c-1.362 1.004-3.001 2.554-3.001 2.554l2.743 2.388zm-26.614-11.918c-.028-.157-.075-.258-.242-.344-1.027-.487-5.59-2.493-5.161-3.047.456-.588 3.502-3.466 3.502-3.466s-2.971 1.442-5.658 3.418c-6.183 4.557-9.555 8.656-10.788 10.836-.847 1.501-1.514 3.911-1.514 3.911l12.503-13.108s2.71.525 6.189 1.988l1.141 3.166.548-.06s.131-.022.104-.152c-.114-.589-.501-2.469-.624-3.142z" fill="#c6c9c8"/></g></svg>