<svg clip-rule="evenodd" fill-rule="evenodd" stroke-linejoin="round" stroke-miterlimit="2" viewBox="0 0 100 100" xmlns="http://www.w3.org/2000/svg"><path d="m52.198 80.605-2.114 2.293-2.429-2.293-12.388-1.603-11.689-6.694-7.248-8.716-3.876-9.226-3.621-4.366-.78-3.743v-3.55l2.353-2.755-3.381-36.397 86.277.198-3.507 36.245 2.316 4.933v4.099l-4.93 7.25-5.786 10.725-5.76 5.303-8.245 5.214-10.776 3.083z" fill="#fff" fill-rule="nonzero"/><path d="m27.342 63.592c3.511 3.821 8.367 5.983 10.983 6.94-.4-2.448-.519-4.695-.554-6.012-4.129-.125-7.619-.435-10.429-.928zm45.623 0c-2.81.493-6.3.803-10.429.928-.034 1.317-.155 3.564-.554 6.012 2.616-.957 7.471-3.119 10.983-6.94zm-33.082-5.45.544-4.18.46-2.91s.366-2.372.493-2.53c0 0-2.86-1.644-5.226-2.514 0 0-1.811-.838-5.162-1.771 0 0-2.621-.933-5.543-.332 0 0-2.86.585-4.083 2.641 0 0-1.35 2.403-.333 5.25 0 0 .699 1.85 1.635 2.656 0 0 1.939 2.04 5.893 2.957 0 0 2.908.664 4.893.743 0 0 5.091.122 6.429-.01zm20.656 0-.547-4.203-.463-2.925s-.368-2.385-.495-2.544c0 0 2.875-1.653 5.254-2.527 0 0 1.82-.843 5.19-1.781 0 0 2.634-.938 5.573-.334 0 0 2.875.588 4.104 2.655 0 0 1.358 2.416.336 5.278 0 0-.704 1.86-1.645 2.671 0 0-1.949 2.05-5.925 2.972 0 0-2.923.669-4.919.748 0 0-5.118.122-6.463-.01zm-24.232-36.202c-6.452-6.348-16.658-11.004-24.572-13.973l.833 8.26s7.081 1.268 16.871 6.348c8.098 3.945 15.375 11.36 17.848 14.036.24-.238.488-.476.745-.714-1.555-2.711-5.127-7.772-11.725-13.957zm34.377.635c9.995-5.08 17.077-6.348 17.077-6.348l.832-8.26c-7.914 2.969-18.12 7.625-24.781 13.973-6.445 6.207-9.984 11.284-11.53 13.985.22.204.433.408.638.611 2.586-2.738 9.904-10.052 17.764-13.961zm8.332-15.239c-6.254 2.962-12.922 6.772-17.917 11.642-5.417 5.295-8.955 9.739-11.04 12.912-2.081-3.173-5.412-7.617-10.829-12.912-5-4.87-11.662-8.68-17.912-11.642z" fill="#008445" fill-rule="nonzero"/><path d="m47.739 97.5h-2.531v-11.259h4.571c.484 0 .97.004 1.441.078.236.037.467.091.693.172.224.08.442.186.652.325.776.531 1.248 1.439 1.353 2.396.015.136.023.274.023.411 0 .48-.1.946-.287 1.364-.063.14-.135.274-.215.401-.122.192-.264.369-.425.527-.108.104-.223.202-.347.289-.185.13-.388.239-.607.322l1.953 4.834c-.835.061-1.62.108-2.205.14h-.555l-1.661-4.446h-1.853zm-4.404-6.832c.176-.372.271-.813.271-1.293 0-1.1-.464-2.323-1.301-3.155-.297-.29-.614-.508-.941-.681-.218-.115-.441-.21-.667-.292-.113-.041-.226-.079-.34-.115-.228-.07-.457-.133-.685-.194l-4.321-1.162v11.083c.751.274 1.508.532 2.133.706.089.025.176.048.26.07v-4.406l1.75.471 1.57 4.871 2.661.715-1.898-5.484c.691-.089 1.213-.515 1.508-1.134zm12.163 6.57c1.009-.092 1.94-.205 2.533-.334v-10.983l-2.533.454zm12.104-10.256c-.018-.084-.036-.168-.056-.251-.18-.744-.475-1.424-.883-1.914-.153-.182-.314-.336-.484-.463-.057-.042-.114-.081-.173-.117-.236-.145-.486-.242-.754-.295-.067-.014-.135-.025-.204-.032-.138-.017-.28-.021-.427-.017-.366.014-.76.091-1.18.224-.187.059-.369.128-.544.204-.174.077-.342.162-.505.254-.566.325-1.055.742-1.471 1.226-1.245 1.454-1.823 3.513-1.823 5.472 0 1.411.323 2.77 1.062 3.702.05.062.101.121.154.177.366.39.791.625 1.271.724.274.056.567.068.876.037.31-.029.637-.1.98-.21.087-.027.171-.056.256-.088.168-.064.335-.136.497-.217.162-.08.322-.17.477-.268.697-.443 1.317-1.06 1.813-1.845.11-.175.215-.358.313-.549.082-.159.157-.325.228-.495.213-.508.378-1.058.497-1.609.158-.733.235-1.467.235-2.107 0-.342-.023-.689-.069-1.032-.023-.173-.052-.343-.086-.511zm-38.303-6.377-2.936 9.539 1.881 1.104.574-1.979 2.963 1.736.561 2.641.213.125c.463.19 1.19.483 1.997.79l-2.771-12.501zm46.293-.794c-.063-.146-.14-.276-.229-.387-.179-.221-.407-.366-.682-.41-.302-.042-.626.034-.962.177-.048.021-.096.043-.145.066-.097.046-.195.098-.294.153-.048.027-.098.055-.147.084-.099.059-.199.121-.298.183-.149.096-.299.195-.449.294l-3.769 2.521v11.258l2.086-1.394v-4.449l1.528-1.017 1.368 3.531 2.324-1.55-1.658-3.867c.604-.68 1.06-1.551 1.317-2.42.154-.522.236-1.043.236-1.523 0-.344-.039-.66-.115-.938-.032-.11-.068-.215-.111-.312zm-10.546 11.684c-.025.101-.052.199-.081.294-.268.922-.71 1.508-1.524 1.765-1.671.531-1.862-1.656-1.862-3.068 0-.442.034-.996.118-1.532.033-.215.074-.426.124-.626.025-.1.053-.198.082-.292.281-.912.725-1.511 1.538-1.77.277-.088.511-.114.71-.076.266.049.47.211.636.485.041.068.081.144.117.226.037.083.071.17.101.262.213.635.269 1.449.269 2.166 0 .646-.056 1.461-.228 2.166zm-17.307-.38s2.485.05 2.943-.229c.413-.262.634-.787.634-1.28 0-.166-.036-.336-.099-.497-.086-.214-.221-.411-.388-.554-.042-.036-.086-.069-.132-.098-.426-.279-1.153-.214-1.629-.214h-1.329zm-7.214-1.302c-.379.142-2.781-.521-2.781-.521v-2.872l1.255.34c.112.03.24.06.373.094.134.034.275.072.414.119.279.093.552.22.754.414.086.081.165.174.236.277.211.308.346.696.346 1.027 0 .491-.208.963-.597 1.122zm-15.05-10.971-1.414 6.396-.025-.023-1.535-8.874-1.976-1.657-1.482 6.337-.026-.022-1.401-8.76-2.188-1.839 2.362 13.246 2.082 1.747 1.441-6.243.025.025 1.483 8.641 2.219 1.441 2.197-8.934zm3.863 8.666.976-3.385.974 4.525zm53.366-9.974c-.234-.019-.519.041-.821.142-.252.084-.516.198-.776.317-.103.048-.206.097-.306.147-.15.073-.296.145-.433.212-.509.27-1.291.664-1.291-.156 0-.489.215-.923.502-1.285.065-.08.132-.157.202-.229.07-.073.141-.142.213-.208.109-.098.219-.187.324-.266.149-.113.287-.204.414-.273.128-.069.246-.115.353-.138.072-.016.14-.02.202-.016.032.003.063.008.092.017.059.016.114.043.165.08.025.019.05.041.073.065.071.073.133.171.187.294.018.042.035.086.051.133l1.775-2.081c-.138-.385-.319-.656-.541-.827-.277-.215-.615-.275-.998-.206-.077.014-.156.032-.236.056-.161.047-.329.114-.504.198-.348.168-.722.407-1.113.703-.308.234-.609.494-.899.791-.484.494-.938 1.089-1.345 1.827-.16.29-.3.579-.421.868-.12.289-.221.575-.301.86-.081.284-.141.565-.182.84-.04.275-.06.545-.06.807 0 1.001.258 1.495.671 1.678.096.042.199.068.31.079.037.004.074.005.113.007.384.006.841-.138 1.324-.346.241-.103.49-.222.738-.345.549-.267 1.566-.856 1.566.079 0 .527-.252 1.035-.579 1.46-.073.095-.149.185-.227.271-.078.085-.159.166-.238.241-.12.113-.24.213-.352.299-.636.483-1.156.682-1.503.44-.158-.11-.281-.312-.362-.62l-1.932 2.019c.152.71.462 1.121.879 1.29.693.281 1.684-.11 2.736-.908.899-.679 1.878-1.633 2.595-2.883.087-.15.168-.302.246-.455.156-.308.293-.624.41-.939.291-.789.453-1.58.453-2.267 0-.558-.111-.987-.313-1.284-.202-.296-.496-.461-.861-.488zm-9.573 6.589c-.189.266-.401.464-.619.632-.109.084-1.809 1.215-1.809 1.215v-2.871l1.097-.732c.098-.065.209-.143.326-.223.175-.119.363-.242.54-.332.178-.089.345-.144.476-.128.302.03.51.367.51.808 0 .494-.184 1.139-.521 1.631zm21.168-81.623s-3.072 32.641-3.5 37.475c1.924 1.964 2.585 4.421 2.585 6.424-.012 2.504-1.525 5.464-4.19 8.201-.239.244-.492.487-.75.727-1.189 3.565-3.096 7.712-6.063 11.667-5.548 7.395-14.856 14.048-29.962 14.715l-2.331 2.376-2.314-2.357c-15.222-.547-24.571-7.263-30.115-14.737-2.962-3.99-4.855-8.172-6.029-11.757-.223-.21-.441-.422-.65-.634-2.664-2.737-4.178-5.697-4.189-8.201-.001-1.989.652-4.423 2.544-6.38-.783-8.925-3.466-37.519-3.466-37.519h88.43zm-52.545 70.388-.013-.034-.022-.062-.021-.079-.031-.091-.031-.106-.035-.119-.037-.136-.038-.155-.045-.167-.04-.189-.05-.209-.044-.218-.045-.246-.053-.257-.051-.284-.052-.304-.054-.322-.045-.34-.054-.365-.049-.382-.052-.411-.049-.434-.046-.453-.047-.478-.047-.507-.047-.523-.039-.552-.043-.585v.023l-.01-.575v-.607l.01-.623.019-.639.039-.659.036-.671.054-.682.057-.684.064-.692.075-.696.075-.697.086-.684.082-.686.088-.673.092-.659.088-.646.097-.636.089-.602.089-.583.09-.563.09-.525.082-.495.08-.464.076-.424.068-.388.062-.348.044-.249.094.053.142.088.143.094.151.107.169.102.162.109.173.113.178.119.181.117.182.118.194.122.186.124.197.128.188.117.191.126.186.121.195.123.185.118.179.114.179.112.17.113.165.105.163.105.15.095.152.102.149.101.153.115.157.114.149.114.15.114.154.121.149.117.142.125.147.122.146.12.131.121.138.114.132.117.127.114.122.11.116.11.057.047 1.29 20.174 1.312-20.294.032-.022.132-.115.134-.113.144-.116.147-.119.151-.122.146-.12.158-.121.157-.125.155-.118.156-.121.158-.12.164-.111.156-.117.16-.109.152-.103.157-.106.155-.095.026-.017.134-.099.145-.102.16-.112.163-.112.164-.114.179-.119.177-.119.188-.122.184-.121.188-.124.196-.121.186-.121.186-.125.189-.118.184-.117.185-.119.178-.113.168-.109.169-.1.169-.1.143-.094.146-.091.132-.078.005-.004.052.272.06.348.067.388.077.424.08.464.083.495.088.525.089.563.091.583.088.602.098.636.088.646.094.659.085.673.082.686.09.684.071.697.074.696.067.692.057.684.053.682.039.671.035.659.021.639.008.623v.607l-.016.575v-.023l-.036.585-.038.552-.048.523-.044.507-.048.478-.05.453-.049.434-.052.411-.044.382-.053.365-.052.34-.054.322-.054.304-.048.284-.053.257-.042.246-.046.218-.053.209-.041.189-.041.167-.041.155-.033.136-.034.119-.035.106-.028.091-.023.079-.021.062-.013.02-.006.012-8.504 8.651-8.313-8.649zm2.515 6.456-2.588-.36-2.437-.492-2.301-.605-2.176-.722-2.045-.822-1.928-.912-1.8-1.007-1.688-1.076-1.579-1.145-1.471-1.212-1.361-1.262-1.268-1.302-1.167-1.344-1.081-1.369-.982-1.386-.899-1.4-.817-1.397-.738-1.398-.659-1.377-.593-1.349-.438-1.127.53.399.628.448.661.438.684.425.7.409.738.394.754.378.773.356.799.34.823.319.028.011c2.092 3.262 5.852 7.851 11.819 11.073 3.05 1.51 6 2.483 8.565 3.11l4.961 5.164zm38.515-16.416-.914 1.393-.993 1.393-1.095 1.369-1.185 1.337-1.29 1.309-1.381 1.259-1.497 1.202-1.598 1.152-1.723 1.082-1.833 1.001-1.961.918-2.087.819-2.213.723-2.346.607-2.484.492-2.627.36-2.042.163 5.06-5.143c2.518-.626 5.402-1.595 8.357-3.094 6.083-3.216 9.891-7.804 12.006-11.065l.002-.001.051-.018.82-.319.801-.34.772-.356.76-.378.727-.394.712-.409.679-.425.658-.438.63-.448.504-.387-.002.006-.436 1.109-.596 1.349-.666 1.377-.751 1.398zm-42.905 9.379s-10.562-2.737-15.474-10.589c-.116-.185 3.123 1.381 14.544 1.623 0 0-.071 4.532.93 8.966zm21.48-8.966c11.421-.242 14.659-1.808 14.545-1.623-4.913 7.852-15.476 10.589-15.476 10.589 1.001-4.434.931-8.966.931-8.966zm3.946-19.028.886-.311.885-.295.882-.281.884-.266.873-.241.867-.227.862-.205.849-.184.833-.164.82-.142.805-.12.789-.094.768-.069.747-.046.731-.014.699.01.677.041.652.074.622.098.596.138.56.168.537.206.487.242.459.288.424.329.365.372.326.413.266.461.214.5.147.535.091.575.038.609-.026.614-.08.613-.123.605-.175.596-.208.588-.264.574-.296.564-.343.549-.386.542-.411.525-.46.517-.488.494-.527.482-.558.466-.581.444-.618.438-.649.421-.675.389-.7.378-.726.357-.754.337-.773.311-.802.291-.817.268-.841.242-.857.226-.872.186-.893.172-.91.142-.923.115-.931.088-.95.052h-.013l-.946.016-.924.008h-.902l-.872-.008-.848-.016-.822-.014-.463-.018.033.4.06.701.051.696.029.5.493.015 1.058.016 1.088-.005 1.102-.022 1.125-.037 1.134-.062 1.148-.08 1.155-.105 1.154-.125 1.159-.164 1.15-.18 1.152-.212 1.136-.251 1.126-.272 1.102-.317.835-.269.812-.284.789-.308.769-.33.752-.348.722-.363.702-.379.685-.386.647-.417.638-.415.606-.433.582-.443.559-.45.529-.463.506-.466.482-.472.451-.473.426-.477.397-.481.377-.481.337-.483.318-.475.283-.477.254-.471.224-.469.193-.453.171-.448.134-.441.106-.426.073-.414.044-.397.017-.381-.008-.396-.03-.412-.052-.416-.078-.421-.1-.432-.13-.427-.155-.438-.178-.421-.221-.421-.237-.42-.281-.408-.31-.402-.346-.386-.378-.38-.424-.355-.466-.343-.496-.32-.556-.302-.6-.274-.644-.253-.69-.225-.747-.191-.788-.16-.854-.121-.911-.089-.965-.043-1.025-.004-1.086.045-1.143.091-1.207.136-1.275.193-1.339.247-1.357.274-1.32.308-1.28.337-1.243.369-1.211.393-1.175.415-1.133.436-1.096.451-1.058.472-1.011.477-.978.486-.939.497-.893.493-.858.498-.812.494-.767.492-.731.476-.687.474-.611.434-.19.144-.403.304-.023.015-.556.42-.505.398-.456.379-.414.345-.366.313-.316.288-.268.244-.22.207-.174.163-.124.121-.07.075-.019.015-.374.388-.026-.028-.341-.363-.022-.02-.067-.076-.121-.112-.166-.163-.217-.216-.264-.243-.311-.28-.36-.318-.404-.345-.448-.374-.496-.4-.48-.372-.02.023-.127-.133-.01-.012-.493-.363-.625-.462-.674-.47-.718-.48-.762-.488-.805-.494-.842-.498-.887-.497-.925-.493-.972-.486-1.008-.477-1.047-.472-1.086-.451-1.128-.436-1.166-.415-1.207-.393-1.24-.369-1.281-.337-1.316-.308-1.354-.274-.011-.001-1.332-.246-1.276-.193-1.206-.136-1.143-.091-1.084-.045-1.029.004-.962.043-.908.089-.851.121-.798.16-.743.191-.694.225-.64.253-.597.274-.551.302-.508.32-.46.343-.425.355-.38.38-.343.386-.312.402-.276.408-.247.42-.211.421-.185.421-.151.438-.132.427-.099.432-.076.421-.051.416-.035.412-.007.396.016.381.045.397.073.414.105.426.135.441.17.448.195.453.222.469.257.471.288.477.314.475.339.483.372.481.399.481.426.477.452.476.477.469.51.466.525.463.561.45.581.443.61.433.634.415.653.417.68.386.702.379.721.363.754.348.769.33.788.308.815.284.832.269 1.107.317 1.122.272 1.13.251 1.148.212 1.15.18 1.147.164 1.15.125 1.151.105 1.137.08 1.126.062 1.117.037 1.091.022 1.08.005 1.051-.016.285-.008v.001l.288-.008v-.001l.03-.499.054-.696.059-.701.036-.4v-.004l-.486.022-.817.014-.843.016-.871.008h-.895l-.923-.008-.947-.016h-.015l-.944-.052-.933-.088-.923-.115-.91-.142-.894-.172-.871-.186-.862-.226-.837-.242-.818-.268-.801-.291-.774-.311-.752-.337-.723-.357-.704-.378-.675-.389-.644-.421-.623-.438-.586-.444-.557-.466-.522-.482-.489-.494-.458-.517-.413-.525-.384-.537-.342-.554-.302-.564-.262-.574-.211-.588-.173-.596-.122-.605-.079-.613-.025-.614.035-.609.084-.572.155-.538.207-.497.265-.456.312-.421.366-.369.412-.332.452-.28.491-.25.523-.206.559-.168.584-.138.618-.098.645-.074.678-.041.693-.01.723.014.745.046.766.069.792.094.804.12.82.142.834.164.858.184.861.205.877.227.884.241.895.263.898.284.897.295.904.311h.007l.061.022-.033-.011.872.336.871.364.849.363.823.38.802.382.776.389.746.391.72.394.06.033.003-.013.188.123.446.255.672.394.644.393.619.386.592.386.563.379.535.364.507.366.433.316.014.007.166.114.163.105.163.116.164.114.163.127.163.121.159.128.156.122.165.123.148.123.149.129.149.125.151.124.133.125.142.123.13.112.127.114.123.115.111.106.111.104.105.09.094.093.084.087.061.053.071-.062.181-.171.216-.184.25-.217.284-.24.308-.252.344-.279.375-.293.398-.303.434-.329.462-.339.489-.35.516-.363.546-.368.574-.375.598-.39.623-.391.655-.388.679-.398.708-.394.729-.395.755-.393.779-.382.801-.382.827-.38.851-.363.876-.364.898-.347h.005zm-28.538 13.812.862-.008 1.629-.028s.494-.023.497-.023l.059-.528.083-.678.084-.702.091-.68.181-1.322.096-.629.09-.608.089-.593.093-.578.091-.516.082-.504.225-1.288.061-.333.043-.249c.018-.108.052-.212.096-.308l-.03-.016c-.022-.013-.102-.064-.102-.064-.031-.014-.06-.03-.089-.047l-.747-.409-.728-.38-.752-.379-.789-.376-.793-.366-.842-.359-.855-.359-.821-.315c-.009-.004-.917-.316-.917-.316l-.886-.292-.876-.278-.87-.255-.871-.237-.489-.127c-5.044-.865-7.351 1.39-8.075 2.332-.285.505-.509 1.09-.678 1.769-.002.013-.006.027-.011.04-.362 1.266-.273 3.342 1.061 5.374l-.003-.002c.008.013.017.026.024.038.033.053.052.11.076.166.608.775 2.265 2.434 5.86 3.481l.781.204.818.177.875.168.854.133.906.114.891.084.894.049.936.015.913.008zm27.669 0 .915-.008.933-.015.908-.049.593-.056c.33-.044.681-.091 1.067-.142 5.585-.723 8.092-2.882 9.023-3.96.033-.08.075-.157.125-.23 1.442-2.087 1.622-4.265 1.316-5.592-.155-.629-.358-1.177-.612-1.655-.626-.866-2.962-3.402-8.357-2.404l-.323.085-.844.231-.868.261-.867.277-.865.287s-.907.32-.918.323l-.809.311-.867.362-.821.349-.811.374-.791.376-.754.367-.736.386-.717.388-.25.137c.041.089.071.181.092.279l.058.299.282 1.625.174 1.035.181 1.159.086.595.101.654.185 1.318.085.679.083.675.089.683c.001.013.055.54.055.54l.446.019 1.66.029.861.008zm16.033-10.357c-.695-2.834-2.304-4.354-4.75-4.956l.664-.06.712-.041.691-.012.664.007.632.04.604.062.56.096.528.119.498.151.447.172.41.202.368.23.316.255.291.28.235.309.199.341.161.375.121.414.075.457.018.504-.018.53-.068.525-.104.523-.149.52-.188.516-.229.511-.275.502-.306.497-.343.488-.38.477-.42.477-.455.463-.486.446-.52.433-.555.422-.455.323v-.002c1.537-2.215 1.937-4.743 1.507-6.596zm-59.401 6.382c.003.002.003.006.004.008l-.156-.115-.556-.422-.519-.433-.492-.446-.45-.463-.42-.477-.381-.477-.347-.494-.305-.491-.271-.502-.227-.511-.192-.516-.147-.52-.109-.523-.064-.525-.022-.53.026-.506.071-.455.112-.418.162-.374.195-.338.232-.309.284-.28.311-.258.366-.227.402-.205.441-.169.484-.151.523-.119.555-.096.601-.062.621-.04.665-.007.686.012.707.041.73.067c-2.432.607-4.03 2.123-4.734 4.949-.51 1.793-.205 4.219 1.214 6.382zm34.256-12.217.004.005.13.182.128.178.12.179.115.169.108.173.104.162.097.162.09.152.09.154.046.088c.23.393.342.62.342.62l-.056-.007-.008.005-.627.399-.74.489-.364.248c0 .001 0 .001.001.001l-.039.026v-.001c-.121-.319-.226-.713-.226-1.15 0-1.055-1.454-2.536-2.495-1.899-1.044.636-1.248 2.328 0 2.961.634.431 1 .862 1.206 1.18l-.049.035-.561.429-.515.413-.469.383-.424.354-.381.326-.324.289-.281.256-.229.217-.05.047-.047-.046-.228-.214-.271-.256-.319-.293-.374-.321-.418-.359-.462-.38-.506-.416-.507-.391c.195-.326.568-.787 1.252-1.253 1.251-.633.831-2.325 0-2.961-1.252-.637-2.5.844-2.5 1.899 0 .463-.119.887-.249 1.212l-.485-.331-.731-.494-.584-.376s.035-.076.109-.214l.057-.109.067-.125.073-.138.078-.143.089-.154.092-.152.095-.162.105-.162.102-.173.121-.169.086-.13c1.009-1.539 2.754-3.841 5.361-6.074l.002.005c.018-.013.031-.023.031-.023l1.086.961-.005.005c1.877 1.728 3.239 3.428 4.137 4.712zm25.464-5.141.889.041c2.366.178 4.122.709 5.311 1.218l.399.183c.017.011.027.017.027.017-.001-.003-.004-.003-.006-.006l.015.006.606.338.568.36.351.258 3.247-34.526h-84.059l3.245 34.529v.002l.354-.263.567-.36.579-.322c1.185-.569 3.108-1.24 5.844-1.438l.815-.037h1.064l1.123.045 1.186.091.505.059c.112.015.223.028.338.045l-.002-.006.401.046 1.304.197 1.37.249h-.004l1.385.282 1.34.311.897.237v-.001c-.5-.59-.795-1.361-.795-2.221 0-.429.072-.835.208-1.21l3.123 1.21-2.114-2.64c.572-.471 1.304-.746 2.114-.746 1.874 0 3.324 1.483 3.324 3.386 0 1.603-1.023 2.907-2.462 3.279l.704.255 1.154.442 1.114.464 1.072.475 1.026.493.995.496.945.501.9.509.344.201c.11-.201.701-1.236 1.763-2.669-1.554-1.625-5.384-5.324-10.879-8.682-7.291-4.445-15.205-6.561-15.205-6.561l.543 10.485c-1.325.059-2.748.277-4.006.814l-1.119-15.955s10.617 1.692 21.034 8.889c6.355 4.407 9.597 7.684 10.995 9.285.602-.713 1.291-1.471 2.062-2.236.24-.238.488-.476.745-.714.65-.608 1.353-1.212 2.109-1.799 0 0 1.482 1.211 2.141 1.827.22.204.433.408.638.611.811.799 1.531 1.589 2.158 2.332 1.373-1.593 4.576-4.878 10.81-9.306 10.631-7.197 21.251-8.889 21.251-8.889l-1.137 15.944c-1.313-.554-2.802-.766-4.17-.81l.731-10.478s-7.918 2.116-15.209 6.561c-5.528 3.376-9.371 7.098-10.911 8.71 1.026 1.387 1.606 2.397 1.736 2.628l.322-.188.912-.509.958-.501.997-.505 1.035-.484 1.078-.475 1.122-.464 1.155-.442.716-.257c-1.434-.381-2.457-1.683-2.457-3.277 0-1.903 1.458-3.386 3.337-3.386.74 0 1.48.294 2.074.788l-2.074 2.598 3.077-1.25c.163.385.253.806.253 1.25 0 .871-.347 1.651-.88 2.241l.972-.256 1.351-.311 1.373-.281.006-.001h-.006l1.371-.249 1.301-.197.396-.045-.003.005c.098-.015.191-.025.287-.038l.567-.066 1.186-.091 1.123-.045z" fill="#262c68"/></svg>